<svg id="Capa_1" data-name="Capa 1" xmlns="http://www.w3.org/2000/svg" xmlns:xlink="http://www.w3.org/1999/xlink" viewBox="0 0 1318 676"><defs><style>.cls-1,.cls-2{isolation:isolate;}.cls-2{font-size:14px;font-family:Roboto-Regular, Roboto;}.cls-2,.cls-4{fill:#fff;}.cls-3{fill:none;stroke:#fff;stroke-linecap:round;stroke-miterlimit:10;}.cls-5{letter-spacing:-0.02em;}.cls-6{letter-spacing:-0.01em;}.cls-7{letter-spacing:-0.01em;}.cls-8{letter-spacing:-0.01em;}.cls-9{letter-spacing:0.02em;}</style></defs><title>apolo15_2</title><rect width="1318" height="676"/><image class="cls-1" width="1892" height="1525" transform="translate(439 130.27) scale(0.28)" xlink:href="apolo15_21.png"/><text class="cls-2" transform="translate(279.01 140.21)">Antena de alta ganancia</text><line class="cls-3" x1="516.5" y1="155.68" x2="455.94" y2="138.65"/><path class="cls-4" d="M187.14,135.08a3.76,3.76,0,1,0,2.6,4.64,3.76,3.76,0,0,0-2.6-4.64Z" transform="translate(270)"/><text class="cls-2" transform="translate(558.06 136.27)">Cama<tspan class="cls-5" x="36.61" y="0">r</tspan><tspan x="41.08" y="0">a de tel</tspan><tspan class="cls-6" x="86.32" y="0">e</tspan><tspan x="93.65" y="0">visión</tspan></text><line class="cls-3" x1="593.98" y1="242.17" x2="615.68" y2="150.16"/><path class="cls-4" d="M349.3,151.18a3.76,3.76,0,1,0-4.53,2.8A3.77,3.77,0,0,0,349.3,151.18Z" transform="translate(270)"/><text class="cls-2" transform="translate(733.11 162.25)">Antena de Baja ganancia</text><line class="cls-3" x1="636.5" y1="233.68" x2="720.69" y2="167.88"/><path class="cls-4" d="M452.85,171a3.76,3.76,0,1,0-5.28-.66h0A3.76,3.76,0,0,0,452.85,171Z" transform="translate(270)"/><g class="cls-1"><text class="cls-2" transform="translate(767.11 210.25)">Cama<tspan class="cls-5" x="36.61" y="0">r</tspan><tspan x="41.08" y="0">a </tspan></text><text class="cls-2" transform="translate(767.11 227.05)">de 16mm</text></g><line class="cls-3" x1="719.32" y1="249.68" x2="759.7" y2="217.89"/><path class="cls-4" d="M491.87,221a3.76,3.76,0,1,0-5.28-.63A3.77,3.77,0,0,0,491.87,221Z" transform="translate(270)"/><g class="cls-1"><text class="cls-2" transform="translate(871.16 237.25)">Bolsas pa<tspan class="cls-5" x="61.09" y="0">r</tspan><tspan x="65.55" y="0">a </tspan></text><text class="cls-2" transform="translate(871.16 254.05)"><tspan class="cls-7">r</tspan><tspan x="4.61" y="0">ecolectar muest</tspan><tspan class="cls-5" x="105.07" y="0">r</tspan><tspan x="109.53" y="0">as</tspan></text></g><line class="cls-3" x1="859.54" y1="317.65" x2="904.21" y2="264.86"/><path class="cls-4" d="M637,267.43a3.76,3.76,0,1,0-5.3.44A3.77,3.77,0,0,0,637,267.43Z" transform="translate(270)"/><text class="cls-2" transform="translate(314 318.13)">Consola de da<tspan class="cls-8" x="88.79" y="0">t</tspan><tspan x="93.23" y="0">os</tspan></text><line class="cls-3" x1="668.5" y1="315.68" x2="453.07" y2="315.68"/><path class="cls-4" d="M183.26,311.92A3.76,3.76,0,1,0,187,315.7v0A3.76,3.76,0,0,0,183.26,311.92Z" transform="translate(270)"/><g class="cls-1"><text class="cls-2" transform="translate(270 397.13)">Unidad de t<tspan class="cls-5" x="70.42" y="0">r</tspan><tspan x="74.89" y="0">ansmisión </tspan></text><text class="cls-2" transform="translate(270 413.93)">de comuniciones lunar</text></g><line class="cls-3" x1="541.5" y1="347.68" x2="411.96" y2="380.8"/><path class="cls-4" d="M141.21,377.11a3.76,3.76,0,1,0,4.58,2.71,3.76,3.76,0,0,0-4.58-2.71Z" transform="translate(270)"/><g class="cls-1"><text class="cls-2" transform="translate(620 525.13)">Compa<tspan class="cls-9" x="44.84" y="0">r</tspan><tspan x="49.92" y="0">timen</tspan><tspan class="cls-8" x="85.3" y="0">t</tspan><tspan x="89.74" y="0">o pa</tspan><tspan class="cls-5" x="116.66" y="0">r</tspan><tspan x="121.12" y="0">a </tspan></text><text class="cls-2" transform="translate(620 541.93)">gua<tspan class="cls-7" x="23.19" y="0">r</tspan><tspan x="27.79" y="0">dar bolsas</tspan></text></g><line class="cls-3" x1="726.5" y1="412.68" x2="708.23" y2="500.18"/><path class="cls-4" d="M434.59,499.23a3.76,3.76,0,1,0,4.45-2.91h0A3.76,3.76,0,0,0,434.59,499.23Z" transform="translate(270)"/><g class="cls-1"><text class="cls-2" transform="translate(952.37 456.45)">Compa<tspan class="cls-9" x="44.84" y="0">r</tspan><tspan x="49.92" y="0">timen</tspan><tspan class="cls-8" x="85.3" y="0">t</tspan><tspan x="89.74" y="0">o pa</tspan><tspan class="cls-5" x="116.66" y="0">r</tspan><tspan x="121.12" y="0">a equipo</tspan></text><text class="cls-2" transform="translate(952.37 473.25)">científico y de la tripulación</text></g><line class="cls-3" x1="853.74" y1="404.85" x2="939.34" y2="450.01"/><path class="cls-4" d="M667.42,453.25a3.76,3.76,0,1,0-1.57-5.08h0A3.76,3.76,0,0,0,667.42,453.25Z" transform="translate(270)"/></svg>