<svg id="Capa_1" data-name="Capa 1" xmlns="http://www.w3.org/2000/svg" xmlns:xlink="http://www.w3.org/1999/xlink" viewBox="0 0 937 702"><defs><style>.cls-1,.cls-3{stroke:#fff;stroke-miterlimit:10;}.cls-2,.cls-4,.cls-5,.cls-6,.cls-7{isolation:isolate;}.cls-3{fill:none;}.cls-4{font-size:14px;}.cls-4,.cls-5,.cls-6,.cls-7{fill:#fff;font-family:Futura-Bold, Futura;font-weight:700;}.cls-5,.cls-6{font-size:26px;}.cls-6{letter-spacing:-0.02em;}.cls-7{font-size:12px;}</style></defs><title>proporcion rovin 2</title><rect class="cls-1" x="0.5" y="0.5" width="936" height="701"/><image class="cls-2" width="611" height="1765" transform="translate(386.97 77.54) scale(0.3)" xlink:href="proporcion%20rovin%2021.png"/><image class="cls-2" width="2040" height="1807" transform="matrix(-0.02, 0, 0, 0.02, 670, 148)" xlink:href="IMG_5314.PNG"/><polyline class="cls-3" points="494.5 68.5 333.5 68.5 333.5 600.5 458.5 600.5"/><text class="cls-4" transform="translate(265.9 319.14)">110.6 M</text><polyline class="cls-3" points="630.93 184.77 603.49 184.77 603.49 163.42 643 163.47"/><text class="cls-4" transform="translate(561.73 176.58)">90cm</text><g class="cls-2"><text class="cls-5" transform="translate(46 91.11)">PROPORCIÓN DEL </text><text class="cls-5" transform="translate(46 122.31)">R</text><text class="cls-6" transform="translate(61.75 122.31)">O</text><text class="cls-5" transform="translate(83.68 122.31)">VER </text><text class="cls-6" transform="translate(139.65 122.31)">L</text><text class="cls-5" transform="translate(152.02 122.31)">UNAR</text></g><g class="cls-2"><text class="cls-4" transform="translate(548.01 237.03)">Introducido en un compartimento </text><text class="cls-4" transform="translate(548.01 253.83)">del módulo de descenso LEM</text></g><polyline class="cls-3" points="506.5 154.5 540.5 154.5 540.5 197.5 512.5 197.5"/><text class="cls-7" transform="translate(750.08 632.83)">Fuente: hq.nasa.gov</text></svg>