<svg id="Capa_1" data-name="Capa 1" xmlns="http://www.w3.org/2000/svg" viewBox="0 0 437 1097">
  <defs>
    <style>
      .cls-1, .cls-2, .cls-8 {
        fill: #6b6b6b;
      }

      .cls-2, .cls-5 {
        font-size: 12px;
        font-family: MyriadPro-Regular, Myriad Pro;
        letter-spacing: 0em;
      }

      .cls-3 {
        letter-spacing: 0em;
      }

      .cls-4, .cls-5 {
        fill: #fff;
      }

      .cls-6 {
        fill: #ff8327;
      }

      .cls-7 {
        fill: none;
        stroke: #ff8327;
        stroke-miterlimit: 10;
      }

      .cls-8 {
        font-size: 14px;
        font-family: Roboto-Regular, Roboto;
      }

      .cls-9 {
        letter-spacing: -0.01em;
      }

      .cls-10 {
        letter-spacing: -0.01em;
      }

      .cls-11 {
        letter-spacing: -0.01em;
      }

      .cls-12 {
        letter-spacing: -0.02em;
      }

      .cls-13 {
        letter-spacing: -0.01em;
      }
    </style>
  </defs>
  <title>TP_web</title>
  <g>
    <g>
      <g>
        <g>
          <path class="cls-1" d="M88.81,310.79,36.37,326.31l2.46,7.7,50-14.14c0-3.53,0-6.77,0-9.08Z"/>
          <path class="cls-1" d="M39.37,322.88A21.47,21.47,0,0,1,41,289.33l-1.83-1.9a24.09,24.09,0,0,0-2.72,36.31Z"/>
          <path class="cls-1" d="M66.39,308a3.34,3.34,0,1,0-3.34-3.34A3.33,3.33,0,0,0,66.39,308Z"/>
          <path class="cls-1" d="M88.81,308.25v-1A30.56,30.56,0,0,0,39,283.65l-.05,0L58,303.5v13.86Zm-22.42-8.73a5.15,5.15,0,0,1,2.8.83l3.42-3.41,1.29,1.29-3.37,3.37a5.17,5.17,0,1,1-4.14-2.08Z"/>
          <path class="cls-1" d="M70.1,331.76c7.67,0,14.7,4.53,18.74,11.81h0s0-11.2,0-21.16L39.51,336.34c-1.7,2.59-3,5.19-4.6,7.23H51.36c4.11-7.39,11.11-11.81,18.74-11.81Z"/>
          <path class="cls-1" d="M70.1,334.27c-6.29,0-12.11,3.45-15.83,9.3H85.92C82.25,337.81,76.41,334.27,70.1,334.27Z"/>
        </g>
        <text class="cls-2" transform="translate(32.78 359.66)">A<tspan class="cls-3" x="7.31" y="0">polo 1</tspan></text>
        <g>
          <path d="M98.84,313.26c1,0-7-23-7-23l-5,6.79-2,9.21,1,9,5,7,9-3Z"/>
          <path class="cls-1" d="M142.81,310.79,90.37,326.31l2.46,7.7,50-14.14c0-3.53,0-6.77,0-9.08Z"/>
          <path class="cls-1" d="M93.37,322.88A21.47,21.47,0,0,1,95,289.33l-1.83-1.9a24.09,24.09,0,0,0-2.72,36.31Z"/>
          <path class="cls-1" d="M120.39,308a3.34,3.34,0,1,0-3.34-3.34A3.33,3.33,0,0,0,120.39,308Z"/>
          <path class="cls-1" d="M142.81,308.25v-1A30.56,30.56,0,0,0,93,283.65l0,0L112,303.5v13.86Zm-22.42-8.73a5.15,5.15,0,0,1,2.8.83l3.42-3.41,1.29,1.29-3.37,3.37a5.17,5.17,0,1,1-4.14-2.08Z"/>
          <path class="cls-1" d="M124.1,331.76c7.67,0,14.7,4.53,18.74,11.81h0s0-11.2,0-21.16L93.51,336.34c-1.7,2.59-3,5.19-4.6,7.23h16.45c4.11-7.39,11.11-11.81,18.74-11.81Z"/>
          <path class="cls-1" d="M124.1,334.27c-6.29,0-12.11,3.45-15.83,9.3h31.65C136.25,337.81,130.41,334.27,124.1,334.27Z"/>
        </g>
        <g>
          <path d="M152.84,313.26c1,0-7-23-7-23l-5,6.79-2,9.21,1,9,5,7,9-3Z"/>
          <g>
            <path class="cls-1" d="M196.81,310.79l-52.44,15.52,2.46,7.7,50-14.14c0-3.53,0-6.77,0-9.08Z"/>
            <path class="cls-1" d="M147.37,322.88A21.47,21.47,0,0,1,149,289.33l-1.83-1.9a24.09,24.09,0,0,0-2.72,36.31Z"/>
            <path class="cls-1" d="M174.39,308a3.34,3.34,0,1,0-3.34-3.34A3.33,3.33,0,0,0,174.39,308Z"/>
            <path class="cls-1" d="M196.81,308.25v-1A30.56,30.56,0,0,0,147,283.65l-.05,0L166,303.5v13.86Zm-22.42-8.73a5.15,5.15,0,0,1,2.8.83l3.42-3.41,1.29,1.29-3.37,3.37a5.17,5.17,0,1,1-4.14-2.08Z"/>
            <path class="cls-1" d="M178.1,331.76c7.67,0,14.7,4.53,18.74,11.81h0s0-11.2,0-21.16l-49.32,13.93c-1.7,2.59-3,5.19-4.6,7.23h16.45c4.11-7.39,11.11-11.81,18.74-11.81Z"/>
            <path class="cls-1" d="M178.1,334.27c-6.29,0-12.11,3.45-15.83,9.3h31.65C190.25,337.81,184.41,334.27,178.1,334.27Z"/>
          </g>
        </g>
      </g>
      <g>
        <g>
          <path class="cls-4" d="M264.44,304.48l-8.77-9.11a11.06,11.06,0,0,0-2.81,5c-.25,1.08-.53,3.91-.53,3.91l-3.41,6.81a.91.91,0,0,0-.08.41,1,1,0,0,0,1,1h2.45v3.62c0,2.75,1.09,4.14,2.69,4.73l9.42-2.79v-13.6Zm-8,2.21a1.52,1.52,0,1,1,1.52-1.52A1.53,1.53,0,0,1,256.45,306.69Z"/>
          <path class="cls-4" d="M297.66,310.79l-52.45,15.52,2.46,7.7,50-14.14c0-3.53,0-6.77,0-9.08Z"/>
          <path class="cls-4" d="M248.21,322.88a21.48,21.48,0,0,1,1.65-33.55l-1.83-1.9a24.09,24.09,0,0,0-2.72,36.31Z"/>
          <path class="cls-4" d="M275.24,308a3.34,3.34,0,1,0-3.34-3.34A3.34,3.34,0,0,0,275.24,308Z"/>
          <path class="cls-4" d="M297.66,308.25v-1a30.57,30.57,0,0,0-49.8-23.58l0,0,19.06,19.81v13.86Zm-22.42-8.73a5.17,5.17,0,0,1,2.8.83l3.41-3.41,1.3,1.29-3.38,3.37a5.11,5.11,0,0,1,1,3.09,5.17,5.17,0,1,1-5.17-5.17Z"/>
          <path class="cls-4" d="M278.94,331.76c7.68,0,14.71,4.53,18.74,11.81h0s0-11.2,0-21.16l-49.31,13.93c-1.71,2.59-3,5.19-4.6,7.23H260.2c4.11-7.39,11.11-11.81,18.74-11.81Z"/>
          <path class="cls-4" d="M278.94,334.27c-6.28,0-12.1,3.45-15.82,9.3h31.65C291.1,337.81,285.26,334.27,278.94,334.27Z"/>
        </g>
        <text class="cls-5" transform="translate(242.63 359.66)">A<tspan class="cls-3" x="7.31" y="0">polo 7</tspan></text>
        <g>
          <path d="M307.69,313.26c1,0-7-23-7-23l-5,6.79-2,9.21,1,9,5,7,9-3Z"/>
          <g>
            <path class="cls-4" d="M318.44,304.48l-8.77-9.11a11.06,11.06,0,0,0-2.81,5c-.25,1.08-.53,3.91-.53,3.91l-3.41,6.81a.91.91,0,0,0-.08.41,1,1,0,0,0,1,1h2.45v3.62c0,2.75,1.09,4.14,2.69,4.73l9.42-2.79v-13.6Zm-8,2.21a1.52,1.52,0,1,1,1.52-1.52A1.53,1.53,0,0,1,310.45,306.69Z"/>
            <path class="cls-4" d="M351.66,310.79l-52.45,15.52,2.46,7.7,50-14.14c0-3.53,0-6.77,0-9.08Z"/>
            <path class="cls-4" d="M302.21,322.88a21.48,21.48,0,0,1,1.65-33.55l-1.83-1.9a24.09,24.09,0,0,0-2.72,36.31Z"/>
            <path class="cls-4" d="M329.24,308a3.34,3.34,0,1,0-3.34-3.34A3.34,3.34,0,0,0,329.24,308Z"/>
            <path class="cls-4" d="M351.66,308.25v-1a30.57,30.57,0,0,0-49.8-23.58l0,0,19.06,19.81v13.86Zm-22.42-8.73a5.17,5.17,0,0,1,2.8.83l3.41-3.41,1.3,1.29-3.38,3.37a5.11,5.11,0,0,1,1,3.09,5.17,5.17,0,1,1-5.17-5.17Z"/>
            <path class="cls-4" d="M332.94,331.76c7.68,0,14.71,4.53,18.74,11.81h0s0-11.2,0-21.16l-49.31,13.93c-1.71,2.59-3,5.19-4.6,7.23H314.2c4.11-7.39,11.11-11.81,18.74-11.81Z"/>
            <path class="cls-4" d="M332.94,334.27c-6.28,0-12.1,3.45-15.82,9.3h31.65C345.1,337.81,339.26,334.27,332.94,334.27Z"/>
          </g>
        </g>
        <g>
          <path d="M361.69,313.26c1,0-7-23-7-23l-5,6.79-2,9.21,1,9,5,7,9-3Z"/>
          <g>
            <path class="cls-4" d="M372.44,304.48l-8.77-9.11a11.06,11.06,0,0,0-2.81,5c-.25,1.08-.53,3.91-.53,3.91l-3.41,6.81a.91.91,0,0,0-.08.41,1,1,0,0,0,1,1h2.45v3.62c0,2.75,1.09,4.14,2.69,4.73l9.42-2.79v-13.6Zm-8,2.21a1.52,1.52,0,1,1,1.52-1.52A1.53,1.53,0,0,1,364.45,306.69Z"/>
            <path class="cls-4" d="M405.66,310.79l-52.45,15.52,2.46,7.7,50-14.14c0-3.53,0-6.77,0-9.08Z"/>
            <path class="cls-4" d="M356.21,322.88a21.48,21.48,0,0,1,1.65-33.55l-1.83-1.9a24.09,24.09,0,0,0-2.72,36.31Z"/>
            <path class="cls-4" d="M383.24,308a3.34,3.34,0,1,0-3.34-3.34A3.34,3.34,0,0,0,383.24,308Z"/>
            <path class="cls-4" d="M405.66,308.25v-1a30.57,30.57,0,0,0-49.8-23.58l0,0,19.06,19.81v13.86Zm-22.42-8.73a5.17,5.17,0,0,1,2.8.83l3.41-3.41,1.3,1.29-3.38,3.37a5.11,5.11,0,0,1,1,3.09,5.17,5.17,0,1,1-5.17-5.17Z"/>
            <path class="cls-4" d="M386.94,331.76c7.68,0,14.71,4.53,18.74,11.81h0s0-11.2,0-21.16l-49.31,13.93c-1.71,2.59-3,5.19-4.6,7.23H368.2c4.11-7.39,11.11-11.81,18.74-11.81Z"/>
            <path class="cls-4" d="M386.94,334.27c-6.28,0-12.1,3.45-15.82,9.3h31.65C399.1,337.81,393.26,334.27,386.94,334.27Z"/>
          </g>
        </g>
      </g>
    </g>
    <g>
      <g>
        <g>
          <path class="cls-4" d="M264.44,441.48l-8.77-9.11a11.06,11.06,0,0,0-2.81,5c-.25,1.08-.53,3.91-.53,3.91l-3.41,6.81a.91.91,0,0,0-.08.41,1,1,0,0,0,1,1h2.45v3.62c0,2.75,1.09,4.14,2.69,4.73l9.42-2.79v-13.6Zm-8,2.21a1.52,1.52,0,1,1,1.52-1.52A1.53,1.53,0,0,1,256.45,443.69Z"/>
          <path class="cls-4" d="M297.66,447.79l-52.45,15.52,2.46,7.7,50-14.14c0-3.53,0-6.77,0-9.08Z"/>
          <path class="cls-4" d="M248.21,459.88a21.48,21.48,0,0,1,1.65-33.55l-1.83-1.9a24.09,24.09,0,0,0-2.72,36.31Z"/>
          <path class="cls-4" d="M275.24,445a3.34,3.34,0,1,0-3.34-3.34A3.34,3.34,0,0,0,275.24,445Z"/>
          <path class="cls-4" d="M297.66,445.25v-1a30.57,30.57,0,0,0-49.8-23.58l0,0,19.06,19.81v13.86Zm-22.42-8.73a5.17,5.17,0,0,1,2.8.83l3.41-3.41,1.3,1.29-3.38,3.37a5.11,5.11,0,0,1,1,3.09,5.17,5.17,0,1,1-5.17-5.17Z"/>
          <path class="cls-4" d="M278.94,468.76c7.68,0,14.71,4.53,18.74,11.81h0s0-11.2,0-21.16l-49.31,13.93c-1.71,2.59-3,5.19-4.6,7.23H260.2c4.11-7.39,11.11-11.81,18.74-11.81Z"/>
          <path class="cls-4" d="M278.94,471.27c-6.28,0-12.1,3.45-15.82,9.3h31.65C291.1,474.81,285.26,471.27,278.94,471.27Z"/>
        </g>
        <text class="cls-5" transform="translate(241.63 496.66)">A<tspan class="cls-3" x="7.31" y="0">polo 9</tspan></text>
        <g>
          <path d="M307.69,449.26c1,0-7-23-7-23l-5,6.79-2,9.21,1,9,5,7,9-3Z"/>
          <g>
            <path class="cls-6" d="M318.44,441.48l-8.77-9.11a11.06,11.06,0,0,0-2.81,5c-.25,1.08-.53,3.91-.53,3.91l-3.41,6.81a.91.91,0,0,0-.08.41,1,1,0,0,0,1,1h2.45v3.62c0,2.75,1.09,4.14,2.69,4.73l9.42-2.79v-13.6Zm-8,2.21a1.52,1.52,0,1,1,1.52-1.52A1.53,1.53,0,0,1,310.45,443.69Z"/>
            <path class="cls-6" d="M351.66,447.79l-52.45,15.52,2.46,7.7,50-14.14c0-3.53,0-6.77,0-9.08Z"/>
            <path class="cls-6" d="M302.21,459.88a21.48,21.48,0,0,1,1.65-33.55l-1.83-1.9a24.09,24.09,0,0,0-2.72,36.31Z"/>
            <path class="cls-6" d="M329.24,445a3.34,3.34,0,1,0-3.34-3.34A3.34,3.34,0,0,0,329.24,445Z"/>
            <path class="cls-6" d="M351.66,445.25v-1a30.57,30.57,0,0,0-49.8-23.58l0,0,19.06,19.81v13.86Zm-22.42-8.73a5.17,5.17,0,0,1,2.8.83l3.41-3.41,1.3,1.29-3.38,3.37a5.11,5.11,0,0,1,1,3.09,5.17,5.17,0,1,1-5.17-5.17Z"/>
            <path class="cls-6" d="M332.94,468.76c7.68,0,14.71,4.53,18.74,11.81h0s0-11.2,0-21.16l-49.31,13.93c-1.71,2.59-3,5.19-4.6,7.23H314.2c4.11-7.39,11.11-11.81,18.74-11.81Z"/>
            <path class="cls-6" d="M332.94,471.27c-6.28,0-12.1,3.45-15.82,9.3h31.65C345.1,474.81,339.26,471.27,332.94,471.27Z"/>
          </g>
        </g>
        <g>
          <path d="M361.69,449.26c1,0-7-23-7-23l-5,6.79-2,9.21,1,9,5,7,9-3Z"/>
          <g>
            <path class="cls-4" d="M372.44,441.48l-8.77-9.11a11.06,11.06,0,0,0-2.81,5c-.25,1.08-.53,3.91-.53,3.91l-3.41,6.81a.91.91,0,0,0-.08.41,1,1,0,0,0,1,1h2.45v3.62c0,2.75,1.09,4.14,2.69,4.73l9.42-2.79v-13.6Zm-8,2.21a1.52,1.52,0,1,1,1.52-1.52A1.53,1.53,0,0,1,364.45,443.69Z"/>
            <path class="cls-4" d="M405.66,447.79l-52.45,15.52,2.46,7.7,50-14.14c0-3.53,0-6.77,0-9.08Z"/>
            <path class="cls-4" d="M356.21,459.88a21.48,21.48,0,0,1,1.65-33.55l-1.83-1.9a24.09,24.09,0,0,0-2.72,36.31Z"/>
            <path class="cls-4" d="M383.24,445a3.34,3.34,0,1,0-3.34-3.34A3.34,3.34,0,0,0,383.24,445Z"/>
            <path class="cls-4" d="M405.66,445.25v-1a30.57,30.57,0,0,0-49.8-23.58l0,0,19.06,19.81v13.86Zm-22.42-8.73a5.17,5.17,0,0,1,2.8.83l3.41-3.41,1.3,1.29-3.38,3.37a5.11,5.11,0,0,1,1,3.09,5.17,5.17,0,1,1-5.17-5.17Z"/>
            <path class="cls-4" d="M386.94,468.76c7.68,0,14.71,4.53,18.74,11.81h0s0-11.2,0-21.16l-49.31,13.93c-1.71,2.59-3,5.19-4.6,7.23H368.2c4.11-7.39,11.11-11.81,18.74-11.81Z"/>
            <path class="cls-4" d="M386.94,471.27c-6.28,0-12.1,3.45-15.82,9.3h31.65C399.1,474.81,393.26,471.27,386.94,471.27Z"/>
          </g>
        </g>
      </g>
      <g>
        <g>
          <path class="cls-4" d="M55.6,441.48l-8.78-9.11a10.94,10.94,0,0,0-2.8,5c-.25,1.08-.54,3.91-.54,3.91l-3.41,6.81a1.07,1.07,0,0,0-.08.41,1,1,0,0,0,1,1h2.45v3.62c0,2.75,1.09,4.14,2.69,4.73l9.42-2.79v-13.6Zm-8,2.21a1.52,1.52,0,1,1,1.52-1.52A1.52,1.52,0,0,1,47.6,443.69Z"/>
          <path class="cls-4" d="M88.81,447.79,36.37,463.31l2.46,7.7,50-14.14c0-3.53,0-6.77,0-9.08Z"/>
          <path class="cls-4" d="M39.37,459.88A21.47,21.47,0,0,1,41,426.33l-1.83-1.9a24.09,24.09,0,0,0-2.72,36.31Z"/>
          <path class="cls-4" d="M66.39,445a3.34,3.34,0,1,0-3.34-3.34A3.33,3.33,0,0,0,66.39,445Z"/>
          <path class="cls-4" d="M88.81,445.25v-1A30.56,30.56,0,0,0,39,420.65l-.05,0L58,440.5v13.86Zm-22.42-8.73a5.15,5.15,0,0,1,2.8.83l3.42-3.41,1.29,1.29-3.37,3.37a5.17,5.17,0,1,1-4.14-2.08Z"/>
          <path class="cls-4" d="M70.1,468.76c7.67,0,14.7,4.53,18.74,11.81h0s0-11.2,0-21.16L39.51,473.34c-1.7,2.59-3,5.19-4.6,7.23H51.36c4.11-7.39,11.11-11.81,18.74-11.81Z"/>
          <path class="cls-4" d="M70.1,471.27c-6.29,0-12.11,3.45-15.83,9.3H85.92C82.25,474.81,76.41,471.27,70.1,471.27Z"/>
        </g>
        <text class="cls-5" transform="translate(32.78 496.66)">A<tspan class="cls-3" x="7.31" y="0">polo 8</tspan></text>
        <g>
          <path d="M98.84,450.26c1,0-7-23-7-23l-5,6.79-2,9.21,1,9,5,7,9-3Z"/>
          <g>
            <path class="cls-6" d="M109.6,441.48l-8.78-9.11a10.94,10.94,0,0,0-2.8,5c-.25,1.08-.54,3.91-.54,3.91l-3.41,6.81a1.07,1.07,0,0,0-.08.41,1,1,0,0,0,1,1h2.45v3.62c0,2.75,1.09,4.14,2.69,4.73l9.42-2.79v-13.6Zm-8,2.21a1.52,1.52,0,1,1,1.52-1.52A1.52,1.52,0,0,1,101.6,443.69Z"/>
            <path class="cls-6" d="M142.81,447.79,90.37,463.31l2.46,7.7,50-14.14c0-3.53,0-6.77,0-9.08Z"/>
            <path class="cls-6" d="M93.37,459.88A21.47,21.47,0,0,1,95,426.33l-1.83-1.9a24.09,24.09,0,0,0-2.72,36.31Z"/>
            <path class="cls-6" d="M120.39,445a3.34,3.34,0,1,0-3.34-3.34A3.33,3.33,0,0,0,120.39,445Z"/>
            <path class="cls-6" d="M142.81,445.25v-1A30.56,30.56,0,0,0,93,420.65l0,0L112,440.5v13.86Zm-22.42-8.73a5.15,5.15,0,0,1,2.8.83l3.42-3.41,1.29,1.29-3.37,3.37a5.17,5.17,0,1,1-4.14-2.08Z"/>
            <path class="cls-6" d="M124.1,468.76c7.67,0,14.7,4.53,18.74,11.81h0s0-11.2,0-21.16L93.51,473.34c-1.7,2.59-3,5.19-4.6,7.23h16.45c4.11-7.39,11.11-11.81,18.74-11.81Z"/>
            <path class="cls-6" d="M124.1,471.27c-6.29,0-12.11,3.45-15.83,9.3h31.65C136.25,474.81,130.41,471.27,124.1,471.27Z"/>
          </g>
        </g>
        <g>
          <path d="M152.84,450.26c1,0-7-23-7-23l-5,6.79-2,9.21,1,9,5,7,9-3Z"/>
          <g>
            <path class="cls-4" d="M163.6,441.48l-8.78-9.11a10.94,10.94,0,0,0-2.8,5c-.25,1.08-.54,3.91-.54,3.91l-3.41,6.81a1.07,1.07,0,0,0-.08.41,1,1,0,0,0,1,1h2.45v3.62c0,2.75,1.09,4.14,2.69,4.73l9.42-2.79v-13.6Zm-8,2.21a1.52,1.52,0,1,1,1.52-1.52A1.52,1.52,0,0,1,155.6,443.69Z"/>
            <path class="cls-4" d="M196.81,447.79l-52.44,15.52,2.46,7.7,50-14.14c0-3.53,0-6.77,0-9.08Z"/>
            <path class="cls-4" d="M147.37,459.88A21.47,21.47,0,0,1,149,426.33l-1.83-1.9a24.09,24.09,0,0,0-2.72,36.31Z"/>
            <path class="cls-4" d="M174.39,445a3.34,3.34,0,1,0-3.34-3.34A3.33,3.33,0,0,0,174.39,445Z"/>
            <path class="cls-4" d="M196.81,445.25v-1A30.56,30.56,0,0,0,147,420.65l-.05,0L166,440.5v13.86Zm-22.42-8.73a5.15,5.15,0,0,1,2.8.83l3.42-3.41,1.29,1.29-3.37,3.37a5.17,5.17,0,1,1-4.14-2.08Z"/>
            <path class="cls-4" d="M178.1,468.76c7.67,0,14.7,4.53,18.74,11.81h0s0-11.2,0-21.16l-49.32,13.93c-1.7,2.59-3,5.19-4.6,7.23h16.45c4.11-7.39,11.11-11.81,18.74-11.81Z"/>
            <path class="cls-4" d="M178.1,471.27c-6.29,0-12.11,3.45-15.83,9.3h31.65C190.25,474.81,184.41,471.27,178.1,471.27Z"/>
          </g>
        </g>
      </g>
    </g>
    <g>
      <g>
        <g>
          <path class="cls-4" d="M55.6,578.48l-8.78-9.11a10.94,10.94,0,0,0-2.8,5c-.25,1.08-.54,3.91-.54,3.91l-3.41,6.81a1.07,1.07,0,0,0-.08.41,1,1,0,0,0,1,1h2.45v3.62c0,2.75,1.09,4.14,2.69,4.73l9.42-2.79v-13.6Zm-8,2.21a1.52,1.52,0,1,1,1.52-1.52A1.52,1.52,0,0,1,47.6,580.69Z"/>
          <path class="cls-4" d="M88.81,584.79,36.37,600.31l2.46,7.7,50-14.14c0-3.53,0-6.77,0-9.08Z"/>
          <path class="cls-4" d="M39.37,596.88A21.47,21.47,0,0,1,41,563.33l-1.83-1.9a24.09,24.09,0,0,0-2.72,36.31Z"/>
          <path class="cls-4" d="M66.39,582a3.34,3.34,0,1,0-3.34-3.34A3.33,3.33,0,0,0,66.39,582Z"/>
          <path class="cls-4" d="M88.81,582.25v-1A30.56,30.56,0,0,0,39,557.65l-.05,0L58,577.5v13.86Zm-22.42-8.73a5.15,5.15,0,0,1,2.8.83l3.42-3.41,1.29,1.29-3.37,3.37a5.17,5.17,0,1,1-4.14-2.08Z"/>
          <path class="cls-4" d="M70.1,605.76c7.67,0,14.7,4.53,18.74,11.81h0s0-11.2,0-21.16L39.51,610.34c-1.7,2.59-3,5.19-4.6,7.23H51.36c4.11-7.39,11.11-11.81,18.74-11.81Z"/>
          <path class="cls-4" d="M70.1,608.27c-6.29,0-12.11,3.45-15.83,9.3H85.92C82.25,611.81,76.41,608.27,70.1,608.27Z"/>
        </g>
        <text class="cls-5" transform="translate(33.78 633.66)">A<tspan class="cls-3" x="7.31" y="0">polo 10</tspan></text>
        <g>
          <path d="M98.84,586.26c1,0-7-23-7-23l-5,6.79-2,9.21,1,9,5,7,9-3Z"/>
          <g>
            <path class="cls-6" d="M109.6,578.48l-8.78-9.11a10.94,10.94,0,0,0-2.8,5c-.25,1.08-.54,3.91-.54,3.91l-3.41,6.81a1.07,1.07,0,0,0-.08.41,1,1,0,0,0,1,1h2.45v3.62c0,2.75,1.09,4.14,2.69,4.73l9.42-2.79v-13.6Zm-8,2.21a1.52,1.52,0,1,1,1.52-1.52A1.52,1.52,0,0,1,101.6,580.69Z"/>
            <path class="cls-6" d="M142.81,584.79,90.37,600.31l2.46,7.7,50-14.14c0-3.53,0-6.77,0-9.08Z"/>
            <path class="cls-6" d="M93.37,596.88A21.47,21.47,0,0,1,95,563.33l-1.83-1.9a24.09,24.09,0,0,0-2.72,36.31Z"/>
            <path class="cls-6" d="M120.39,582a3.34,3.34,0,1,0-3.34-3.34A3.33,3.33,0,0,0,120.39,582Z"/>
            <path class="cls-6" d="M142.81,582.25v-1A30.56,30.56,0,0,0,93,557.65l0,0L112,577.5v13.86Zm-22.42-8.73a5.15,5.15,0,0,1,2.8.83l3.42-3.41,1.29,1.29-3.37,3.37a5.17,5.17,0,1,1-4.14-2.08Z"/>
            <path class="cls-6" d="M124.1,605.76c7.67,0,14.7,4.53,18.74,11.81h0s0-11.2,0-21.16L93.51,610.34c-1.7,2.59-3,5.19-4.6,7.23h16.45c4.11-7.39,11.11-11.81,18.74-11.81Z"/>
            <path class="cls-6" d="M124.1,608.27c-6.29,0-12.11,3.45-15.83,9.3h31.65C136.25,611.81,130.41,608.27,124.1,608.27Z"/>
          </g>
        </g>
        <g>
          <path d="M152.84,586.26c1,0-7-23-7-23l-5,6.79-2,9.21,1,9,5,7,9-3Z"/>
          <g>
            <path class="cls-6" d="M163.6,578.48l-8.78-9.11a10.94,10.94,0,0,0-2.8,5c-.25,1.08-.54,3.91-.54,3.91l-3.41,6.81a1.07,1.07,0,0,0-.08.41,1,1,0,0,0,1,1h2.45v3.62c0,2.75,1.09,4.14,2.69,4.73l9.42-2.79v-13.6Zm-8,2.21a1.52,1.52,0,1,1,1.52-1.52A1.52,1.52,0,0,1,155.6,580.69Z"/>
            <path class="cls-6" d="M196.81,584.79l-52.44,15.52,2.46,7.7,50-14.14c0-3.53,0-6.77,0-9.08Z"/>
            <path class="cls-6" d="M147.37,596.88A21.47,21.47,0,0,1,149,563.33l-1.83-1.9a24.09,24.09,0,0,0-2.72,36.31Z"/>
            <path class="cls-6" d="M174.39,582a3.34,3.34,0,1,0-3.34-3.34A3.33,3.33,0,0,0,174.39,582Z"/>
            <path class="cls-6" d="M196.81,582.25v-1A30.56,30.56,0,0,0,147,557.65l-.05,0L166,577.5v13.86Zm-22.42-8.73a5.15,5.15,0,0,1,2.8.83l3.42-3.41,1.29,1.29-3.37,3.37a5.17,5.17,0,1,1-4.14-2.08Z"/>
            <path class="cls-6" d="M178.1,605.76c7.67,0,14.7,4.53,18.74,11.81h0s0-11.2,0-21.16l-49.32,13.93c-1.7,2.59-3,5.19-4.6,7.23h16.45c4.11-7.39,11.11-11.81,18.74-11.81Z"/>
            <path class="cls-6" d="M178.1,608.27c-6.29,0-12.11,3.45-15.83,9.3h31.65C190.25,611.81,184.41,608.27,178.1,608.27Z"/>
          </g>
        </g>
      </g>
      <g>
        <g>
          <path class="cls-4" d="M264.44,578.48l-8.77-9.11a11.06,11.06,0,0,0-2.81,5c-.25,1.08-.53,3.91-.53,3.91l-3.41,6.81a.91.91,0,0,0-.08.41,1,1,0,0,0,1,1h2.45v3.62c0,2.75,1.09,4.14,2.69,4.73l9.42-2.79v-13.6Zm-8,2.21a1.52,1.52,0,1,1,1.52-1.52A1.53,1.53,0,0,1,256.45,580.69Z"/>
          <path class="cls-4" d="M297.66,584.79l-52.45,15.52,2.46,7.7,50-14.14c0-3.53,0-6.77,0-9.08Z"/>
          <path class="cls-4" d="M248.21,596.88a21.48,21.48,0,0,1,1.65-33.55l-1.83-1.9a24.09,24.09,0,0,0-2.72,36.31Z"/>
          <path class="cls-4" d="M275.24,582a3.34,3.34,0,1,0-3.34-3.34A3.34,3.34,0,0,0,275.24,582Z"/>
          <path class="cls-4" d="M297.66,582.25v-1a30.57,30.57,0,0,0-49.8-23.58l0,0,19.06,19.81v13.86Zm-22.42-8.73a5.17,5.17,0,0,1,2.8.83l3.41-3.41,1.3,1.29-3.38,3.37a5.11,5.11,0,0,1,1,3.09,5.17,5.17,0,1,1-5.17-5.17Z"/>
          <path class="cls-4" d="M278.94,605.76c7.68,0,14.71,4.53,18.74,11.81h0s0-11.2,0-21.16l-49.31,13.93c-1.71,2.59-3,5.19-4.6,7.23H260.2c4.11-7.39,11.11-11.81,18.74-11.81Z"/>
          <path class="cls-4" d="M278.94,608.27c-6.28,0-12.1,3.45-15.82,9.3h31.65C291.1,611.81,285.26,608.27,278.94,608.27Z"/>
        </g>
        <text class="cls-5" transform="translate(241.63 633.66)">A<tspan class="cls-3" x="7.31" y="0">polo 11</tspan></text>
        <g>
          <path d="M307.69,587.26c1,0-7-23-7-23l-5,6.79-2,9.21,1,9,5,7,9-3Z"/>
          <g>
            <path class="cls-4" d="M318.44,578.48l-8.77-9.11a11.06,11.06,0,0,0-2.81,5c-.25,1.08-.53,3.91-.53,3.91l-3.41,6.81a.91.91,0,0,0-.08.41,1,1,0,0,0,1,1h2.45v3.62c0,2.75,1.09,4.14,2.69,4.73l9.42-2.79v-13.6Zm-8,2.21a1.52,1.52,0,1,1,1.52-1.52A1.53,1.53,0,0,1,310.45,580.69Z"/>
            <path class="cls-4" d="M351.66,584.79l-52.45,15.52,2.46,7.7,50-14.14c0-3.53,0-6.77,0-9.08Z"/>
            <path class="cls-4" d="M302.21,596.88a21.48,21.48,0,0,1,1.65-33.55l-1.83-1.9a24.09,24.09,0,0,0-2.72,36.31Z"/>
            <path class="cls-4" d="M329.24,582a3.34,3.34,0,1,0-3.34-3.34A3.34,3.34,0,0,0,329.24,582Z"/>
            <path class="cls-4" d="M351.66,582.25v-1a30.57,30.57,0,0,0-49.8-23.58l0,0,19.06,19.81v13.86Zm-22.42-8.73a5.17,5.17,0,0,1,2.8.83l3.41-3.41,1.3,1.29-3.38,3.37a5.11,5.11,0,0,1,1,3.09,5.17,5.17,0,1,1-5.17-5.17Z"/>
            <path class="cls-4" d="M332.94,605.76c7.68,0,14.71,4.53,18.74,11.81h0s0-11.2,0-21.16l-49.31,13.93c-1.71,2.59-3,5.19-4.6,7.23H314.2c4.11-7.39,11.11-11.81,18.74-11.81Z"/>
            <path class="cls-4" d="M332.94,608.27c-6.28,0-12.1,3.45-15.82,9.3h31.65C345.1,611.81,339.26,608.27,332.94,608.27Z"/>
          </g>
        </g>
        <g>
          <path d="M361.69,587.26c1,0-7-23-7-23l-5,6.79-2,9.21,1,9,5,7,9-3Z"/>
          <g>
            <path class="cls-4" d="M372.44,578.48l-8.77-9.11a11.06,11.06,0,0,0-2.81,5c-.25,1.08-.53,3.91-.53,3.91l-3.41,6.81a.91.91,0,0,0-.08.41,1,1,0,0,0,1,1h2.45v3.62c0,2.75,1.09,4.14,2.69,4.73l9.42-2.79v-13.6Zm-8,2.21a1.52,1.52,0,1,1,1.52-1.52A1.53,1.53,0,0,1,364.45,580.69Z"/>
            <path class="cls-4" d="M405.66,584.79l-52.45,15.52,2.46,7.7,50-14.14c0-3.53,0-6.77,0-9.08Z"/>
            <path class="cls-4" d="M356.21,596.88a21.48,21.48,0,0,1,1.65-33.55l-1.83-1.9a24.09,24.09,0,0,0-2.72,36.31Z"/>
            <path class="cls-4" d="M383.24,582a3.34,3.34,0,1,0-3.34-3.34A3.34,3.34,0,0,0,383.24,582Z"/>
            <path class="cls-4" d="M405.66,582.25v-1a30.57,30.57,0,0,0-49.8-23.58l0,0,19.06,19.81v13.86Zm-22.42-8.73a5.17,5.17,0,0,1,2.8.83l3.41-3.41,1.3,1.29-3.38,3.37a5.11,5.11,0,0,1,1,3.09,5.17,5.17,0,1,1-5.17-5.17Z"/>
            <path class="cls-4" d="M386.94,605.76c7.68,0,14.71,4.53,18.74,11.81h0s0-11.2,0-21.16l-49.31,13.93c-1.71,2.59-3,5.19-4.6,7.23H368.2c4.11-7.39,11.11-11.81,18.74-11.81Z"/>
            <path class="cls-4" d="M386.94,608.27c-6.28,0-12.1,3.45-15.82,9.3h31.65C399.1,611.81,393.26,608.27,386.94,608.27Z"/>
          </g>
        </g>
      </g>
    </g>
    <g>
      <g>
        <g>
          <path class="cls-4" d="M55.6,715.48l-8.78-9.11a10.94,10.94,0,0,0-2.8,5c-.25,1.08-.54,3.91-.54,3.91l-3.41,6.81a1.07,1.07,0,0,0-.08.41,1,1,0,0,0,1,1h2.45v3.62c0,2.75,1.09,4.14,2.69,4.73l9.42-2.79v-13.6Zm-8,2.21a1.52,1.52,0,1,1,1.52-1.52A1.52,1.52,0,0,1,47.6,717.69Z"/>
          <path class="cls-4" d="M88.81,721.79,36.37,737.31l2.46,7.7,50-14.14c0-3.53,0-6.77,0-9.08Z"/>
          <path class="cls-4" d="M39.37,733.88A21.47,21.47,0,0,1,41,700.33l-1.83-1.9a24.09,24.09,0,0,0-2.72,36.31Z"/>
          <path class="cls-4" d="M66.39,719a3.34,3.34,0,1,0-3.34-3.34A3.33,3.33,0,0,0,66.39,719Z"/>
          <path class="cls-4" d="M88.81,719.25v-1A30.56,30.56,0,0,0,39,694.65l-.05,0L58,714.5v13.86Zm-22.42-8.73a5.15,5.15,0,0,1,2.8.83l3.42-3.41,1.29,1.29-3.37,3.37a5.17,5.17,0,1,1-4.14-2.08Z"/>
          <path class="cls-4" d="M70.1,742.76c7.67,0,14.7,4.53,18.74,11.81h0s0-11.2,0-21.16L39.51,747.34c-1.7,2.59-3,5.19-4.6,7.23H51.36c4.11-7.39,11.11-11.81,18.74-11.81Z"/>
          <path class="cls-4" d="M70.1,745.27c-6.29,0-12.11,3.45-15.83,9.3H85.92C82.25,748.81,76.41,745.27,70.1,745.27Z"/>
        </g>
        <text class="cls-5" transform="translate(32.78 770.66)">A<tspan class="cls-3" x="7.31" y="0">polo 12</tspan></text>
        <g>
          <path d="M98.84,724.26c1,0-7-23-7-23l-5,6.79-2,9.21,1,9,5,7,9-3Z"/>
          <g>
            <path class="cls-4" d="M109.6,715.48l-8.78-9.11a10.94,10.94,0,0,0-2.8,5c-.25,1.08-.54,3.91-.54,3.91l-3.41,6.81a1.07,1.07,0,0,0-.08.41,1,1,0,0,0,1,1h2.45v3.62c0,2.75,1.09,4.14,2.69,4.73l9.42-2.79v-13.6Zm-8,2.21a1.52,1.52,0,1,1,1.52-1.52A1.52,1.52,0,0,1,101.6,717.69Z"/>
            <path class="cls-4" d="M142.81,721.79,90.37,737.31l2.46,7.7,50-14.14c0-3.53,0-6.77,0-9.08Z"/>
            <path class="cls-4" d="M93.37,733.88A21.47,21.47,0,0,1,95,700.33l-1.83-1.9a24.09,24.09,0,0,0-2.72,36.31Z"/>
            <path class="cls-4" d="M120.39,719a3.34,3.34,0,1,0-3.34-3.34A3.33,3.33,0,0,0,120.39,719Z"/>
            <path class="cls-4" d="M142.81,719.25v-1A30.56,30.56,0,0,0,93,694.65l0,0L112,714.5v13.86Zm-22.42-8.73a5.15,5.15,0,0,1,2.8.83l3.42-3.41,1.29,1.29-3.37,3.37a5.17,5.17,0,1,1-4.14-2.08Z"/>
            <path class="cls-4" d="M124.1,742.76c7.67,0,14.7,4.53,18.74,11.81h0s0-11.2,0-21.16L93.51,747.34c-1.7,2.59-3,5.19-4.6,7.23h16.45c4.11-7.39,11.11-11.81,18.74-11.81Z"/>
            <path class="cls-4" d="M124.1,745.27c-6.29,0-12.11,3.45-15.83,9.3h31.65C136.25,748.81,130.41,745.27,124.1,745.27Z"/>
          </g>
        </g>
        <g>
          <path d="M152.84,724.26c1,0-7-23-7-23l-5,6.79-2,9.21,1,9,5,7,9-3Z"/>
          <g>
            <path class="cls-4" d="M163.6,715.48l-8.78-9.11a10.94,10.94,0,0,0-2.8,5c-.25,1.08-.54,3.91-.54,3.91l-3.41,6.81a1.07,1.07,0,0,0-.08.41,1,1,0,0,0,1,1h2.45v3.62c0,2.75,1.09,4.14,2.69,4.73l9.42-2.79v-13.6Zm-8,2.21a1.52,1.52,0,1,1,1.52-1.52A1.52,1.52,0,0,1,155.6,717.69Z"/>
            <path class="cls-4" d="M196.81,721.79l-52.44,15.52,2.46,7.7,50-14.14c0-3.53,0-6.77,0-9.08Z"/>
            <path class="cls-4" d="M147.37,733.88A21.47,21.47,0,0,1,149,700.33l-1.83-1.9a24.09,24.09,0,0,0-2.72,36.31Z"/>
            <path class="cls-4" d="M174.39,719a3.34,3.34,0,1,0-3.34-3.34A3.33,3.33,0,0,0,174.39,719Z"/>
            <path class="cls-4" d="M196.81,719.25v-1A30.56,30.56,0,0,0,147,694.65l-.05,0L166,714.5v13.86Zm-22.42-8.73a5.15,5.15,0,0,1,2.8.83l3.42-3.41,1.29,1.29-3.37,3.37a5.17,5.17,0,1,1-4.14-2.08Z"/>
            <path class="cls-4" d="M178.1,742.76c7.67,0,14.7,4.53,18.74,11.81h0s0-11.2,0-21.16l-49.32,13.93c-1.7,2.59-3,5.19-4.6,7.23h16.45c4.11-7.39,11.11-11.81,18.74-11.81Z"/>
            <path class="cls-4" d="M178.1,745.27c-6.29,0-12.11,3.45-15.83,9.3h31.65C190.25,748.81,184.41,745.27,178.1,745.27Z"/>
          </g>
        </g>
      </g>
      <g>
        <g>
          <path class="cls-7" d="M264.44,715.48l-8.77-9.11a11.06,11.06,0,0,0-2.81,5c-.25,1.08-.53,3.91-.53,3.91l-3.41,6.81a.91.91,0,0,0-.08.41,1,1,0,0,0,1,1h2.45v3.62c0,2.75,1.09,4.14,2.69,4.73l9.42-2.79v-13.6Zm-8,2.21a1.52,1.52,0,1,1,1.52-1.52A1.53,1.53,0,0,1,256.45,717.69Z"/>
          <path class="cls-7" d="M297.66,721.79l-52.45,15.52,2.46,7.7,50-14.14c0-3.53,0-6.77,0-9.08Z"/>
          <path class="cls-7" d="M248.21,733.88a21.48,21.48,0,0,1,1.65-33.55l-1.83-1.9a24.09,24.09,0,0,0-2.72,36.31Z"/>
          <path class="cls-7" d="M275.24,719a3.34,3.34,0,1,0-3.34-3.34A3.34,3.34,0,0,0,275.24,719Z"/>
          <path class="cls-7" d="M297.66,719.25v-1a30.57,30.57,0,0,0-49.8-23.58l0,0,19.06,19.81v13.86Zm-22.42-8.73a5.17,5.17,0,0,1,2.8.83l3.41-3.41,1.3,1.29-3.38,3.37a5.11,5.11,0,0,1,1,3.09,5.17,5.17,0,1,1-5.17-5.17Z"/>
          <path class="cls-7" d="M278.94,742.76c7.68,0,14.71,4.53,18.74,11.81h0s0-11.2,0-21.16l-49.31,13.93c-1.71,2.59-3,5.19-4.6,7.23H260.2c4.11-7.39,11.11-11.81,18.74-11.81Z"/>
          <path class="cls-7" d="M278.94,745.27c-6.28,0-12.1,3.45-15.82,9.3h31.65C291.1,748.81,285.26,745.27,278.94,745.27Z"/>
        </g>
        <text class="cls-5" transform="translate(242.63 770.66)">A<tspan class="cls-3" x="7.31" y="0">polo 13</tspan></text>
        <g>
          <path d="M307.69,724.26c1,0-7-23-7-23l-5,6.79-2,9.21,1,9,5,7,9-3Z"/>
          <g>
            <path class="cls-4" d="M318.44,715.48l-8.77-9.11a11.06,11.06,0,0,0-2.81,5c-.25,1.08-.53,3.91-.53,3.91l-3.41,6.81a.91.91,0,0,0-.08.41,1,1,0,0,0,1,1h2.45v3.62c0,2.75,1.09,4.14,2.69,4.73l9.42-2.79v-13.6Zm-8,2.21a1.52,1.52,0,1,1,1.52-1.52A1.53,1.53,0,0,1,310.45,717.69Z"/>
            <path class="cls-4" d="M351.66,721.79l-52.45,15.52,2.46,7.7,50-14.14c0-3.53,0-6.77,0-9.08Z"/>
            <path class="cls-4" d="M302.21,733.88a21.48,21.48,0,0,1,1.65-33.55l-1.83-1.9a24.09,24.09,0,0,0-2.72,36.31Z"/>
            <path class="cls-4" d="M329.24,719a3.34,3.34,0,1,0-3.34-3.34A3.34,3.34,0,0,0,329.24,719Z"/>
            <path class="cls-4" d="M351.66,719.25v-1a30.57,30.57,0,0,0-49.8-23.58l0,0,19.06,19.81v13.86Zm-22.42-8.73a5.17,5.17,0,0,1,2.8.83l3.41-3.41,1.3,1.29-3.38,3.37a5.11,5.11,0,0,1,1,3.09,5.17,5.17,0,1,1-5.17-5.17Z"/>
            <path class="cls-4" d="M332.94,742.76c7.68,0,14.71,4.53,18.74,11.81h0s0-11.2,0-21.16l-49.31,13.93c-1.71,2.59-3,5.19-4.6,7.23H314.2c4.11-7.39,11.11-11.81,18.74-11.81Z"/>
            <path class="cls-4" d="M332.94,745.27c-6.28,0-12.1,3.45-15.82,9.3h31.65C345.1,748.81,339.26,745.27,332.94,745.27Z"/>
          </g>
        </g>
        <g>
          <path d="M361.69,724.26c1,0-7-23-7-23l-5,6.79-2,9.21,1,9,5,7,9-3Z"/>
          <g>
            <path class="cls-4" d="M372.44,715.48l-8.77-9.11a11.06,11.06,0,0,0-2.81,5c-.25,1.08-.53,3.91-.53,3.91l-3.41,6.81a.91.91,0,0,0-.08.41,1,1,0,0,0,1,1h2.45v3.62c0,2.75,1.09,4.14,2.69,4.73l9.42-2.79v-13.6Zm-8,2.21a1.52,1.52,0,1,1,1.52-1.52A1.53,1.53,0,0,1,364.45,717.69Z"/>
            <path class="cls-4" d="M405.66,721.79l-52.45,15.52,2.46,7.7,50-14.14c0-3.53,0-6.77,0-9.08Z"/>
            <path class="cls-4" d="M356.21,733.88a21.48,21.48,0,0,1,1.65-33.55l-1.83-1.9a24.09,24.09,0,0,0-2.72,36.31Z"/>
            <path class="cls-4" d="M383.24,719a3.34,3.34,0,1,0-3.34-3.34A3.34,3.34,0,0,0,383.24,719Z"/>
            <path class="cls-4" d="M405.66,719.25v-1a30.57,30.57,0,0,0-49.8-23.58l0,0,19.06,19.81v13.86Zm-22.42-8.73a5.17,5.17,0,0,1,2.8.83l3.41-3.41,1.3,1.29-3.38,3.37a5.11,5.11,0,0,1,1,3.09,5.17,5.17,0,1,1-5.17-5.17Z"/>
            <path class="cls-4" d="M386.94,742.76c7.68,0,14.71,4.53,18.74,11.81h0s0-11.2,0-21.16l-49.31,13.93c-1.71,2.59-3,5.19-4.6,7.23H368.2c4.11-7.39,11.11-11.81,18.74-11.81Z"/>
            <path class="cls-4" d="M386.94,745.27c-6.28,0-12.1,3.45-15.82,9.3h31.65C399.1,748.81,393.26,745.27,386.94,745.27Z"/>
          </g>
        </g>
      </g>
    </g>
    <g>
      <g>
        <g>
          <path class="cls-7" d="M264.44,852.48l-8.77-9.11a11.06,11.06,0,0,0-2.81,5c-.25,1.08-.53,3.91-.53,3.91l-3.41,6.81a.91.91,0,0,0-.08.41,1,1,0,0,0,1,1h2.45v3.62c0,2.75,1.09,4.14,2.69,4.73l9.42-2.79v-13.6Zm-8,2.21a1.52,1.52,0,1,1,1.52-1.52A1.53,1.53,0,0,1,256.45,854.69Z"/>
          <path class="cls-7" d="M297.66,858.79l-52.45,15.52,2.46,7.7,50-14.14c0-3.53,0-6.77,0-9.08Z"/>
          <path class="cls-7" d="M248.21,870.88a21.48,21.48,0,0,1,1.65-33.55l-1.83-1.9a24.09,24.09,0,0,0-2.72,36.31Z"/>
          <path class="cls-7" d="M275.24,856a3.34,3.34,0,1,0-3.34-3.34A3.34,3.34,0,0,0,275.24,856Z"/>
          <path class="cls-7" d="M297.66,856.25v-1a30.57,30.57,0,0,0-49.8-23.58l0,0,19.06,19.81v13.86Zm-22.42-8.73a5.17,5.17,0,0,1,2.8.83l3.41-3.41,1.3,1.29-3.38,3.37a5.11,5.11,0,0,1,1,3.09,5.17,5.17,0,1,1-5.17-5.17Z"/>
          <path class="cls-7" d="M278.94,879.76c7.68,0,14.71,4.53,18.74,11.81h0s0-11.2,0-21.16l-49.31,13.93c-1.71,2.59-3,5.19-4.6,7.23H260.2c4.11-7.39,11.11-11.81,18.74-11.81Z"/>
          <path class="cls-7" d="M278.94,882.27c-6.28,0-12.1,3.45-15.82,9.3h31.65C291.1,885.81,285.26,882.27,278.94,882.27Z"/>
        </g>
        <text class="cls-5" transform="translate(241.63 907.66)">A<tspan class="cls-3" x="7.31" y="0">polo 15</tspan></text>
        <g>
          <path d="M307.69,860.26c1,0-7-23-7-23l-5,6.79-2,9.21,1,9,5,7,9-3Z"/>
          <g>
            <path class="cls-4" d="M318.44,852.48l-8.77-9.11a11.06,11.06,0,0,0-2.81,5c-.25,1.08-.53,3.91-.53,3.91l-3.41,6.81a.91.91,0,0,0-.08.41,1,1,0,0,0,1,1h2.45v3.62c0,2.75,1.09,4.14,2.69,4.73l9.42-2.79v-13.6Zm-8,2.21a1.52,1.52,0,1,1,1.52-1.52A1.53,1.53,0,0,1,310.45,854.69Z"/>
            <path class="cls-4" d="M351.66,858.79l-52.45,15.52,2.46,7.7,50-14.14c0-3.53,0-6.77,0-9.08Z"/>
            <path class="cls-4" d="M302.21,870.88a21.48,21.48,0,0,1,1.65-33.55l-1.83-1.9a24.09,24.09,0,0,0-2.72,36.31Z"/>
            <path class="cls-4" d="M329.24,856a3.34,3.34,0,1,0-3.34-3.34A3.34,3.34,0,0,0,329.24,856Z"/>
            <path class="cls-4" d="M351.66,856.25v-1a30.57,30.57,0,0,0-49.8-23.58l0,0,19.06,19.81v13.86Zm-22.42-8.73a5.17,5.17,0,0,1,2.8.83l3.41-3.41,1.3,1.29-3.38,3.37a5.11,5.11,0,0,1,1,3.09,5.17,5.17,0,1,1-5.17-5.17Z"/>
            <path class="cls-4" d="M332.94,879.76c7.68,0,14.71,4.53,18.74,11.81h0s0-11.2,0-21.16l-49.31,13.93c-1.71,2.59-3,5.19-4.6,7.23H314.2c4.11-7.39,11.11-11.81,18.74-11.81Z"/>
            <path class="cls-4" d="M332.94,882.27c-6.28,0-12.1,3.45-15.82,9.3h31.65C345.1,885.81,339.26,882.27,332.94,882.27Z"/>
          </g>
        </g>
        <g>
          <path d="M361.69,860.26c1,0-7-23-7-23l-5,6.79-2,9.21,1,9,5,7,9-3Z"/>
          <g>
            <path class="cls-4" d="M372.44,852.48l-8.77-9.11a11.06,11.06,0,0,0-2.81,5c-.25,1.08-.53,3.91-.53,3.91l-3.41,6.81a.91.91,0,0,0-.08.41,1,1,0,0,0,1,1h2.45v3.62c0,2.75,1.09,4.14,2.69,4.73l9.42-2.79v-13.6Zm-8,2.21a1.52,1.52,0,1,1,1.52-1.52A1.53,1.53,0,0,1,364.45,854.69Z"/>
            <path class="cls-4" d="M405.66,858.79l-52.45,15.52,2.46,7.7,50-14.14c0-3.53,0-6.77,0-9.08Z"/>
            <path class="cls-4" d="M356.21,870.88a21.48,21.48,0,0,1,1.65-33.55l-1.83-1.9a24.09,24.09,0,0,0-2.72,36.31Z"/>
            <path class="cls-4" d="M383.24,856a3.34,3.34,0,1,0-3.34-3.34A3.34,3.34,0,0,0,383.24,856Z"/>
            <path class="cls-4" d="M405.66,856.25v-1a30.57,30.57,0,0,0-49.8-23.58l0,0,19.06,19.81v13.86Zm-22.42-8.73a5.17,5.17,0,0,1,2.8.83l3.41-3.41,1.3,1.29-3.38,3.37a5.11,5.11,0,0,1,1,3.09,5.17,5.17,0,1,1-5.17-5.17Z"/>
            <path class="cls-4" d="M386.94,879.76c7.68,0,14.71,4.53,18.74,11.81h0s0-11.2,0-21.16l-49.31,13.93c-1.71,2.59-3,5.19-4.6,7.23H368.2c4.11-7.39,11.11-11.81,18.74-11.81Z"/>
            <path class="cls-4" d="M386.94,882.27c-6.28,0-12.1,3.45-15.82,9.3h31.65C399.1,885.81,393.26,882.27,386.94,882.27Z"/>
          </g>
        </g>
      </g>
      <g>
        <g>
          <path class="cls-4" d="M55.6,852.48l-8.78-9.11a10.94,10.94,0,0,0-2.8,5c-.25,1.08-.54,3.91-.54,3.91l-3.41,6.81a1.07,1.07,0,0,0-.08.41,1,1,0,0,0,1,1h2.45v3.62c0,2.75,1.09,4.14,2.69,4.73l9.42-2.79v-13.6Zm-8,2.21a1.52,1.52,0,1,1,1.52-1.52A1.52,1.52,0,0,1,47.6,854.69Z"/>
          <path class="cls-4" d="M88.81,858.79,36.37,874.31l2.46,7.7,50-14.14c0-3.53,0-6.77,0-9.08Z"/>
          <path class="cls-4" d="M39.37,870.88A21.47,21.47,0,0,1,41,837.33l-1.83-1.9a24.09,24.09,0,0,0-2.72,36.31Z"/>
          <path class="cls-4" d="M66.39,856a3.34,3.34,0,1,0-3.34-3.34A3.33,3.33,0,0,0,66.39,856Z"/>
          <path class="cls-4" d="M88.81,856.25v-1A30.56,30.56,0,0,0,39,831.65l-.05,0L58,851.5v13.86Zm-22.42-8.73a5.15,5.15,0,0,1,2.8.83l3.42-3.41,1.29,1.29-3.37,3.37a5.17,5.17,0,1,1-4.14-2.08Z"/>
          <path class="cls-4" d="M70.1,879.76c7.67,0,14.7,4.53,18.74,11.81h0s0-11.2,0-21.16L39.51,884.34c-1.7,2.59-3,5.19-4.6,7.23H51.36c4.11-7.39,11.11-11.81,18.74-11.81Z"/>
          <path class="cls-4" d="M70.1,882.27c-6.29,0-12.11,3.45-15.83,9.3H85.92C82.25,885.81,76.41,882.27,70.1,882.27Z"/>
        </g>
        <text class="cls-5" transform="translate(32.78 907.66)">A<tspan class="cls-3" x="7.31" y="0">polo 14</tspan></text>
        <g>
          <path d="M98.84,861.26c1,0-7-23-7-23l-5,6.79-2,9.21,1,9,5,7,9-3Z"/>
          <g>
            <path class="cls-4" d="M109.6,852.48l-8.78-9.11a10.94,10.94,0,0,0-2.8,5c-.25,1.08-.54,3.91-.54,3.91l-3.41,6.81a1.07,1.07,0,0,0-.08.41,1,1,0,0,0,1,1h2.45v3.62c0,2.75,1.09,4.14,2.69,4.73l9.42-2.79v-13.6Zm-8,2.21a1.52,1.52,0,1,1,1.52-1.52A1.52,1.52,0,0,1,101.6,854.69Z"/>
            <path class="cls-4" d="M142.81,858.79,90.37,874.31l2.46,7.7,50-14.14c0-3.53,0-6.77,0-9.08Z"/>
            <path class="cls-4" d="M93.37,870.88A21.47,21.47,0,0,1,95,837.33l-1.83-1.9a24.09,24.09,0,0,0-2.72,36.31Z"/>
            <path class="cls-4" d="M120.39,856a3.34,3.34,0,1,0-3.34-3.34A3.33,3.33,0,0,0,120.39,856Z"/>
            <path class="cls-4" d="M142.81,856.25v-1A30.56,30.56,0,0,0,93,831.65l0,0L112,851.5v13.86Zm-22.42-8.73a5.15,5.15,0,0,1,2.8.83l3.42-3.41,1.29,1.29-3.37,3.37a5.17,5.17,0,1,1-4.14-2.08Z"/>
            <path class="cls-4" d="M124.1,879.76c7.67,0,14.7,4.53,18.74,11.81h0s0-11.2,0-21.16L93.51,884.34c-1.7,2.59-3,5.19-4.6,7.23h16.45c4.11-7.39,11.11-11.81,18.74-11.81Z"/>
            <path class="cls-4" d="M124.1,882.27c-6.29,0-12.11,3.45-15.83,9.3h31.65C136.25,885.81,130.41,882.27,124.1,882.27Z"/>
          </g>
        </g>
        <g>
          <path d="M152.84,861.26c1,0-7-23-7-23l-5,6.79-2,9.21,1,9,5,7,9-3Z"/>
          <g>
            <path class="cls-4" d="M163.6,852.48l-8.78-9.11a10.94,10.94,0,0,0-2.8,5c-.25,1.08-.54,3.91-.54,3.91l-3.41,6.81a1.07,1.07,0,0,0-.08.41,1,1,0,0,0,1,1h2.45v3.62c0,2.75,1.09,4.14,2.69,4.73l9.42-2.79v-13.6Zm-8,2.21a1.52,1.52,0,1,1,1.52-1.52A1.52,1.52,0,0,1,155.6,854.69Z"/>
            <path class="cls-4" d="M196.81,858.79l-52.44,15.52,2.46,7.7,50-14.14c0-3.53,0-6.77,0-9.08Z"/>
            <path class="cls-4" d="M147.37,870.88A21.47,21.47,0,0,1,149,837.33l-1.83-1.9a24.09,24.09,0,0,0-2.72,36.31Z"/>
            <path class="cls-4" d="M174.39,856a3.34,3.34,0,1,0-3.34-3.34A3.33,3.33,0,0,0,174.39,856Z"/>
            <path class="cls-4" d="M196.81,856.25v-1A30.56,30.56,0,0,0,147,831.65l-.05,0L166,851.5v13.86Zm-22.42-8.73a5.15,5.15,0,0,1,2.8.83l3.42-3.41,1.29,1.29-3.37,3.37a5.17,5.17,0,1,1-4.14-2.08Z"/>
            <path class="cls-4" d="M178.1,879.76c7.67,0,14.7,4.53,18.74,11.81h0s0-11.2,0-21.16l-49.32,13.93c-1.7,2.59-3,5.19-4.6,7.23h16.45c4.11-7.39,11.11-11.81,18.74-11.81Z"/>
            <path class="cls-4" d="M178.1,882.27c-6.29,0-12.11,3.45-15.83,9.3h31.65C190.25,885.81,184.41,882.27,178.1,882.27Z"/>
          </g>
        </g>
      </g>
    </g>
    <g>
      <g>
        <g>
          <path class="cls-7" d="M55.6,989.48l-8.78-9.11a10.94,10.94,0,0,0-2.8,5c-.25,1.08-.54,3.91-.54,3.91l-3.41,6.81a1.07,1.07,0,0,0-.08.41,1,1,0,0,0,1,1h2.45v3.62c0,2.75,1.09,4.14,2.69,4.73l9.42-2.79v-13.6Zm-8,2.21a1.52,1.52,0,1,1,1.52-1.52A1.52,1.52,0,0,1,47.6,991.69Z"/>
          <path class="cls-7" d="M88.81,995.79l-52.44,15.52,2.46,7.7,50-14.14c0-3.53,0-6.77,0-9.08Z"/>
          <path class="cls-7" d="M39.37,1007.88A21.47,21.47,0,0,1,41,974.33l-1.83-1.9a24.09,24.09,0,0,0-2.72,36.31Z"/>
          <path class="cls-7" d="M66.39,993a3.34,3.34,0,1,0-3.34-3.34A3.33,3.33,0,0,0,66.39,993Z"/>
          <path class="cls-7" d="M88.81,993.25v-1A30.56,30.56,0,0,0,39,968.65l-.05,0L58,988.5v13.86Zm-22.42-8.73a5.15,5.15,0,0,1,2.8.83l3.42-3.41,1.29,1.29-3.37,3.37a5.17,5.17,0,1,1-4.14-2.08Z"/>
          <path class="cls-7" d="M70.1,1016.76c7.67,0,14.7,4.53,18.74,11.81h0s0-11.2,0-21.16l-49.32,13.93c-1.7,2.59-3,5.19-4.6,7.23H51.36c4.11-7.39,11.11-11.81,18.74-11.81Z"/>
          <path class="cls-7" d="M70.1,1019.27c-6.29,0-12.11,3.45-15.83,9.3H85.92C82.25,1022.81,76.41,1019.27,70.1,1019.27Z"/>
        </g>
        <text class="cls-5" transform="translate(33.78 1044.66)">A<tspan class="cls-3" x="7.31" y="0">polo 16</tspan></text>
        <g>
          <path d="M98.84,998.26c1,0-7-23-7-23l-5,6.79-2,9.21,1,9,5,7,9-3Z"/>
          <g>
            <path class="cls-4" d="M109.6,989.48l-8.78-9.11a10.94,10.94,0,0,0-2.8,5c-.25,1.08-.54,3.91-.54,3.91l-3.41,6.81a1.07,1.07,0,0,0-.08.41,1,1,0,0,0,1,1h2.45v3.62c0,2.75,1.09,4.14,2.69,4.73l9.42-2.79v-13.6Zm-8,2.21a1.52,1.52,0,1,1,1.52-1.52A1.52,1.52,0,0,1,101.6,991.69Z"/>
            <path class="cls-4" d="M142.81,995.79l-52.44,15.52,2.46,7.7,50-14.14c0-3.53,0-6.77,0-9.08Z"/>
            <path class="cls-4" d="M93.37,1007.88A21.47,21.47,0,0,1,95,974.33l-1.83-1.9a24.09,24.09,0,0,0-2.72,36.31Z"/>
            <path class="cls-4" d="M120.39,993a3.34,3.34,0,1,0-3.34-3.34A3.33,3.33,0,0,0,120.39,993Z"/>
            <path class="cls-4" d="M142.81,993.25v-1A30.56,30.56,0,0,0,93,968.65l0,0L112,988.5v13.86Zm-22.42-8.73a5.15,5.15,0,0,1,2.8.83l3.42-3.41,1.29,1.29-3.37,3.37a5.17,5.17,0,1,1-4.14-2.08Z"/>
            <path class="cls-4" d="M124.1,1016.76c7.67,0,14.7,4.53,18.74,11.81h0s0-11.2,0-21.16l-49.32,13.93c-1.7,2.59-3,5.19-4.6,7.23h16.45c4.11-7.39,11.11-11.81,18.74-11.81Z"/>
            <path class="cls-4" d="M124.1,1019.27c-6.29,0-12.11,3.45-15.83,9.3h31.65C136.25,1022.81,130.41,1019.27,124.1,1019.27Z"/>
          </g>
        </g>
        <g>
          <path d="M152.84,998.26c1,0-7-23-7-23l-5,6.79-2,9.21,1,9,5,7,9-3Z"/>
          <g>
            <path class="cls-4" d="M163.6,989.48l-8.78-9.11a10.94,10.94,0,0,0-2.8,5c-.25,1.08-.54,3.91-.54,3.91l-3.41,6.81a1.07,1.07,0,0,0-.08.41,1,1,0,0,0,1,1h2.45v3.62c0,2.75,1.09,4.14,2.69,4.73l9.42-2.79v-13.6Zm-8,2.21a1.52,1.52,0,1,1,1.52-1.52A1.52,1.52,0,0,1,155.6,991.69Z"/>
            <path class="cls-4" d="M196.81,995.79l-52.44,15.52,2.46,7.7,50-14.14c0-3.53,0-6.77,0-9.08Z"/>
            <path class="cls-4" d="M147.37,1007.88A21.47,21.47,0,0,1,149,974.33l-1.83-1.9a24.09,24.09,0,0,0-2.72,36.31Z"/>
            <path class="cls-4" d="M174.39,993a3.34,3.34,0,1,0-3.34-3.34A3.33,3.33,0,0,0,174.39,993Z"/>
            <path class="cls-4" d="M196.81,993.25v-1A30.56,30.56,0,0,0,147,968.65l-.05,0L166,988.5v13.86Zm-22.42-8.73a5.15,5.15,0,0,1,2.8.83l3.42-3.41,1.29,1.29-3.37,3.37a5.17,5.17,0,1,1-4.14-2.08Z"/>
            <path class="cls-4" d="M178.1,1016.76c7.67,0,14.7,4.53,18.74,11.81h0s0-11.2,0-21.16l-49.32,13.93c-1.7,2.59-3,5.19-4.6,7.23h16.45c4.11-7.39,11.11-11.81,18.74-11.81Z"/>
            <path class="cls-4" d="M178.1,1019.27c-6.29,0-12.11,3.45-15.83,9.3h31.65C190.25,1022.81,184.41,1019.27,178.1,1019.27Z"/>
          </g>
        </g>
      </g>
      <g>
        <g>
          <path class="cls-7" d="M264.44,989.48l-8.77-9.11a11.06,11.06,0,0,0-2.81,5c-.25,1.08-.53,3.91-.53,3.91l-3.41,6.81a.91.91,0,0,0-.08.41,1,1,0,0,0,1,1h2.45v3.62c0,2.75,1.09,4.14,2.69,4.73l9.42-2.79v-13.6Zm-8,2.21a1.52,1.52,0,1,1,1.52-1.52A1.53,1.53,0,0,1,256.45,991.69Z"/>
          <path class="cls-7" d="M297.66,995.79l-52.45,15.52,2.46,7.7,50-14.14c0-3.53,0-6.77,0-9.08Z"/>
          <path class="cls-7" d="M248.21,1007.88a21.48,21.48,0,0,1,1.65-33.55l-1.83-1.9a24.09,24.09,0,0,0-2.72,36.31Z"/>
          <path class="cls-7" d="M275.24,993a3.34,3.34,0,1,0-3.34-3.34A3.34,3.34,0,0,0,275.24,993Z"/>
          <path class="cls-7" d="M297.66,993.25v-1a30.57,30.57,0,0,0-49.8-23.58l0,0,19.06,19.81v13.86Zm-22.42-8.73a5.17,5.17,0,0,1,2.8.83l3.41-3.41,1.3,1.29-3.38,3.37a5.11,5.11,0,0,1,1,3.09,5.17,5.17,0,1,1-5.17-5.17Z"/>
          <path class="cls-7" d="M278.94,1016.76c7.68,0,14.71,4.53,18.74,11.81h0s0-11.2,0-21.16l-49.31,13.93c-1.71,2.59-3,5.19-4.6,7.23H260.2c4.11-7.39,11.11-11.81,18.74-11.81Z"/>
          <path class="cls-7" d="M278.94,1019.27c-6.28,0-12.1,3.45-15.82,9.3h31.65C291.1,1022.81,285.26,1019.27,278.94,1019.27Z"/>
        </g>
        <text class="cls-5" transform="translate(241.63 1044.66)">A<tspan class="cls-3" x="7.31" y="0">polo 17</tspan></text>
        <g>
          <path d="M307.69,998.26c1,0-7-23-7-23l-5,6.79-2,9.21,1,9,5,7,9-3Z"/>
          <g>
            <path class="cls-4" d="M318.44,989.48l-8.77-9.11a11.06,11.06,0,0,0-2.81,5c-.25,1.08-.53,3.91-.53,3.91l-3.41,6.81a.91.91,0,0,0-.08.41,1,1,0,0,0,1,1h2.45v3.62c0,2.75,1.09,4.14,2.69,4.73l9.42-2.79v-13.6Zm-8,2.21a1.52,1.52,0,1,1,1.52-1.52A1.53,1.53,0,0,1,310.45,991.69Z"/>
            <path class="cls-4" d="M351.66,995.79l-52.45,15.52,2.46,7.7,50-14.14c0-3.53,0-6.77,0-9.08Z"/>
            <path class="cls-4" d="M302.21,1007.88a21.48,21.48,0,0,1,1.65-33.55l-1.83-1.9a24.09,24.09,0,0,0-2.72,36.31Z"/>
            <path class="cls-4" d="M329.24,993a3.34,3.34,0,1,0-3.34-3.34A3.34,3.34,0,0,0,329.24,993Z"/>
            <path class="cls-4" d="M351.66,993.25v-1a30.57,30.57,0,0,0-49.8-23.58l0,0,19.06,19.81v13.86Zm-22.42-8.73a5.17,5.17,0,0,1,2.8.83l3.41-3.41,1.3,1.29-3.38,3.37a5.11,5.11,0,0,1,1,3.09,5.17,5.17,0,1,1-5.17-5.17Z"/>
            <path class="cls-4" d="M332.94,1016.76c7.68,0,14.71,4.53,18.74,11.81h0s0-11.2,0-21.16l-49.31,13.93c-1.71,2.59-3,5.19-4.6,7.23H314.2c4.11-7.39,11.11-11.81,18.74-11.81Z"/>
            <path class="cls-4" d="M332.94,1019.27c-6.28,0-12.1,3.45-15.82,9.3h31.65C345.1,1022.81,339.26,1019.27,332.94,1019.27Z"/>
          </g>
        </g>
        <g>
          <path d="M361.69,998.26c1,0-7-23-7-23l-5,6.79-2,9.21,1,9,5,7,9-3Z"/>
          <g>
            <path class="cls-4" d="M372.44,989.48l-8.77-9.11a11.06,11.06,0,0,0-2.81,5c-.25,1.08-.53,3.91-.53,3.91l-3.41,6.81a.91.91,0,0,0-.08.41,1,1,0,0,0,1,1h2.45v3.62c0,2.75,1.09,4.14,2.69,4.73l9.42-2.79v-13.6Zm-8,2.21a1.52,1.52,0,1,1,1.52-1.52A1.53,1.53,0,0,1,364.45,991.69Z"/>
            <path class="cls-4" d="M405.66,995.79l-52.45,15.52,2.46,7.7,50-14.14c0-3.53,0-6.77,0-9.08Z"/>
            <path class="cls-4" d="M356.21,1007.88a21.48,21.48,0,0,1,1.65-33.55l-1.83-1.9a24.09,24.09,0,0,0-2.72,36.31Z"/>
            <path class="cls-4" d="M383.24,993a3.34,3.34,0,1,0-3.34-3.34A3.34,3.34,0,0,0,383.24,993Z"/>
            <path class="cls-4" d="M405.66,993.25v-1a30.57,30.57,0,0,0-49.8-23.58l0,0,19.06,19.81v13.86Zm-22.42-8.73a5.17,5.17,0,0,1,2.8.83l3.41-3.41,1.3,1.29-3.38,3.37a5.11,5.11,0,0,1,1,3.09,5.17,5.17,0,1,1-5.17-5.17Z"/>
            <path class="cls-4" d="M386.94,1016.76c7.68,0,14.71,4.53,18.74,11.81h0s0-11.2,0-21.16l-49.31,13.93c-1.71,2.59-3,5.19-4.6,7.23H368.2c4.11-7.39,11.11-11.81,18.74-11.81Z"/>
            <path class="cls-4" d="M386.94,1019.27c-6.28,0-12.1,3.45-15.82,9.3h31.65C399.1,1022.81,393.26,1019.27,386.94,1019.27Z"/>
          </g>
        </g>
      </g>
    </g>
  </g>
  <g>
    <g>
      <g>
        <text class="cls-8" transform="translate(82.82 148.38)">No sob<tspan class="cls-9" x="44.49" y="0">r</tspan><tspan class="cls-10" x="49.1" y="0">e</tspan><tspan x="56.42" y="0">vivie</tspan><tspan class="cls-11" x="84.2" y="0">r</tspan><tspan x="88.8" y="0">on</tspan></text>
        <rect class="cls-1" x="47" y="132" width="23" height="23"/>
      </g>
      <g>
        <text class="cls-8" transform="translate(82.82 190.21)">Sob<tspan class="cls-9" x="24.14" y="0">r</tspan><tspan class="cls-10" x="28.75" y="0">e</tspan><tspan x="36.08" y="0">vivie</tspan><tspan class="cls-11" x="63.85" y="0">r</tspan><tspan x="68.46" y="0">on</tspan></text>
        <rect class="cls-4" x="47" y="173" width="23" height="23"/>
      </g>
    </g>
    <g>
      <g>
        <text class="cls-8" transform="translate(291.41 148.38)"><tspan class="cls-12">V</tspan><tspan x="8.59" y="0">olvie</tspan><tspan class="cls-11" x="37.57" y="0">r</tspan><tspan x="42.17" y="0">on a viajar</tspan></text>
        <rect class="cls-6" x="255.59" y="132" width="23" height="23"/>
      </g>
      <g>
        <text class="cls-8" transform="translate(290.85 181.88)">Dónde <tspan class="cls-13" x="43.67" y="0">v</tspan><tspan x="50.35" y="0">olvie</tspan><tspan class="cls-11" x="79.32" y="0">r</tspan><tspan x="83.92" y="0">on </tspan><tspan x="0" y="16.8">a viajar</tspan></text>
        <rect class="cls-7" x="255.53" y="173.5" width="23" height="23"/>
      </g>
    </g>
  </g>
</svg>
