<svg id="Capa_1" data-name="Capa 1" xmlns="http://www.w3.org/2000/svg" viewBox="0 0 640 829">
  <defs>
    <style>
      .cls-1, .cls-2, .cls-8 {
        fill: #6b6b6b;
      }

      .cls-2, .cls-5 {
        font-size: 12px;
        font-family: MyriadPro-Regular, Myriad Pro;
        letter-spacing: 0em;
      }

      .cls-3 {
        letter-spacing: 0em;
      }

      .cls-4, .cls-5 {
        fill: #fff;
      }

      .cls-6 {
        fill: #ff8327;
      }

      .cls-7 {
        fill: none;
        stroke: #ff8327;
        stroke-miterlimit: 10;
      }

      .cls-8 {
        font-size: 14px;
        font-family: Roboto-Regular, Roboto;
      }

      .cls-9 {
        letter-spacing: -0.01em;
      }

      .cls-10 {
        letter-spacing: -0.01em;
      }

      .cls-11 {
        letter-spacing: -0.01em;
      }

      .cls-12 {
        letter-spacing: -0.02em;
      }

      .cls-13 {
        letter-spacing: -0.01em;
      }
    </style>
  </defs>
  <title>tp_w</title>
  <g>
    <g>
      <path class="cls-1" d="M85.66,300.54,33.21,316.06l2.46,7.69,50-14.13c0-3.54,0-6.77,0-9.08Z"/>
      <path class="cls-1" d="M36.21,312.63a21.49,21.49,0,0,1,1.65-33.56L36,277.17a24.1,24.1,0,0,0-2.72,36.32Z"/>
      <path class="cls-1" d="M63.24,297.78a3.35,3.35,0,1,0-3.34-3.34A3.35,3.35,0,0,0,63.24,297.78Z"/>
      <path class="cls-1" d="M85.66,298v-1a30.56,30.56,0,0,0-49.8-23.58l0,0,19.06,19.8v13.87Zm-22.42-8.73a5.17,5.17,0,0,1,2.8.83l3.41-3.42,1.3,1.29-3.38,3.38a5.11,5.11,0,0,1,1,3.09,5.17,5.17,0,1,1-5.17-5.17Z"/>
      <path class="cls-1" d="M66.94,321.51c7.68,0,14.71,4.53,18.74,11.81h0s0-11.2,0-21.17L36.36,326.09c-1.71,2.58-3,5.19-4.6,7.23H48.2c4.11-7.4,11.11-11.81,18.74-11.81Z"/>
      <path class="cls-1" d="M66.94,324c-6.28,0-12.1,3.45-15.82,9.3H82.77C79.1,327.55,73.26,324,66.94,324Z"/>
    </g>
    <text class="cls-2" transform="translate(29.63 349.4)">A<tspan class="cls-3" x="7.31" y="0">polo 1</tspan></text>
    <g>
      <path d="M95.69,303c1,0-7-23-7-23l-5,6.79-2,9.21,1,9,5,7,9-3Z"/>
      <path class="cls-1" d="M139.66,300.54,87.21,316.06l2.46,7.69,50-14.13c0-3.54,0-6.77,0-9.08Z"/>
      <path class="cls-1" d="M90.21,312.63a21.49,21.49,0,0,1,1.65-33.56L90,277.17a24.1,24.1,0,0,0-2.72,36.32Z"/>
      <path class="cls-1" d="M117.24,297.78a3.35,3.35,0,1,0-3.34-3.34A3.35,3.35,0,0,0,117.24,297.78Z"/>
      <path class="cls-1" d="M139.66,298v-1a30.56,30.56,0,0,0-49.8-23.58l0,0,19.06,19.8v13.87Zm-22.42-8.73a5.17,5.17,0,0,1,2.8.83l3.41-3.42,1.3,1.29-3.38,3.38a5.11,5.11,0,0,1,1,3.09,5.17,5.17,0,1,1-5.17-5.17Z"/>
      <path class="cls-1" d="M120.94,321.51c7.68,0,14.71,4.53,18.74,11.81h0s0-11.2,0-21.17L90.36,326.09c-1.71,2.58-3,5.19-4.6,7.23H102.2c4.11-7.4,11.11-11.81,18.74-11.81Z"/>
      <path class="cls-1" d="M120.94,324c-6.28,0-12.1,3.45-15.82,9.3h31.65C133.1,327.55,127.26,324,120.94,324Z"/>
    </g>
    <g>
      <path d="M149.69,303c1,0-7-23-7-23l-5,6.79-2,9.21,1,9,5,7,9-3Z"/>
      <g>
        <path class="cls-1" d="M193.66,300.54l-52.45,15.52,2.46,7.69,50-14.13c0-3.54,0-6.77,0-9.08Z"/>
        <path class="cls-1" d="M144.21,312.63a21.49,21.49,0,0,1,1.65-33.56l-1.83-1.9a24.1,24.1,0,0,0-2.72,36.32Z"/>
        <path class="cls-1" d="M171.24,297.78a3.35,3.35,0,1,0-3.34-3.34A3.35,3.35,0,0,0,171.24,297.78Z"/>
        <path class="cls-1" d="M193.66,298v-1a30.56,30.56,0,0,0-49.8-23.58l0,0,19.06,19.8v13.87Zm-22.42-8.73a5.17,5.17,0,0,1,2.8.83l3.41-3.42,1.3,1.29-3.38,3.38a5.11,5.11,0,0,1,1,3.09,5.17,5.17,0,1,1-5.17-5.17Z"/>
        <path class="cls-1" d="M174.94,321.51c7.68,0,14.71,4.53,18.74,11.81h0s0-11.2,0-21.17l-49.31,13.94c-1.71,2.58-3,5.19-4.6,7.23H156.2c4.11-7.4,11.11-11.81,18.74-11.81Z"/>
        <path class="cls-1" d="M174.94,324c-6.28,0-12.1,3.45-15.82,9.3h31.65C187.1,327.55,181.26,324,174.94,324Z"/>
      </g>
    </g>
  </g>
  <g>
    <g>
      <path class="cls-4" d="M52.44,431.22l-8.77-9.11a11.09,11.09,0,0,0-2.81,5c-.25,1.08-.53,3.9-.53,3.9l-3.41,6.81a1,1,0,0,0-.08.41,1,1,0,0,0,1,1h2.45v3.62c0,2.76,1.09,4.14,2.69,4.74l9.42-2.79V431.22Zm-8,2.22A1.53,1.53,0,1,1,46,431.92,1.53,1.53,0,0,1,44.45,433.44Z"/>
      <path class="cls-4" d="M85.66,437.54,33.21,453.06l2.46,7.69,50-14.13c0-3.54,0-6.77,0-9.08Z"/>
      <path class="cls-4" d="M36.21,449.63a21.49,21.49,0,0,1,1.65-33.56L36,414.17a24.1,24.1,0,0,0-2.72,36.32Z"/>
      <path class="cls-4" d="M63.24,434.78a3.35,3.35,0,1,0-3.34-3.34A3.35,3.35,0,0,0,63.24,434.78Z"/>
      <path class="cls-4" d="M85.66,435v-1a30.56,30.56,0,0,0-49.8-23.58l0,0,19.06,19.8v13.87Zm-22.42-8.73a5.17,5.17,0,0,1,2.8.83l3.41-3.42,1.3,1.29-3.38,3.38a5.11,5.11,0,0,1,1,3.09,5.17,5.17,0,1,1-5.17-5.17Z"/>
      <path class="cls-4" d="M66.94,458.51c7.68,0,14.71,4.53,18.74,11.81h0s0-11.2,0-21.17L36.36,463.09c-1.71,2.58-3,5.19-4.6,7.23H48.2c4.11-7.4,11.11-11.81,18.74-11.81Z"/>
      <path class="cls-4" d="M66.94,461c-6.28,0-12.1,3.45-15.82,9.3H82.77C79.1,464.55,73.26,461,66.94,461Z"/>
    </g>
    <text class="cls-5" transform="translate(29.63 486.4)">A<tspan class="cls-3" x="7.31" y="0">polo 9</tspan></text>
    <g>
      <path d="M95.69,439c1,0-7-23-7-23l-5,6.79-2,9.21,1,9,5,7,9-3Z"/>
      <g>
        <path class="cls-6" d="M106.44,431.22l-8.77-9.11a11.09,11.09,0,0,0-2.81,5c-.25,1.08-.53,3.9-.53,3.9l-3.41,6.81a1,1,0,0,0-.08.41,1,1,0,0,0,1,1h2.45v3.62c0,2.76,1.09,4.14,2.69,4.74l9.42-2.79V431.22Zm-8,2.22a1.53,1.53,0,1,1,1.52-1.52A1.53,1.53,0,0,1,98.45,433.44Z"/>
        <path class="cls-6" d="M139.66,437.54,87.21,453.06l2.46,7.69,50-14.13c0-3.54,0-6.77,0-9.08Z"/>
        <path class="cls-6" d="M90.21,449.63a21.49,21.49,0,0,1,1.65-33.56L90,414.17a24.1,24.1,0,0,0-2.72,36.32Z"/>
        <path class="cls-6" d="M117.24,434.78a3.35,3.35,0,1,0-3.34-3.34A3.35,3.35,0,0,0,117.24,434.78Z"/>
        <path class="cls-6" d="M139.66,435v-1a30.56,30.56,0,0,0-49.8-23.58l0,0,19.06,19.8v13.87Zm-22.42-8.73a5.17,5.17,0,0,1,2.8.83l3.41-3.42,1.3,1.29-3.38,3.38a5.11,5.11,0,0,1,1,3.09,5.17,5.17,0,1,1-5.17-5.17Z"/>
        <path class="cls-6" d="M120.94,458.51c7.68,0,14.71,4.53,18.74,11.81h0s0-11.2,0-21.17L90.36,463.09c-1.71,2.58-3,5.19-4.6,7.23H102.2c4.11-7.4,11.11-11.81,18.74-11.81Z"/>
        <path class="cls-6" d="M120.94,461c-6.28,0-12.1,3.45-15.82,9.3h31.65C133.1,464.55,127.26,461,120.94,461Z"/>
      </g>
    </g>
    <g>
      <path d="M149.69,439c1,0-7-23-7-23l-5,6.79-2,9.21,1,9,5,7,9-3Z"/>
      <g>
        <path class="cls-4" d="M160.44,431.22l-8.77-9.11a11.09,11.09,0,0,0-2.81,5c-.25,1.08-.53,3.9-.53,3.9l-3.41,6.81a1,1,0,0,0-.08.41,1,1,0,0,0,1,1h2.45v3.62c0,2.76,1.09,4.14,2.69,4.74l9.42-2.79V431.22Zm-8,2.22a1.53,1.53,0,1,1,1.52-1.52A1.53,1.53,0,0,1,152.45,433.44Z"/>
        <path class="cls-4" d="M193.66,437.54l-52.45,15.52,2.46,7.69,50-14.13c0-3.54,0-6.77,0-9.08Z"/>
        <path class="cls-4" d="M144.21,449.63a21.49,21.49,0,0,1,1.65-33.56l-1.83-1.9a24.1,24.1,0,0,0-2.72,36.32Z"/>
        <path class="cls-4" d="M171.24,434.78a3.35,3.35,0,1,0-3.34-3.34A3.35,3.35,0,0,0,171.24,434.78Z"/>
        <path class="cls-4" d="M193.66,435v-1a30.56,30.56,0,0,0-49.8-23.58l0,0,19.06,19.8v13.87Zm-22.42-8.73a5.17,5.17,0,0,1,2.8.83l3.41-3.42,1.3,1.29-3.38,3.38a5.11,5.11,0,0,1,1,3.09,5.17,5.17,0,1,1-5.17-5.17Z"/>
        <path class="cls-4" d="M174.94,458.51c7.68,0,14.71,4.53,18.74,11.81h0s0-11.2,0-21.17l-49.31,13.94c-1.71,2.58-3,5.19-4.6,7.23H156.2c4.11-7.4,11.11-11.81,18.74-11.81Z"/>
        <path class="cls-4" d="M174.94,461c-6.28,0-12.1,3.45-15.82,9.3h31.65C187.1,464.55,181.26,461,174.94,461Z"/>
      </g>
    </g>
  </g>
  <g>
    <g>
      <path class="cls-4" d="M52.44,568.22l-8.77-9.11a11.09,11.09,0,0,0-2.81,5c-.25,1.08-.53,3.9-.53,3.9l-3.41,6.81a1,1,0,0,0-.08.41,1,1,0,0,0,1,1h2.45v3.62c0,2.76,1.09,4.14,2.69,4.74l9.42-2.79V568.22Zm-8,2.22A1.53,1.53,0,1,1,46,568.92,1.53,1.53,0,0,1,44.45,570.44Z"/>
      <path class="cls-4" d="M85.66,574.54,33.21,590.06l2.46,7.69,50-14.13c0-3.54,0-6.77,0-9.08Z"/>
      <path class="cls-4" d="M36.21,586.63a21.49,21.49,0,0,1,1.65-33.56L36,551.17a24.1,24.1,0,0,0-2.72,36.32Z"/>
      <path class="cls-4" d="M63.24,571.78a3.35,3.35,0,1,0-3.34-3.34A3.35,3.35,0,0,0,63.24,571.78Z"/>
      <path class="cls-4" d="M85.66,572v-1a30.56,30.56,0,0,0-49.8-23.58l0,0,19.06,19.8v13.87Zm-22.42-8.73a5.17,5.17,0,0,1,2.8.83l3.41-3.42,1.3,1.29-3.38,3.38a5.11,5.11,0,0,1,1,3.09,5.17,5.17,0,1,1-5.17-5.17Z"/>
      <path class="cls-4" d="M66.94,595.51c7.68,0,14.71,4.53,18.74,11.81h0s0-11.2,0-21.17L36.36,600.09c-1.71,2.58-3,5.19-4.6,7.23H48.2c4.11-7.4,11.11-11.81,18.74-11.81Z"/>
      <path class="cls-4" d="M66.94,598c-6.28,0-12.1,3.45-15.82,9.3H82.77C79.1,601.55,73.26,598,66.94,598Z"/>
    </g>
    <text class="cls-5" transform="translate(29.63 623.4)">A<tspan class="cls-3" x="7.31" y="0">polo 12</tspan></text>
    <g>
      <path d="M95.69,577c1,0-7-23-7-23l-5,6.79-2,9.21,1,9,5,7,9-3Z"/>
      <g>
        <path class="cls-4" d="M106.44,568.22l-8.77-9.11a11.09,11.09,0,0,0-2.81,5c-.25,1.08-.53,3.9-.53,3.9l-3.41,6.81a1,1,0,0,0-.08.41,1,1,0,0,0,1,1h2.45v3.62c0,2.76,1.09,4.14,2.69,4.74l9.42-2.79V568.22Zm-8,2.22a1.53,1.53,0,1,1,1.52-1.52A1.53,1.53,0,0,1,98.45,570.44Z"/>
        <path class="cls-4" d="M139.66,574.54,87.21,590.06l2.46,7.69,50-14.13c0-3.54,0-6.77,0-9.08Z"/>
        <path class="cls-4" d="M90.21,586.63a21.49,21.49,0,0,1,1.65-33.56L90,551.17a24.1,24.1,0,0,0-2.72,36.32Z"/>
        <path class="cls-4" d="M117.24,571.78a3.35,3.35,0,1,0-3.34-3.34A3.35,3.35,0,0,0,117.24,571.78Z"/>
        <path class="cls-4" d="M139.66,572v-1a30.56,30.56,0,0,0-49.8-23.58l0,0,19.06,19.8v13.87Zm-22.42-8.73a5.17,5.17,0,0,1,2.8.83l3.41-3.42,1.3,1.29-3.38,3.38a5.11,5.11,0,0,1,1,3.09,5.17,5.17,0,1,1-5.17-5.17Z"/>
        <path class="cls-4" d="M120.94,595.51c7.68,0,14.71,4.53,18.74,11.81h0s0-11.2,0-21.17L90.36,600.09c-1.71,2.58-3,5.19-4.6,7.23H102.2c4.11-7.4,11.11-11.81,18.74-11.81Z"/>
        <path class="cls-4" d="M120.94,598c-6.28,0-12.1,3.45-15.82,9.3h31.65C133.1,601.55,127.26,598,120.94,598Z"/>
      </g>
    </g>
    <g>
      <path d="M149.69,577c1,0-7-23-7-23l-5,6.79-2,9.21,1,9,5,7,9-3Z"/>
      <g>
        <path class="cls-4" d="M160.44,568.22l-8.77-9.11a11.09,11.09,0,0,0-2.81,5c-.25,1.08-.53,3.9-.53,3.9l-3.41,6.81a1,1,0,0,0-.08.41,1,1,0,0,0,1,1h2.45v3.62c0,2.76,1.09,4.14,2.69,4.74l9.42-2.79V568.22Zm-8,2.22a1.53,1.53,0,1,1,1.52-1.52A1.53,1.53,0,0,1,152.45,570.44Z"/>
        <path class="cls-4" d="M193.66,574.54l-52.45,15.52,2.46,7.69,50-14.13c0-3.54,0-6.77,0-9.08Z"/>
        <path class="cls-4" d="M144.21,586.63a21.49,21.49,0,0,1,1.65-33.56l-1.83-1.9a24.1,24.1,0,0,0-2.72,36.32Z"/>
        <path class="cls-4" d="M171.24,571.78a3.35,3.35,0,1,0-3.34-3.34A3.35,3.35,0,0,0,171.24,571.78Z"/>
        <path class="cls-4" d="M193.66,572v-1a30.56,30.56,0,0,0-49.8-23.58l0,0,19.06,19.8v13.87Zm-22.42-8.73a5.17,5.17,0,0,1,2.8.83l3.41-3.42,1.3,1.29-3.38,3.38a5.11,5.11,0,0,1,1,3.09,5.17,5.17,0,1,1-5.17-5.17Z"/>
        <path class="cls-4" d="M174.94,595.51c7.68,0,14.71,4.53,18.74,11.81h0s0-11.2,0-21.17l-49.31,13.94c-1.71,2.58-3,5.19-4.6,7.23H156.2c4.11-7.4,11.11-11.81,18.74-11.81Z"/>
        <path class="cls-4" d="M174.94,598c-6.28,0-12.1,3.45-15.82,9.3h31.65C187.1,601.55,181.26,598,174.94,598Z"/>
      </g>
    </g>
  </g>
  <g>
    <g>
      <path class="cls-7" d="M52.44,705.22l-8.77-9.11a11.09,11.09,0,0,0-2.81,5c-.25,1.08-.53,3.9-.53,3.9l-3.41,6.81a1,1,0,0,0-.08.41,1,1,0,0,0,1,1h2.45v3.62c0,2.76,1.09,4.14,2.69,4.74l9.42-2.79V705.22Zm-8,2.22A1.53,1.53,0,1,1,46,705.92,1.53,1.53,0,0,1,44.45,707.44Z"/>
      <path class="cls-7" d="M85.66,711.54,33.21,727.06l2.46,7.69,50-14.13c0-3.54,0-6.77,0-9.08Z"/>
      <path class="cls-7" d="M36.21,723.63a21.49,21.49,0,0,1,1.65-33.56L36,688.17a24.1,24.1,0,0,0-2.72,36.32Z"/>
      <path class="cls-7" d="M63.24,708.78a3.35,3.35,0,1,0-3.34-3.34A3.35,3.35,0,0,0,63.24,708.78Z"/>
      <path class="cls-7" d="M85.66,709v-1a30.56,30.56,0,0,0-49.8-23.58l0,0,19.06,19.8v13.87Zm-22.42-8.73a5.17,5.17,0,0,1,2.8.83l3.41-3.42,1.3,1.29-3.38,3.38a5.11,5.11,0,0,1,1,3.09,5.17,5.17,0,1,1-5.17-5.17Z"/>
      <path class="cls-7" d="M66.94,732.51c7.68,0,14.71,4.53,18.74,11.81h0s0-11.2,0-21.17L36.36,737.09c-1.71,2.58-3,5.19-4.6,7.23H48.2c4.11-7.4,11.11-11.81,18.74-11.81Z"/>
      <path class="cls-7" d="M66.94,735c-6.28,0-12.1,3.45-15.82,9.3H82.77C79.1,738.55,73.26,735,66.94,735Z"/>
    </g>
    <text class="cls-5" transform="translate(29.63 760.4)">A<tspan class="cls-3" x="7.31" y="0">polo 15</tspan></text>
    <g>
      <path d="M95.69,713c1,0-7-23-7-23l-5,6.79-2,9.21,1,9,5,7,9-3Z"/>
      <g>
        <path class="cls-4" d="M106.44,705.22l-8.77-9.11a11.09,11.09,0,0,0-2.81,5c-.25,1.08-.53,3.9-.53,3.9l-3.41,6.81a1,1,0,0,0-.08.41,1,1,0,0,0,1,1h2.45v3.62c0,2.76,1.09,4.14,2.69,4.74l9.42-2.79V705.22Zm-8,2.22a1.53,1.53,0,1,1,1.52-1.52A1.53,1.53,0,0,1,98.45,707.44Z"/>
        <path class="cls-4" d="M139.66,711.54,87.21,727.06l2.46,7.69,50-14.13c0-3.54,0-6.77,0-9.08Z"/>
        <path class="cls-4" d="M90.21,723.63a21.49,21.49,0,0,1,1.65-33.56L90,688.17a24.1,24.1,0,0,0-2.72,36.32Z"/>
        <path class="cls-4" d="M117.24,708.78a3.35,3.35,0,1,0-3.34-3.34A3.35,3.35,0,0,0,117.24,708.78Z"/>
        <path class="cls-4" d="M139.66,709v-1a30.56,30.56,0,0,0-49.8-23.58l0,0,19.06,19.8v13.87Zm-22.42-8.73a5.17,5.17,0,0,1,2.8.83l3.41-3.42,1.3,1.29-3.38,3.38a5.11,5.11,0,0,1,1,3.09,5.17,5.17,0,1,1-5.17-5.17Z"/>
        <path class="cls-4" d="M120.94,732.51c7.68,0,14.71,4.53,18.74,11.81h0s0-11.2,0-21.17L90.36,737.09c-1.71,2.58-3,5.19-4.6,7.23H102.2c4.11-7.4,11.11-11.81,18.74-11.81Z"/>
        <path class="cls-4" d="M120.94,735c-6.28,0-12.1,3.45-15.82,9.3h31.65C133.1,738.55,127.26,735,120.94,735Z"/>
      </g>
    </g>
    <g>
      <path d="M149.69,713c1,0-7-23-7-23l-5,6.79-2,9.21,1,9,5,7,9-3Z"/>
      <g>
        <path class="cls-4" d="M160.44,705.22l-8.77-9.11a11.09,11.09,0,0,0-2.81,5c-.25,1.08-.53,3.9-.53,3.9l-3.41,6.81a1,1,0,0,0-.08.41,1,1,0,0,0,1,1h2.45v3.62c0,2.76,1.09,4.14,2.69,4.74l9.42-2.79V705.22Zm-8,2.22a1.53,1.53,0,1,1,1.52-1.52A1.53,1.53,0,0,1,152.45,707.44Z"/>
        <path class="cls-4" d="M193.66,711.54l-52.45,15.52,2.46,7.69,50-14.13c0-3.54,0-6.77,0-9.08Z"/>
        <path class="cls-4" d="M144.21,723.63a21.49,21.49,0,0,1,1.65-33.56l-1.83-1.9a24.1,24.1,0,0,0-2.72,36.32Z"/>
        <path class="cls-4" d="M171.24,708.78a3.35,3.35,0,1,0-3.34-3.34A3.35,3.35,0,0,0,171.24,708.78Z"/>
        <path class="cls-4" d="M193.66,709v-1a30.56,30.56,0,0,0-49.8-23.58l0,0,19.06,19.8v13.87Zm-22.42-8.73a5.17,5.17,0,0,1,2.8.83l3.41-3.42,1.3,1.29-3.38,3.38a5.11,5.11,0,0,1,1,3.09,5.17,5.17,0,1,1-5.17-5.17Z"/>
        <path class="cls-4" d="M174.94,732.51c7.68,0,14.71,4.53,18.74,11.81h0s0-11.2,0-21.17l-49.31,13.94c-1.71,2.58-3,5.19-4.6,7.23H156.2c4.11-7.4,11.11-11.81,18.74-11.81Z"/>
        <path class="cls-4" d="M174.94,735c-6.28,0-12.1,3.45-15.82,9.3h31.65C187.1,738.55,181.26,735,174.94,735Z"/>
      </g>
    </g>
  </g>
  <g>
    <g>
      <path class="cls-4" d="M262.44,294.22l-8.77-9.11a11.09,11.09,0,0,0-2.81,5c-.25,1.08-.53,3.9-.53,3.9l-3.41,6.81a1,1,0,0,0-.08.41,1,1,0,0,0,1,1h2.45v3.62c0,2.76,1.09,4.14,2.69,4.74l9.42-2.79V294.22Zm-8,2.22a1.53,1.53,0,1,1,1.52-1.52A1.53,1.53,0,0,1,254.45,296.44Z"/>
      <path class="cls-4" d="M295.66,300.54l-52.45,15.52,2.46,7.69,50-14.13c0-3.54,0-6.77,0-9.08Z"/>
      <path class="cls-4" d="M246.21,312.63a21.49,21.49,0,0,1,1.65-33.56l-1.83-1.9a24.1,24.1,0,0,0-2.72,36.32Z"/>
      <path class="cls-4" d="M273.24,297.78a3.35,3.35,0,1,0-3.34-3.34A3.35,3.35,0,0,0,273.24,297.78Z"/>
      <path class="cls-4" d="M295.66,298v-1a30.56,30.56,0,0,0-49.8-23.58l0,0,19.06,19.8v13.87Zm-22.42-8.73a5.17,5.17,0,0,1,2.8.83l3.41-3.42,1.3,1.29-3.38,3.38a5.11,5.11,0,0,1,1,3.09,5.17,5.17,0,1,1-5.17-5.17Z"/>
      <path class="cls-4" d="M276.94,321.51c7.68,0,14.71,4.53,18.74,11.81h0s0-11.2,0-21.17l-49.31,13.94c-1.71,2.58-3,5.19-4.6,7.23H258.2c4.11-7.4,11.11-11.81,18.74-11.81Z"/>
      <path class="cls-4" d="M276.94,324c-6.28,0-12.1,3.45-15.82,9.3h31.65C289.1,327.55,283.26,324,276.94,324Z"/>
    </g>
    <text class="cls-5" transform="translate(240.63 349.4)">A<tspan class="cls-3" x="7.31" y="0">polo 7</tspan></text>
    <g>
      <path d="M305.69,303c1,0-7-23-7-23l-5,6.79-2,9.21,1,9,5,7,9-3Z"/>
      <g>
        <path class="cls-4" d="M316.44,294.22l-8.77-9.11a11.09,11.09,0,0,0-2.81,5c-.25,1.08-.53,3.9-.53,3.9l-3.41,6.81a1,1,0,0,0-.08.41,1,1,0,0,0,1,1h2.45v3.62c0,2.76,1.09,4.14,2.69,4.74l9.42-2.79V294.22Zm-8,2.22a1.53,1.53,0,1,1,1.52-1.52A1.53,1.53,0,0,1,308.45,296.44Z"/>
        <path class="cls-4" d="M349.66,300.54l-52.45,15.52,2.46,7.69,50-14.13c0-3.54,0-6.77,0-9.08Z"/>
        <path class="cls-4" d="M300.21,312.63a21.49,21.49,0,0,1,1.65-33.56l-1.83-1.9a24.1,24.1,0,0,0-2.72,36.32Z"/>
        <path class="cls-4" d="M327.24,297.78a3.35,3.35,0,1,0-3.34-3.34A3.35,3.35,0,0,0,327.24,297.78Z"/>
        <path class="cls-4" d="M349.66,298v-1a30.56,30.56,0,0,0-49.8-23.58l0,0,19.06,19.8v13.87Zm-22.42-8.73a5.17,5.17,0,0,1,2.8.83l3.41-3.42,1.3,1.29-3.38,3.38a5.11,5.11,0,0,1,1,3.09,5.17,5.17,0,1,1-5.17-5.17Z"/>
        <path class="cls-4" d="M330.94,321.51c7.68,0,14.71,4.53,18.74,11.81h0s0-11.2,0-21.17l-49.31,13.94c-1.71,2.58-3,5.19-4.6,7.23H312.2c4.11-7.4,11.11-11.81,18.74-11.81Z"/>
        <path class="cls-4" d="M330.94,324c-6.28,0-12.1,3.45-15.82,9.3h31.65C343.1,327.55,337.26,324,330.94,324Z"/>
      </g>
    </g>
    <g>
      <path d="M359.69,303c1,0-7-23-7-23l-5,6.79-2,9.21,1,9,5,7,9-3Z"/>
      <g>
        <path class="cls-4" d="M370.44,294.22l-8.77-9.11a11.09,11.09,0,0,0-2.81,5c-.25,1.08-.53,3.9-.53,3.9l-3.41,6.81a1,1,0,0,0-.08.41,1,1,0,0,0,1,1h2.45v3.62c0,2.76,1.09,4.14,2.69,4.74l9.42-2.79V294.22Zm-8,2.22a1.53,1.53,0,1,1,1.52-1.52A1.53,1.53,0,0,1,362.45,296.44Z"/>
        <path class="cls-4" d="M403.66,300.54l-52.45,15.52,2.46,7.69,50-14.13c0-3.54,0-6.77,0-9.08Z"/>
        <path class="cls-4" d="M354.21,312.63a21.49,21.49,0,0,1,1.65-33.56l-1.83-1.9a24.1,24.1,0,0,0-2.72,36.32Z"/>
        <path class="cls-4" d="M381.24,297.78a3.35,3.35,0,1,0-3.34-3.34A3.35,3.35,0,0,0,381.24,297.78Z"/>
        <path class="cls-4" d="M403.66,298v-1a30.56,30.56,0,0,0-49.8-23.58l0,0,19.06,19.8v13.87Zm-22.42-8.73a5.17,5.17,0,0,1,2.8.83l3.41-3.42,1.3,1.29-3.38,3.38a5.11,5.11,0,0,1,1,3.09,5.17,5.17,0,1,1-5.17-5.17Z"/>
        <path class="cls-4" d="M384.94,321.51c7.68,0,14.71,4.53,18.74,11.81h0s0-11.2,0-21.17l-49.31,13.94c-1.71,2.58-3,5.19-4.6,7.23H366.2c4.11-7.4,11.11-11.81,18.74-11.81Z"/>
        <path class="cls-4" d="M384.94,324c-6.28,0-12.1,3.45-15.82,9.3h31.65C397.1,327.55,391.26,324,384.94,324Z"/>
      </g>
    </g>
  </g>
  <g>
    <g>
      <path class="cls-4" d="M262.44,431.22l-8.77-9.11a11.09,11.09,0,0,0-2.81,5c-.25,1.08-.53,3.9-.53,3.9l-3.41,6.81a1,1,0,0,0-.08.41,1,1,0,0,0,1,1h2.45v3.62c0,2.76,1.09,4.14,2.69,4.74l9.42-2.79V431.22Zm-8,2.22a1.53,1.53,0,1,1,1.52-1.52A1.53,1.53,0,0,1,254.45,433.44Z"/>
      <path class="cls-4" d="M295.66,437.54l-52.45,15.52,2.46,7.69,50-14.13c0-3.54,0-6.77,0-9.08Z"/>
      <path class="cls-4" d="M246.21,449.63a21.49,21.49,0,0,1,1.65-33.56l-1.83-1.9a24.1,24.1,0,0,0-2.72,36.32Z"/>
      <path class="cls-4" d="M273.24,434.78a3.35,3.35,0,1,0-3.34-3.34A3.35,3.35,0,0,0,273.24,434.78Z"/>
      <path class="cls-4" d="M295.66,435v-1a30.56,30.56,0,0,0-49.8-23.58l0,0,19.06,19.8v13.87Zm-22.42-8.73a5.17,5.17,0,0,1,2.8.83l3.41-3.42,1.3,1.29-3.38,3.38a5.11,5.11,0,0,1,1,3.09,5.17,5.17,0,1,1-5.17-5.17Z"/>
      <path class="cls-4" d="M276.94,458.51c7.68,0,14.71,4.53,18.74,11.81h0s0-11.2,0-21.17l-49.31,13.94c-1.71,2.58-3,5.19-4.6,7.23H258.2c4.11-7.4,11.11-11.81,18.74-11.81Z"/>
      <path class="cls-4" d="M276.94,461c-6.28,0-12.1,3.45-15.82,9.3h31.65C289.1,464.55,283.26,461,276.94,461Z"/>
    </g>
    <text class="cls-5" transform="translate(240.63 486.4)">A<tspan class="cls-3" x="7.31" y="0">polo 10</tspan></text>
    <g>
      <path d="M305.69,439c1,0-7-23-7-23l-5,6.79-2,9.21,1,9,5,7,9-3Z"/>
      <g>
        <path class="cls-6" d="M316.44,431.22l-8.77-9.11a11.09,11.09,0,0,0-2.81,5c-.25,1.08-.53,3.9-.53,3.9l-3.41,6.81a1,1,0,0,0-.08.41,1,1,0,0,0,1,1h2.45v3.62c0,2.76,1.09,4.14,2.69,4.74l9.42-2.79V431.22Zm-8,2.22a1.53,1.53,0,1,1,1.52-1.52A1.53,1.53,0,0,1,308.45,433.44Z"/>
        <path class="cls-6" d="M349.66,437.54l-52.45,15.52,2.46,7.69,50-14.13c0-3.54,0-6.77,0-9.08Z"/>
        <path class="cls-6" d="M300.21,449.63a21.49,21.49,0,0,1,1.65-33.56l-1.83-1.9a24.1,24.1,0,0,0-2.72,36.32Z"/>
        <path class="cls-6" d="M327.24,434.78a3.35,3.35,0,1,0-3.34-3.34A3.35,3.35,0,0,0,327.24,434.78Z"/>
        <path class="cls-6" d="M349.66,435v-1a30.56,30.56,0,0,0-49.8-23.58l0,0,19.06,19.8v13.87Zm-22.42-8.73a5.17,5.17,0,0,1,2.8.83l3.41-3.42,1.3,1.29-3.38,3.38a5.11,5.11,0,0,1,1,3.09,5.17,5.17,0,1,1-5.17-5.17Z"/>
        <path class="cls-6" d="M330.94,458.51c7.68,0,14.71,4.53,18.74,11.81h0s0-11.2,0-21.17l-49.31,13.94c-1.71,2.58-3,5.19-4.6,7.23H312.2c4.11-7.4,11.11-11.81,18.74-11.81Z"/>
        <path class="cls-6" d="M330.94,461c-6.28,0-12.1,3.45-15.82,9.3h31.65C343.1,464.55,337.26,461,330.94,461Z"/>
      </g>
    </g>
    <g>
      <path d="M359.69,439c1,0-7-23-7-23l-5,6.79-2,9.21,1,9,5,7,9-3Z"/>
      <g>
        <path class="cls-6" d="M370.44,431.22l-8.77-9.11a11.09,11.09,0,0,0-2.81,5c-.25,1.08-.53,3.9-.53,3.9l-3.41,6.81a1,1,0,0,0-.08.41,1,1,0,0,0,1,1h2.45v3.62c0,2.76,1.09,4.14,2.69,4.74l9.42-2.79V431.22Zm-8,2.22a1.53,1.53,0,1,1,1.52-1.52A1.53,1.53,0,0,1,362.45,433.44Z"/>
        <path class="cls-6" d="M403.66,437.54l-52.45,15.52,2.46,7.69,50-14.13c0-3.54,0-6.77,0-9.08Z"/>
        <path class="cls-6" d="M354.21,449.63a21.49,21.49,0,0,1,1.65-33.56l-1.83-1.9a24.1,24.1,0,0,0-2.72,36.32Z"/>
        <path class="cls-6" d="M381.24,434.78a3.35,3.35,0,1,0-3.34-3.34A3.35,3.35,0,0,0,381.24,434.78Z"/>
        <path class="cls-6" d="M403.66,435v-1a30.56,30.56,0,0,0-49.8-23.58l0,0,19.06,19.8v13.87Zm-22.42-8.73a5.17,5.17,0,0,1,2.8.83l3.41-3.42,1.3,1.29-3.38,3.38a5.11,5.11,0,0,1,1,3.09,5.17,5.17,0,1,1-5.17-5.17Z"/>
        <path class="cls-6" d="M384.94,458.51c7.68,0,14.71,4.53,18.74,11.81h0s0-11.2,0-21.17l-49.31,13.94c-1.71,2.58-3,5.19-4.6,7.23H366.2c4.11-7.4,11.11-11.81,18.74-11.81Z"/>
        <path class="cls-6" d="M384.94,461c-6.28,0-12.1,3.45-15.82,9.3h31.65C397.1,464.55,391.26,461,384.94,461Z"/>
      </g>
    </g>
  </g>
  <g>
    <g>
      <path class="cls-4" d="M472.44,294.22l-8.77-9.11a11.09,11.09,0,0,0-2.81,5c-.25,1.08-.53,3.9-.53,3.9l-3.41,6.81a1,1,0,0,0-.08.41,1,1,0,0,0,1,1h2.45v3.62c0,2.76,1.09,4.14,2.69,4.74l9.42-2.79V294.22Zm-8,2.22a1.53,1.53,0,1,1,1.52-1.52A1.53,1.53,0,0,1,464.45,296.44Z"/>
      <path class="cls-4" d="M505.66,300.54l-52.45,15.52,2.46,7.69,50-14.13c0-3.54,0-6.77,0-9.08Z"/>
      <path class="cls-4" d="M456.21,312.63a21.49,21.49,0,0,1,1.65-33.56l-1.83-1.9a24.1,24.1,0,0,0-2.72,36.32Z"/>
      <path class="cls-4" d="M483.24,297.78a3.35,3.35,0,1,0-3.34-3.34A3.35,3.35,0,0,0,483.24,297.78Z"/>
      <path class="cls-4" d="M505.66,298v-1a30.56,30.56,0,0,0-49.8-23.58l0,0,19.06,19.8v13.87Zm-22.42-8.73a5.17,5.17,0,0,1,2.8.83l3.41-3.42,1.3,1.29-3.38,3.38a5.11,5.11,0,0,1,1,3.09,5.17,5.17,0,1,1-5.17-5.17Z"/>
      <path class="cls-4" d="M486.94,321.51c7.68,0,14.71,4.53,18.74,11.81h0s0-11.2,0-21.17l-49.31,13.94c-1.71,2.58-3,5.19-4.6,7.23H468.2c4.11-7.4,11.11-11.81,18.74-11.81Z"/>
      <path class="cls-4" d="M486.94,324c-6.28,0-12.1,3.45-15.82,9.3h31.65C499.1,327.55,493.26,324,486.94,324Z"/>
    </g>
    <text class="cls-5" transform="translate(449.63 349.4)">A<tspan class="cls-3" x="7.31" y="0">polo 8</tspan></text>
    <g>
      <path d="M515.69,303c1,0-7-23-7-23l-5,6.79-2,9.21,1,9,5,7,9-3Z"/>
      <g>
        <path class="cls-6" d="M526.44,294.22l-8.77-9.11a11.09,11.09,0,0,0-2.81,5c-.25,1.08-.53,3.9-.53,3.9l-3.41,6.81a1,1,0,0,0-.08.41,1,1,0,0,0,1,1h2.45v3.62c0,2.76,1.09,4.14,2.69,4.74l9.42-2.79V294.22Zm-8,2.22a1.53,1.53,0,1,1,1.52-1.52A1.53,1.53,0,0,1,518.45,296.44Z"/>
        <path class="cls-6" d="M559.66,300.54l-52.45,15.52,2.46,7.69,50-14.13c0-3.54,0-6.77,0-9.08Z"/>
        <path class="cls-6" d="M510.21,312.63a21.49,21.49,0,0,1,1.65-33.56l-1.83-1.9a24.1,24.1,0,0,0-2.72,36.32Z"/>
        <path class="cls-6" d="M537.24,297.78a3.35,3.35,0,1,0-3.34-3.34A3.35,3.35,0,0,0,537.24,297.78Z"/>
        <path class="cls-6" d="M559.66,298v-1a30.56,30.56,0,0,0-49.8-23.58l0,0,19.06,19.8v13.87Zm-22.42-8.73a5.17,5.17,0,0,1,2.8.83l3.41-3.42,1.3,1.29-3.38,3.38a5.11,5.11,0,0,1,1,3.09,5.17,5.17,0,1,1-5.17-5.17Z"/>
        <path class="cls-6" d="M540.94,321.51c7.68,0,14.71,4.53,18.74,11.81h0s0-11.2,0-21.17l-49.31,13.94c-1.71,2.58-3,5.19-4.6,7.23H522.2c4.11-7.4,11.11-11.81,18.74-11.81Z"/>
        <path class="cls-6" d="M540.94,324c-6.28,0-12.1,3.45-15.82,9.3h31.65C553.1,327.55,547.26,324,540.94,324Z"/>
      </g>
    </g>
    <g>
      <path d="M569.69,303c1,0-7-23-7-23l-5,6.79-2,9.21,1,9,5,7,9-3Z"/>
      <g>
        <path class="cls-4" d="M580.44,294.22l-8.77-9.11a11.09,11.09,0,0,0-2.81,5c-.25,1.08-.53,3.9-.53,3.9l-3.41,6.81a1,1,0,0,0-.08.41,1,1,0,0,0,1,1h2.45v3.62c0,2.76,1.09,4.14,2.69,4.74l9.42-2.79V294.22Zm-8,2.22a1.53,1.53,0,1,1,1.52-1.52A1.53,1.53,0,0,1,572.45,296.44Z"/>
        <path class="cls-4" d="M613.66,300.54l-52.45,15.52,2.46,7.69,50-14.13c0-3.54,0-6.77,0-9.08Z"/>
        <path class="cls-4" d="M564.21,312.63a21.49,21.49,0,0,1,1.65-33.56l-1.83-1.9a24.1,24.1,0,0,0-2.72,36.32Z"/>
        <path class="cls-4" d="M591.24,297.78a3.35,3.35,0,1,0-3.34-3.34A3.35,3.35,0,0,0,591.24,297.78Z"/>
        <path class="cls-4" d="M613.66,298v-1a30.56,30.56,0,0,0-49.8-23.58l0,0,19.06,19.8v13.87Zm-22.42-8.73a5.17,5.17,0,0,1,2.8.83l3.41-3.42,1.3,1.29-3.38,3.38a5.11,5.11,0,0,1,1,3.09,5.17,5.17,0,1,1-5.17-5.17Z"/>
        <path class="cls-4" d="M594.94,321.51c7.68,0,14.71,4.53,18.74,11.81h0s0-11.2,0-21.17l-49.31,13.94c-1.71,2.58-3,5.19-4.6,7.23H576.2c4.11-7.4,11.11-11.81,18.74-11.81Z"/>
        <path class="cls-4" d="M594.94,324c-6.28,0-12.1,3.45-15.82,9.3h31.65C607.1,327.55,601.26,324,594.94,324Z"/>
      </g>
    </g>
  </g>
  <g>
    <g>
      <path class="cls-4" d="M472.44,431.22l-8.77-9.11a11.09,11.09,0,0,0-2.81,5c-.25,1.08-.53,3.9-.53,3.9l-3.41,6.81a1,1,0,0,0-.08.41,1,1,0,0,0,1,1h2.45v3.62c0,2.76,1.09,4.14,2.69,4.74l9.42-2.79V431.22Zm-8,2.22a1.53,1.53,0,1,1,1.52-1.52A1.53,1.53,0,0,1,464.45,433.44Z"/>
      <path class="cls-4" d="M505.66,437.54l-52.45,15.52,2.46,7.69,50-14.13c0-3.54,0-6.77,0-9.08Z"/>
      <path class="cls-4" d="M456.21,449.63a21.49,21.49,0,0,1,1.65-33.56l-1.83-1.9a24.1,24.1,0,0,0-2.72,36.32Z"/>
      <path class="cls-4" d="M483.24,434.78a3.35,3.35,0,1,0-3.34-3.34A3.35,3.35,0,0,0,483.24,434.78Z"/>
      <path class="cls-4" d="M505.66,435v-1a30.56,30.56,0,0,0-49.8-23.58l0,0,19.06,19.8v13.87Zm-22.42-8.73a5.17,5.17,0,0,1,2.8.83l3.41-3.42,1.3,1.29-3.38,3.38a5.11,5.11,0,0,1,1,3.09,5.17,5.17,0,1,1-5.17-5.17Z"/>
      <path class="cls-4" d="M486.94,458.51c7.68,0,14.71,4.53,18.74,11.81h0s0-11.2,0-21.17l-49.31,13.94c-1.71,2.58-3,5.19-4.6,7.23H468.2c4.11-7.4,11.11-11.81,18.74-11.81Z"/>
      <path class="cls-4" d="M486.94,461c-6.28,0-12.1,3.45-15.82,9.3h31.65C499.1,464.55,493.26,461,486.94,461Z"/>
    </g>
    <text class="cls-5" transform="translate(449.63 486.4)">A<tspan class="cls-3" x="7.31" y="0">polo 11</tspan></text>
    <g>
      <path d="M515.69,440c1,0-7-23-7-23l-5,6.79-2,9.21,1,9,5,7,9-3Z"/>
      <g>
        <path class="cls-4" d="M526.44,431.22l-8.77-9.11a11.09,11.09,0,0,0-2.81,5c-.25,1.08-.53,3.9-.53,3.9l-3.41,6.81a1,1,0,0,0-.08.41,1,1,0,0,0,1,1h2.45v3.62c0,2.76,1.09,4.14,2.69,4.74l9.42-2.79V431.22Zm-8,2.22a1.53,1.53,0,1,1,1.52-1.52A1.53,1.53,0,0,1,518.45,433.44Z"/>
        <path class="cls-4" d="M559.66,437.54l-52.45,15.52,2.46,7.69,50-14.13c0-3.54,0-6.77,0-9.08Z"/>
        <path class="cls-4" d="M510.21,449.63a21.49,21.49,0,0,1,1.65-33.56l-1.83-1.9a24.1,24.1,0,0,0-2.72,36.32Z"/>
        <path class="cls-4" d="M537.24,434.78a3.35,3.35,0,1,0-3.34-3.34A3.35,3.35,0,0,0,537.24,434.78Z"/>
        <path class="cls-4" d="M559.66,435v-1a30.56,30.56,0,0,0-49.8-23.58l0,0,19.06,19.8v13.87Zm-22.42-8.73a5.17,5.17,0,0,1,2.8.83l3.41-3.42,1.3,1.29-3.38,3.38a5.11,5.11,0,0,1,1,3.09,5.17,5.17,0,1,1-5.17-5.17Z"/>
        <path class="cls-4" d="M540.94,458.51c7.68,0,14.71,4.53,18.74,11.81h0s0-11.2,0-21.17l-49.31,13.94c-1.71,2.58-3,5.19-4.6,7.23H522.2c4.11-7.4,11.11-11.81,18.74-11.81Z"/>
        <path class="cls-4" d="M540.94,461c-6.28,0-12.1,3.45-15.82,9.3h31.65C553.1,464.55,547.26,461,540.94,461Z"/>
      </g>
    </g>
    <g>
      <path d="M569.69,440c1,0-7-23-7-23l-5,6.79-2,9.21,1,9,5,7,9-3Z"/>
      <g>
        <path class="cls-4" d="M580.44,431.22l-8.77-9.11a11.09,11.09,0,0,0-2.81,5c-.25,1.08-.53,3.9-.53,3.9l-3.41,6.81a1,1,0,0,0-.08.41,1,1,0,0,0,1,1h2.45v3.62c0,2.76,1.09,4.14,2.69,4.74l9.42-2.79V431.22Zm-8,2.22a1.53,1.53,0,1,1,1.52-1.52A1.53,1.53,0,0,1,572.45,433.44Z"/>
        <path class="cls-4" d="M613.66,437.54l-52.45,15.52,2.46,7.69,50-14.13c0-3.54,0-6.77,0-9.08Z"/>
        <path class="cls-4" d="M564.21,449.63a21.49,21.49,0,0,1,1.65-33.56l-1.83-1.9a24.1,24.1,0,0,0-2.72,36.32Z"/>
        <path class="cls-4" d="M591.24,434.78a3.35,3.35,0,1,0-3.34-3.34A3.35,3.35,0,0,0,591.24,434.78Z"/>
        <path class="cls-4" d="M613.66,435v-1a30.56,30.56,0,0,0-49.8-23.58l0,0,19.06,19.8v13.87Zm-22.42-8.73a5.17,5.17,0,0,1,2.8.83l3.41-3.42,1.3,1.29-3.38,3.38a5.11,5.11,0,0,1,1,3.09,5.17,5.17,0,1,1-5.17-5.17Z"/>
        <path class="cls-4" d="M594.94,458.51c7.68,0,14.71,4.53,18.74,11.81h0s0-11.2,0-21.17l-49.31,13.94c-1.71,2.58-3,5.19-4.6,7.23H576.2c4.11-7.4,11.11-11.81,18.74-11.81Z"/>
        <path class="cls-4" d="M594.94,461c-6.28,0-12.1,3.45-15.82,9.3h31.65C607.1,464.55,601.26,461,594.94,461Z"/>
      </g>
    </g>
  </g>
  <g>
    <g>
      <path class="cls-7" d="M262.44,568.22l-8.77-9.11a11.09,11.09,0,0,0-2.81,5c-.25,1.08-.53,3.9-.53,3.9l-3.41,6.81a1,1,0,0,0-.08.41,1,1,0,0,0,1,1h2.45v3.62c0,2.76,1.09,4.14,2.69,4.74l9.42-2.79V568.22Zm-8,2.22a1.53,1.53,0,1,1,1.52-1.52A1.53,1.53,0,0,1,254.45,570.44Z"/>
      <path class="cls-7" d="M295.66,574.54l-52.45,15.52,2.46,7.69,50-14.13c0-3.54,0-6.77,0-9.08Z"/>
      <path class="cls-7" d="M246.21,586.63a21.49,21.49,0,0,1,1.65-33.56l-1.83-1.9a24.1,24.1,0,0,0-2.72,36.32Z"/>
      <path class="cls-7" d="M273.24,571.78a3.35,3.35,0,1,0-3.34-3.34A3.35,3.35,0,0,0,273.24,571.78Z"/>
      <path class="cls-7" d="M295.66,572v-1a30.56,30.56,0,0,0-49.8-23.58l0,0,19.06,19.8v13.87Zm-22.42-8.73a5.17,5.17,0,0,1,2.8.83l3.41-3.42,1.3,1.29-3.38,3.38a5.11,5.11,0,0,1,1,3.09,5.17,5.17,0,1,1-5.17-5.17Z"/>
      <path class="cls-7" d="M276.94,595.51c7.68,0,14.71,4.53,18.74,11.81h0s0-11.2,0-21.17l-49.31,13.94c-1.71,2.58-3,5.19-4.6,7.23H258.2c4.11-7.4,11.11-11.81,18.74-11.81Z"/>
      <path class="cls-7" d="M276.94,598c-6.28,0-12.1,3.45-15.82,9.3h31.65C289.1,601.55,283.26,598,276.94,598Z"/>
    </g>
    <text class="cls-5" transform="translate(240.63 623.4)">A<tspan class="cls-3" x="7.31" y="0">polo 13</tspan></text>
    <g>
      <path d="M305.69,577c1,0-7-23-7-23l-5,6.79-2,9.21,1,9,5,7,9-3Z"/>
      <g>
        <path class="cls-4" d="M316.44,568.22l-8.77-9.11a11.09,11.09,0,0,0-2.81,5c-.25,1.08-.53,3.9-.53,3.9l-3.41,6.81a1,1,0,0,0-.08.41,1,1,0,0,0,1,1h2.45v3.62c0,2.76,1.09,4.14,2.69,4.74l9.42-2.79V568.22Zm-8,2.22a1.53,1.53,0,1,1,1.52-1.52A1.53,1.53,0,0,1,308.45,570.44Z"/>
        <path class="cls-4" d="M349.66,574.54l-52.45,15.52,2.46,7.69,50-14.13c0-3.54,0-6.77,0-9.08Z"/>
        <path class="cls-4" d="M300.21,586.63a21.49,21.49,0,0,1,1.65-33.56l-1.83-1.9a24.1,24.1,0,0,0-2.72,36.32Z"/>
        <path class="cls-4" d="M327.24,571.78a3.35,3.35,0,1,0-3.34-3.34A3.35,3.35,0,0,0,327.24,571.78Z"/>
        <path class="cls-4" d="M349.66,572v-1a30.56,30.56,0,0,0-49.8-23.58l0,0,19.06,19.8v13.87Zm-22.42-8.73a5.17,5.17,0,0,1,2.8.83l3.41-3.42,1.3,1.29-3.38,3.38a5.11,5.11,0,0,1,1,3.09,5.17,5.17,0,1,1-5.17-5.17Z"/>
        <path class="cls-4" d="M330.94,595.51c7.68,0,14.71,4.53,18.74,11.81h0s0-11.2,0-21.17l-49.31,13.94c-1.71,2.58-3,5.19-4.6,7.23H312.2c4.11-7.4,11.11-11.81,18.74-11.81Z"/>
        <path class="cls-4" d="M330.94,598c-6.28,0-12.1,3.45-15.82,9.3h31.65C343.1,601.55,337.26,598,330.94,598Z"/>
      </g>
    </g>
    <g>
      <path d="M359.69,577c1,0-7-23-7-23l-5,6.79-2,9.21,1,9,5,7,9-3Z"/>
      <g>
        <path class="cls-4" d="M370.44,568.22l-8.77-9.11a11.09,11.09,0,0,0-2.81,5c-.25,1.08-.53,3.9-.53,3.9l-3.41,6.81a1,1,0,0,0-.08.41,1,1,0,0,0,1,1h2.45v3.62c0,2.76,1.09,4.14,2.69,4.74l9.42-2.79V568.22Zm-8,2.22a1.53,1.53,0,1,1,1.52-1.52A1.53,1.53,0,0,1,362.45,570.44Z"/>
        <path class="cls-4" d="M403.66,574.54l-52.45,15.52,2.46,7.69,50-14.13c0-3.54,0-6.77,0-9.08Z"/>
        <path class="cls-4" d="M354.21,586.63a21.49,21.49,0,0,1,1.65-33.56l-1.83-1.9a24.1,24.1,0,0,0-2.72,36.32Z"/>
        <path class="cls-4" d="M381.24,571.78a3.35,3.35,0,1,0-3.34-3.34A3.35,3.35,0,0,0,381.24,571.78Z"/>
        <path class="cls-4" d="M403.66,572v-1a30.56,30.56,0,0,0-49.8-23.58l0,0,19.06,19.8v13.87Zm-22.42-8.73a5.17,5.17,0,0,1,2.8.83l3.41-3.42,1.3,1.29-3.38,3.38a5.11,5.11,0,0,1,1,3.09,5.17,5.17,0,1,1-5.17-5.17Z"/>
        <path class="cls-4" d="M384.94,595.51c7.68,0,14.71,4.53,18.74,11.81h0s0-11.2,0-21.17l-49.31,13.94c-1.71,2.58-3,5.19-4.6,7.23H366.2c4.11-7.4,11.11-11.81,18.74-11.81Z"/>
        <path class="cls-4" d="M384.94,598c-6.28,0-12.1,3.45-15.82,9.3h31.65C397.1,601.55,391.26,598,384.94,598Z"/>
      </g>
    </g>
  </g>
  <g>
    <g>
      <path class="cls-4" d="M472.44,568.22l-8.77-9.11a11.09,11.09,0,0,0-2.81,5c-.25,1.08-.53,3.9-.53,3.9l-3.41,6.81a1,1,0,0,0-.08.41,1,1,0,0,0,1,1h2.45v3.62c0,2.76,1.09,4.14,2.69,4.74l9.42-2.79V568.22Zm-8,2.22a1.53,1.53,0,1,1,1.52-1.52A1.53,1.53,0,0,1,464.45,570.44Z"/>
      <path class="cls-4" d="M505.66,574.54l-52.45,15.52,2.46,7.69,50-14.13c0-3.54,0-6.77,0-9.08Z"/>
      <path class="cls-4" d="M456.21,586.63a21.49,21.49,0,0,1,1.65-33.56l-1.83-1.9a24.1,24.1,0,0,0-2.72,36.32Z"/>
      <path class="cls-4" d="M483.24,571.78a3.35,3.35,0,1,0-3.34-3.34A3.35,3.35,0,0,0,483.24,571.78Z"/>
      <path class="cls-4" d="M505.66,572v-1a30.56,30.56,0,0,0-49.8-23.58l0,0,19.06,19.8v13.87Zm-22.42-8.73a5.17,5.17,0,0,1,2.8.83l3.41-3.42,1.3,1.29-3.38,3.38a5.11,5.11,0,0,1,1,3.09,5.17,5.17,0,1,1-5.17-5.17Z"/>
      <path class="cls-4" d="M486.94,595.51c7.68,0,14.71,4.53,18.74,11.81h0s0-11.2,0-21.17l-49.31,13.94c-1.71,2.58-3,5.19-4.6,7.23H468.2c4.11-7.4,11.11-11.81,18.74-11.81Z"/>
      <path class="cls-4" d="M486.94,598c-6.28,0-12.1,3.45-15.82,9.3h31.65C499.1,601.55,493.26,598,486.94,598Z"/>
    </g>
    <text class="cls-5" transform="translate(449.63 623.4)">A<tspan class="cls-3" x="7.31" y="0">polo 14</tspan></text>
    <g>
      <path d="M515.69,577c1,0-7-23-7-23l-5,6.79-2,9.21,1,9,5,7,9-3Z"/>
      <g>
        <path class="cls-4" d="M526.44,568.22l-8.77-9.11a11.09,11.09,0,0,0-2.81,5c-.25,1.08-.53,3.9-.53,3.9l-3.41,6.81a1,1,0,0,0-.08.41,1,1,0,0,0,1,1h2.45v3.62c0,2.76,1.09,4.14,2.69,4.74l9.42-2.79V568.22Zm-8,2.22a1.53,1.53,0,1,1,1.52-1.52A1.53,1.53,0,0,1,518.45,570.44Z"/>
        <path class="cls-4" d="M559.66,574.54l-52.45,15.52,2.46,7.69,50-14.13c0-3.54,0-6.77,0-9.08Z"/>
        <path class="cls-4" d="M510.21,586.63a21.49,21.49,0,0,1,1.65-33.56l-1.83-1.9a24.1,24.1,0,0,0-2.72,36.32Z"/>
        <path class="cls-4" d="M537.24,571.78a3.35,3.35,0,1,0-3.34-3.34A3.35,3.35,0,0,0,537.24,571.78Z"/>
        <path class="cls-4" d="M559.66,572v-1a30.56,30.56,0,0,0-49.8-23.58l0,0,19.06,19.8v13.87Zm-22.42-8.73a5.17,5.17,0,0,1,2.8.83l3.41-3.42,1.3,1.29-3.38,3.38a5.11,5.11,0,0,1,1,3.09,5.17,5.17,0,1,1-5.17-5.17Z"/>
        <path class="cls-4" d="M540.94,595.51c7.68,0,14.71,4.53,18.74,11.81h0s0-11.2,0-21.17l-49.31,13.94c-1.71,2.58-3,5.19-4.6,7.23H522.2c4.11-7.4,11.11-11.81,18.74-11.81Z"/>
        <path class="cls-4" d="M540.94,598c-6.28,0-12.1,3.45-15.82,9.3h31.65C553.1,601.55,547.26,598,540.94,598Z"/>
      </g>
    </g>
    <g>
      <path d="M569.69,577c1,0-7-23-7-23l-5,6.79-2,9.21,1,9,5,7,9-3Z"/>
      <g>
        <path class="cls-4" d="M580.44,568.22l-8.77-9.11a11.09,11.09,0,0,0-2.81,5c-.25,1.08-.53,3.9-.53,3.9l-3.41,6.81a1,1,0,0,0-.08.41,1,1,0,0,0,1,1h2.45v3.62c0,2.76,1.09,4.14,2.69,4.74l9.42-2.79V568.22Zm-8,2.22a1.53,1.53,0,1,1,1.52-1.52A1.53,1.53,0,0,1,572.45,570.44Z"/>
        <path class="cls-4" d="M613.66,574.54l-52.45,15.52,2.46,7.69,50-14.13c0-3.54,0-6.77,0-9.08Z"/>
        <path class="cls-4" d="M564.21,586.63a21.49,21.49,0,0,1,1.65-33.56l-1.83-1.9a24.1,24.1,0,0,0-2.72,36.32Z"/>
        <path class="cls-4" d="M591.24,571.78a3.35,3.35,0,1,0-3.34-3.34A3.35,3.35,0,0,0,591.24,571.78Z"/>
        <path class="cls-4" d="M613.66,572v-1a30.56,30.56,0,0,0-49.8-23.58l0,0,19.06,19.8v13.87Zm-22.42-8.73a5.17,5.17,0,0,1,2.8.83l3.41-3.42,1.3,1.29-3.38,3.38a5.11,5.11,0,0,1,1,3.09,5.17,5.17,0,1,1-5.17-5.17Z"/>
        <path class="cls-4" d="M594.94,595.51c7.68,0,14.71,4.53,18.74,11.81h0s0-11.2,0-21.17l-49.31,13.94c-1.71,2.58-3,5.19-4.6,7.23H576.2c4.11-7.4,11.11-11.81,18.74-11.81Z"/>
        <path class="cls-4" d="M594.94,598c-6.28,0-12.1,3.45-15.82,9.3h31.65C607.1,601.55,601.26,598,594.94,598Z"/>
      </g>
    </g>
  </g>
  <g>
    <g>
      <path class="cls-7" d="M262.44,705.22l-8.77-9.11a11.09,11.09,0,0,0-2.81,5c-.25,1.08-.53,3.9-.53,3.9l-3.41,6.81a1,1,0,0,0-.08.41,1,1,0,0,0,1,1h2.45v3.62c0,2.76,1.09,4.14,2.69,4.74l9.42-2.79V705.22Zm-8,2.22a1.53,1.53,0,1,1,1.52-1.52A1.53,1.53,0,0,1,254.45,707.44Z"/>
      <path class="cls-7" d="M295.66,711.54l-52.45,15.52,2.46,7.69,50-14.13c0-3.54,0-6.77,0-9.08Z"/>
      <path class="cls-7" d="M246.21,723.63a21.49,21.49,0,0,1,1.65-33.56l-1.83-1.9a24.1,24.1,0,0,0-2.72,36.32Z"/>
      <path class="cls-7" d="M273.24,708.78a3.35,3.35,0,1,0-3.34-3.34A3.35,3.35,0,0,0,273.24,708.78Z"/>
      <path class="cls-7" d="M295.66,709v-1a30.56,30.56,0,0,0-49.8-23.58l0,0,19.06,19.8v13.87Zm-22.42-8.73a5.17,5.17,0,0,1,2.8.83l3.41-3.42,1.3,1.29-3.38,3.38a5.11,5.11,0,0,1,1,3.09,5.17,5.17,0,1,1-5.17-5.17Z"/>
      <path class="cls-7" d="M276.94,732.51c7.68,0,14.71,4.53,18.74,11.81h0s0-11.2,0-21.17l-49.31,13.94c-1.71,2.58-3,5.19-4.6,7.23H258.2c4.11-7.4,11.11-11.81,18.74-11.81Z"/>
      <path class="cls-7" d="M276.94,735c-6.28,0-12.1,3.45-15.82,9.3h31.65C289.1,738.55,283.26,735,276.94,735Z"/>
    </g>
    <text class="cls-5" transform="translate(240.63 760.4)">A<tspan class="cls-3" x="7.31" y="0">polo 16</tspan></text>
    <g>
      <path d="M305.69,714c1,0-7-23-7-23l-5,6.79-2,9.21,1,9,5,7,9-3Z"/>
      <g>
        <path class="cls-4" d="M316.44,705.22l-8.77-9.11a11.09,11.09,0,0,0-2.81,5c-.25,1.08-.53,3.9-.53,3.9l-3.41,6.81a1,1,0,0,0-.08.41,1,1,0,0,0,1,1h2.45v3.62c0,2.76,1.09,4.14,2.69,4.74l9.42-2.79V705.22Zm-8,2.22a1.53,1.53,0,1,1,1.52-1.52A1.53,1.53,0,0,1,308.45,707.44Z"/>
        <path class="cls-4" d="M349.66,711.54l-52.45,15.52,2.46,7.69,50-14.13c0-3.54,0-6.77,0-9.08Z"/>
        <path class="cls-4" d="M300.21,723.63a21.49,21.49,0,0,1,1.65-33.56l-1.83-1.9a24.1,24.1,0,0,0-2.72,36.32Z"/>
        <path class="cls-4" d="M327.24,708.78a3.35,3.35,0,1,0-3.34-3.34A3.35,3.35,0,0,0,327.24,708.78Z"/>
        <path class="cls-4" d="M349.66,709v-1a30.56,30.56,0,0,0-49.8-23.58l0,0,19.06,19.8v13.87Zm-22.42-8.73a5.17,5.17,0,0,1,2.8.83l3.41-3.42,1.3,1.29-3.38,3.38a5.11,5.11,0,0,1,1,3.09,5.17,5.17,0,1,1-5.17-5.17Z"/>
        <path class="cls-4" d="M330.94,732.51c7.68,0,14.71,4.53,18.74,11.81h0s0-11.2,0-21.17l-49.31,13.94c-1.71,2.58-3,5.19-4.6,7.23H312.2c4.11-7.4,11.11-11.81,18.74-11.81Z"/>
        <path class="cls-4" d="M330.94,735c-6.28,0-12.1,3.45-15.82,9.3h31.65C343.1,738.55,337.26,735,330.94,735Z"/>
      </g>
    </g>
    <g>
      <path d="M359.69,714c1,0-7-23-7-23l-5,6.79-2,9.21,1,9,5,7,9-3Z"/>
      <g>
        <path class="cls-4" d="M370.44,705.22l-8.77-9.11a11.09,11.09,0,0,0-2.81,5c-.25,1.08-.53,3.9-.53,3.9l-3.41,6.81a1,1,0,0,0-.08.41,1,1,0,0,0,1,1h2.45v3.62c0,2.76,1.09,4.14,2.69,4.74l9.42-2.79V705.22Zm-8,2.22a1.53,1.53,0,1,1,1.52-1.52A1.53,1.53,0,0,1,362.45,707.44Z"/>
        <path class="cls-4" d="M403.66,711.54l-52.45,15.52,2.46,7.69,50-14.13c0-3.54,0-6.77,0-9.08Z"/>
        <path class="cls-4" d="M354.21,723.63a21.49,21.49,0,0,1,1.65-33.56l-1.83-1.9a24.1,24.1,0,0,0-2.72,36.32Z"/>
        <path class="cls-4" d="M381.24,708.78a3.35,3.35,0,1,0-3.34-3.34A3.35,3.35,0,0,0,381.24,708.78Z"/>
        <path class="cls-4" d="M403.66,709v-1a30.56,30.56,0,0,0-49.8-23.58l0,0,19.06,19.8v13.87Zm-22.42-8.73a5.17,5.17,0,0,1,2.8.83l3.41-3.42,1.3,1.29-3.38,3.38a5.11,5.11,0,0,1,1,3.09,5.17,5.17,0,1,1-5.17-5.17Z"/>
        <path class="cls-4" d="M384.94,732.51c7.68,0,14.71,4.53,18.74,11.81h0s0-11.2,0-21.17l-49.31,13.94c-1.71,2.58-3,5.19-4.6,7.23H366.2c4.11-7.4,11.11-11.81,18.74-11.81Z"/>
        <path class="cls-4" d="M384.94,735c-6.28,0-12.1,3.45-15.82,9.3h31.65C397.1,738.55,391.26,735,384.94,735Z"/>
      </g>
    </g>
  </g>
  <g>
    <g>
      <path class="cls-7" d="M472.44,705.22l-8.77-9.11a11.09,11.09,0,0,0-2.81,5c-.25,1.08-.53,3.9-.53,3.9l-3.41,6.81a1,1,0,0,0-.08.41,1,1,0,0,0,1,1h2.45v3.62c0,2.76,1.09,4.14,2.69,4.74l9.42-2.79V705.22Zm-8,2.22a1.53,1.53,0,1,1,1.52-1.52A1.53,1.53,0,0,1,464.45,707.44Z"/>
      <path class="cls-7" d="M505.66,711.54l-52.45,15.52,2.46,7.69,50-14.13c0-3.54,0-6.77,0-9.08Z"/>
      <path class="cls-7" d="M456.21,723.63a21.49,21.49,0,0,1,1.65-33.56l-1.83-1.9a24.1,24.1,0,0,0-2.72,36.32Z"/>
      <path class="cls-7" d="M483.24,708.78a3.35,3.35,0,1,0-3.34-3.34A3.35,3.35,0,0,0,483.24,708.78Z"/>
      <path class="cls-7" d="M505.66,709v-1a30.56,30.56,0,0,0-49.8-23.58l0,0,19.06,19.8v13.87Zm-22.42-8.73a5.17,5.17,0,0,1,2.8.83l3.41-3.42,1.3,1.29-3.38,3.38a5.11,5.11,0,0,1,1,3.09,5.17,5.17,0,1,1-5.17-5.17Z"/>
      <path class="cls-7" d="M486.94,732.51c7.68,0,14.71,4.53,18.74,11.81h0s0-11.2,0-21.17l-49.31,13.94c-1.71,2.58-3,5.19-4.6,7.23H468.2c4.11-7.4,11.11-11.81,18.74-11.81Z"/>
      <path class="cls-7" d="M486.94,735c-6.28,0-12.1,3.45-15.82,9.3h31.65C499.1,738.55,493.26,735,486.94,735Z"/>
    </g>
    <text class="cls-5" transform="translate(449.63 760.4)">A<tspan class="cls-3" x="7.31" y="0">polo 17</tspan></text>
    <g>
      <path d="M515.69,714c1,0-7-23-7-23l-5,6.79-2,9.21,1,9,5,7,9-3Z"/>
      <g>
        <path class="cls-4" d="M526.44,705.22l-8.77-9.11a11.09,11.09,0,0,0-2.81,5c-.25,1.08-.53,3.9-.53,3.9l-3.41,6.81a1,1,0,0,0-.08.41,1,1,0,0,0,1,1h2.45v3.62c0,2.76,1.09,4.14,2.69,4.74l9.42-2.79V705.22Zm-8,2.22a1.53,1.53,0,1,1,1.52-1.52A1.53,1.53,0,0,1,518.45,707.44Z"/>
        <path class="cls-4" d="M559.66,711.54l-52.45,15.52,2.46,7.69,50-14.13c0-3.54,0-6.77,0-9.08Z"/>
        <path class="cls-4" d="M510.21,723.63a21.49,21.49,0,0,1,1.65-33.56l-1.83-1.9a24.1,24.1,0,0,0-2.72,36.32Z"/>
        <path class="cls-4" d="M537.24,708.78a3.35,3.35,0,1,0-3.34-3.34A3.35,3.35,0,0,0,537.24,708.78Z"/>
        <path class="cls-4" d="M559.66,709v-1a30.56,30.56,0,0,0-49.8-23.58l0,0,19.06,19.8v13.87Zm-22.42-8.73a5.17,5.17,0,0,1,2.8.83l3.41-3.42,1.3,1.29-3.38,3.38a5.11,5.11,0,0,1,1,3.09,5.17,5.17,0,1,1-5.17-5.17Z"/>
        <path class="cls-4" d="M540.94,732.51c7.68,0,14.71,4.53,18.74,11.81h0s0-11.2,0-21.17l-49.31,13.94c-1.71,2.58-3,5.19-4.6,7.23H522.2c4.11-7.4,11.11-11.81,18.74-11.81Z"/>
        <path class="cls-4" d="M540.94,735c-6.28,0-12.1,3.45-15.82,9.3h31.65C553.1,738.55,547.26,735,540.94,735Z"/>
      </g>
    </g>
    <g>
      <path d="M569.69,714c1,0-7-23-7-23l-5,6.79-2,9.21,1,9,5,7,9-3Z"/>
      <g>
        <path class="cls-4" d="M580.44,705.22l-8.77-9.11a11.09,11.09,0,0,0-2.81,5c-.25,1.08-.53,3.9-.53,3.9l-3.41,6.81a1,1,0,0,0-.08.41,1,1,0,0,0,1,1h2.45v3.62c0,2.76,1.09,4.14,2.69,4.74l9.42-2.79V705.22Zm-8,2.22a1.53,1.53,0,1,1,1.52-1.52A1.53,1.53,0,0,1,572.45,707.44Z"/>
        <path class="cls-4" d="M613.66,711.54l-52.45,15.52,2.46,7.69,50-14.13c0-3.54,0-6.77,0-9.08Z"/>
        <path class="cls-4" d="M564.21,723.63a21.49,21.49,0,0,1,1.65-33.56l-1.83-1.9a24.1,24.1,0,0,0-2.72,36.32Z"/>
        <path class="cls-4" d="M591.24,708.78a3.35,3.35,0,1,0-3.34-3.34A3.35,3.35,0,0,0,591.24,708.78Z"/>
        <path class="cls-4" d="M613.66,709v-1a30.56,30.56,0,0,0-49.8-23.58l0,0,19.06,19.8v13.87Zm-22.42-8.73a5.17,5.17,0,0,1,2.8.83l3.41-3.42,1.3,1.29-3.38,3.38a5.11,5.11,0,0,1,1,3.09,5.17,5.17,0,1,1-5.17-5.17Z"/>
        <path class="cls-4" d="M594.94,732.51c7.68,0,14.71,4.53,18.74,11.81h0s0-11.2,0-21.17l-49.31,13.94c-1.71,2.58-3,5.19-4.6,7.23H576.2c4.11-7.4,11.11-11.81,18.74-11.81Z"/>
        <path class="cls-4" d="M594.94,735c-6.28,0-12.1,3.45-15.82,9.3h31.65C607.1,738.55,601.26,735,594.94,735Z"/>
      </g>
    </g>
  </g>
  <g>
    <text class="cls-8" transform="translate(78.82 145.38)">No sob<tspan class="cls-9" x="44.49" y="0">r</tspan><tspan class="cls-10" x="49.1" y="0">e</tspan><tspan x="56.42" y="0">vivie</tspan><tspan class="cls-11" x="84.2" y="0">r</tspan><tspan x="88.8" y="0">on</tspan></text>
    <rect class="cls-1" x="43" y="129" width="23" height="23"/>
  </g>
  <g>
    <text class="cls-8" transform="translate(288.82 146.21)">Sob<tspan class="cls-9" x="24.14" y="0">r</tspan><tspan class="cls-10" x="28.75" y="0">e</tspan><tspan x="36.08" y="0">vivie</tspan><tspan class="cls-11" x="63.85" y="0">r</tspan><tspan x="68.46" y="0">on</tspan></text>
    <rect class="cls-4" x="253" y="129" width="23" height="23"/>
  </g>
  <g>
    <text class="cls-8" transform="translate(499.38 147.38)"><tspan class="cls-12">V</tspan><tspan x="8.59" y="0">olvie</tspan><tspan class="cls-11" x="37.57" y="0">r</tspan><tspan x="42.17" y="0">on a viajar</tspan></text>
    <rect class="cls-6" x="463.56" y="131" width="23" height="23"/>
  </g>
  <g>
    <text class="cls-8" transform="translate(498.82 180.88)">Dónde <tspan class="cls-13" x="43.67" y="0">v</tspan><tspan x="50.35" y="0">olvie</tspan><tspan class="cls-11" x="79.32" y="0">r</tspan><tspan x="83.92" y="0">on </tspan><tspan x="0" y="16.8">a viajar</tspan></text>
    <rect class="cls-7" x="463.5" y="172.5" width="23" height="23"/>
  </g>
</svg>
