<?xml version="1.0" encoding="utf-8"?>
<!-- Generator: Adobe Illustrator 22.0.1, SVG Export Plug-In . SVG Version: 6.00 Build 0)  -->
<svg version="1.1" id="Capa_1" xmlns="http://www.w3.org/2000/svg" xmlns:xlink="http://www.w3.org/1999/xlink" x="0px" y="0px"
	 viewBox="0 0 1024 602" style="enable-background:new 0 0 1024 602;" xml:space="preserve">
<style type="text/css">
	.st0{fill:#6B6B6B;}
	.st1{font-family:'ArialMT';}
	.st2{font-size:12px;}
	.st3{fill:#FFFFFF;}
	.st4{fill:#FF8327;}
	.st5{fill:none;stroke:#FF8327;stroke-miterlimit:10;}
	.st6{font-family:'Roboto-Regular';}
	.st7{font-size:14px;}
</style>
<title>Tripulacion_cantidad</title>
<g id="Capa_1_1_">
	<g>
		<g>
			<path class="st0" d="M341.7,73.5l-52.5,15.5l2.5,7.7l50-14.1C341.7,79.1,341.7,75.8,341.7,73.5L341.7,73.5z"/>
			<path class="st0" d="M292.2,85.6c-8.9-7.8-9.8-21.4-1.9-30.3c1.1-1.2,2.3-2.3,3.6-3.2l-1.8-1.9c-10.7,7.9-12.9,23-5,33.7
				c0.7,0.9,1.4,1.8,2.2,2.6L292.2,85.6z"/>
			<path class="st0" d="M319.2,70.8c1.9,0,3.4-1.5,3.4-3.3c0-1.9-1.5-3.4-3.3-3.4c-1.9,0-3.4,1.5-3.4,3.3c0,0,0,0,0,0
				C315.9,69.3,317.4,70.8,319.2,70.8z"/>
			<path class="st0" d="M341.7,71v-1c-0.1-16.9-13.8-30.5-30.7-30.4c-6.9,0-13.7,2.4-19.1,6.8l0,0l19.1,19.8v13.9L341.7,71z
				 M319.2,62.3c1,0,2,0.3,2.8,0.8l3.4-3.4l1.3,1.3l-3.4,3.4c0.7,0.9,1,2,1,3.1c0,2.9-2.3,5.2-5.2,5.2c-2.9,0-5.2-2.3-5.2-5.2
				C314,64.6,316.3,62.3,319.2,62.3L319.2,62.3z"/>
			<path class="st0" d="M322.9,94.5c7.7,0,14.7,4.5,18.7,11.8l0,0c0,0,0-11.2,0-21.2l-49.3,13.9c-1.7,2.6-3,5.2-4.6,7.2h16.4
				C308.3,98.9,315.3,94.5,322.9,94.5z"/>
			<path class="st0" d="M322.9,97c-6.3,0-12.1,3.5-15.8,9.3h31.6C335.1,100.5,329.3,97,322.9,97z"/>
		</g>
		<text transform="matrix(1 0 0 1 285.63 122.4)" class="st0 st1 st2">A</text>
		<text transform="matrix(1 0 0 1 292.94 122.4)" class="st0 st1 st2">polo 1</text>
		<g>
			<path d="M351.7,76c1,0-7-23-7-23l-5,6.8l-2,9.2l1,9l5,7l9-3L351.7,76z"/>
			<path class="st0" d="M395.7,73.5l-52.5,15.5l2.5,7.7l50-14.1C395.7,79.1,395.7,75.8,395.7,73.5L395.7,73.5z"/>
			<path class="st0" d="M346.2,85.6c-8.9-7.8-9.8-21.4-1.9-30.3c1.1-1.2,2.3-2.3,3.6-3.2l-1.8-1.9c-10.7,7.9-12.9,23-5,33.7
				c0.7,0.9,1.4,1.8,2.2,2.6L346.2,85.6z"/>
			<path class="st0" d="M373.2,70.8c1.9,0,3.4-1.5,3.4-3.3c0-1.9-1.5-3.4-3.3-3.4c-1.9,0-3.4,1.5-3.4,3.3c0,0,0,0,0,0
				C369.9,69.3,371.4,70.8,373.2,70.8z"/>
			<path class="st0" d="M395.7,71v-1c-0.1-16.9-13.8-30.5-30.7-30.4c-6.9,0-13.7,2.4-19.1,6.8l0,0l19.1,19.8v13.9L395.7,71z
				 M373.2,62.3c1,0,2,0.3,2.8,0.8l3.4-3.4l1.3,1.3l-3.4,3.4c0.7,0.9,1,2,1,3.1c0,2.9-2.3,5.2-5.2,5.2c-2.9,0-5.2-2.3-5.2-5.2
				C368,64.6,370.3,62.3,373.2,62.3L373.2,62.3z"/>
			<path class="st0" d="M376.9,94.5c7.7,0,14.7,4.5,18.7,11.8l0,0c0,0,0-11.2,0-21.2l-49.3,13.9c-1.7,2.6-3,5.2-4.6,7.2h16.4
				C362.3,98.9,369.3,94.5,376.9,94.5z"/>
			<path class="st0" d="M376.9,97c-6.3,0-12.1,3.5-15.8,9.3h31.6C389.1,100.5,383.3,97,376.9,97z"/>
		</g>
		<g>
			<path d="M405.7,76c1,0-7-23-7-23l-5,6.8l-2,9.2l1,9l5,7l9-3L405.7,76z"/>
			<g>
				<path class="st0" d="M449.7,73.5l-52.5,15.5l2.5,7.7l50-14.1C449.7,79.1,449.7,75.8,449.7,73.5L449.7,73.5z"/>
				<path class="st0" d="M400.2,85.6c-8.9-7.8-9.8-21.4-1.9-30.3c1.1-1.2,2.3-2.3,3.6-3.2l-1.8-1.9c-10.7,7.9-12.9,23-5,33.7
					c0.7,0.9,1.4,1.8,2.2,2.6L400.2,85.6z"/>
				<path class="st0" d="M427.2,70.8c1.9,0,3.4-1.5,3.4-3.3c0-1.9-1.5-3.4-3.3-3.4c-1.9,0-3.4,1.5-3.4,3.3c0,0,0,0,0,0
					C423.9,69.3,425.4,70.8,427.2,70.8z"/>
				<path class="st0" d="M449.7,71v-1c-0.1-16.9-13.8-30.5-30.7-30.4c-6.9,0-13.7,2.4-19.1,6.8l0,0l19.1,19.8v13.9L449.7,71z
					 M427.2,62.3c1,0,2,0.3,2.8,0.8l3.4-3.4l1.3,1.3l-3.4,3.4c0.7,0.9,1,2,1,3.1c0,2.9-2.3,5.2-5.2,5.2c-2.9,0-5.2-2.3-5.2-5.2
					C422,64.6,424.3,62.3,427.2,62.3L427.2,62.3z"/>
				<path class="st0" d="M430.9,94.5c7.7,0,14.7,4.5,18.7,11.8l0,0c0,0,0-11.2,0-21.2l-49.3,13.9c-1.7,2.6-3,5.2-4.6,7.2h16.4
					C416.3,98.9,423.3,94.5,430.9,94.5z"/>
				<path class="st0" d="M430.9,97c-6.3,0-12.1,3.5-15.8,9.3h31.6C443.1,100.5,437.3,97,430.9,97z"/>
			</g>
		</g>
	</g>
	<g>
		<g>
			<path class="st3" d="M308.4,204.2l-8.8-9.1c-1.4,1.4-2.3,3.1-2.8,5c-0.2,1.1-0.5,3.9-0.5,3.9l-3.4,6.8c-0.1,0.1-0.1,0.3-0.1,0.4
				c0,0.6,0.4,1,1,1h2.5v3.6c0,2.8,1.1,4.1,2.7,4.7l9.4-2.8L308.4,204.2L308.4,204.2z M300.4,206.4c-0.8,0-1.5-0.7-1.5-1.5
				s0.7-1.5,1.5-1.5s1.5,0.7,1.5,1.5c0,0,0,0,0,0C302,205.8,301.3,206.4,300.4,206.4L300.4,206.4z"/>
			<path class="st3" d="M341.7,210.5l-52.5,15.5l2.5,7.7l50-14.1C341.7,216.1,341.7,212.9,341.7,210.5L341.7,210.5z"/>
			<path class="st3" d="M292.2,222.6c-8.9-7.8-9.8-21.4-1.9-30.3c1.1-1.2,2.3-2.3,3.6-3.2l-1.8-1.9c-10.7,7.9-12.9,23-5,33.7
				c0.7,0.9,1.4,1.8,2.2,2.6L292.2,222.6z"/>
			<path class="st3" d="M319.2,207.8c1.9,0,3.4-1.5,3.4-3.3c0-1.9-1.5-3.4-3.3-3.4c-1.9,0-3.4,1.5-3.4,3.3c0,0,0,0,0,0
				C315.9,206.3,317.4,207.8,319.2,207.8z"/>
			<path class="st3" d="M341.7,208v-1c-0.1-16.9-13.8-30.5-30.7-30.4c-6.9,0-13.7,2.4-19.1,6.8l0,0l19.1,19.8v13.9L341.7,208z
				 M319.2,199.3c1,0,2,0.3,2.8,0.8l3.4-3.4l1.3,1.3l-3.4,3.4c0.7,0.9,1,2,1,3.1c0,2.9-2.3,5.2-5.2,5.2s-5.2-2.3-5.2-5.2
				C314,201.6,316.3,199.3,319.2,199.3L319.2,199.3z"/>
			<path class="st3" d="M322.9,231.5c7.7,0,14.7,4.5,18.7,11.8l0,0c0,0,0-11.2,0-21.2l-49.3,13.9c-1.7,2.6-3,5.2-4.6,7.2h16.4
				C308.3,235.9,315.3,231.5,322.9,231.5z"/>
			<path class="st3" d="M322.9,234c-6.3,0-12.1,3.5-15.8,9.3h31.6C335.1,237.5,329.3,234,322.9,234z"/>
		</g>
		<text transform="matrix(1 0 0 1 285.63 259.4)" class="st3 st1 st2">A</text>
		<text transform="matrix(1 0 0 1 292.94 259.4)" class="st3 st1 st2">polo 9</text>
		<g>
			<path d="M351.7,212c1,0-7-23-7-23l-5,6.8l-2,9.2l1,9l5,7l9-3L351.7,212z"/>
			<g>
				<path class="st4" d="M362.4,204.2l-8.8-9.1c-1.4,1.4-2.3,3.1-2.8,5c-0.2,1.1-0.5,3.9-0.5,3.9l-3.4,6.8c-0.1,0.1-0.1,0.3-0.1,0.4
					c0,0.6,0.4,1,1,1h2.5v3.6c0,2.8,1.1,4.1,2.7,4.7l9.4-2.8L362.4,204.2L362.4,204.2z M354.4,206.4c-0.8,0-1.5-0.7-1.5-1.5
					s0.7-1.5,1.5-1.5s1.5,0.7,1.5,1.5c0,0,0,0,0,0C356,205.8,355.3,206.4,354.4,206.4L354.4,206.4z"/>
				<path class="st4" d="M395.7,210.5l-52.5,15.5l2.5,7.7l50-14.1C395.7,216.1,395.7,212.9,395.7,210.5L395.7,210.5z"/>
				<path class="st4" d="M346.2,222.6c-8.9-7.8-9.8-21.4-1.9-30.3c1.1-1.2,2.3-2.3,3.6-3.2l-1.8-1.9c-10.7,7.9-12.9,23-5,33.7
					c0.7,0.9,1.4,1.8,2.2,2.6L346.2,222.6z"/>
				<path class="st4" d="M373.2,207.8c1.9,0,3.4-1.5,3.4-3.3c0-1.9-1.5-3.4-3.3-3.4c-1.9,0-3.4,1.5-3.4,3.3c0,0,0,0,0,0
					C369.9,206.3,371.4,207.8,373.2,207.8z"/>
				<path class="st4" d="M395.7,208v-1c-0.1-16.9-13.8-30.5-30.7-30.4c-6.9,0-13.7,2.4-19.1,6.8l0,0l19.1,19.8v13.9L395.7,208z
					 M373.2,199.3c1,0,2,0.3,2.8,0.8l3.4-3.4l1.3,1.3l-3.4,3.4c0.7,0.9,1,2,1,3.1c0,2.9-2.3,5.2-5.2,5.2s-5.2-2.3-5.2-5.2
					C368,201.6,370.3,199.3,373.2,199.3L373.2,199.3z"/>
				<path class="st4" d="M376.9,231.5c7.7,0,14.7,4.5,18.7,11.8l0,0c0,0,0-11.2,0-21.2l-49.3,13.9c-1.7,2.6-3,5.2-4.6,7.2h16.4
					C362.3,235.9,369.3,231.5,376.9,231.5z"/>
				<path class="st4" d="M376.9,234c-6.3,0-12.1,3.5-15.8,9.3h31.6C389.1,237.5,383.3,234,376.9,234z"/>
			</g>
		</g>
		<g>
			<path d="M405.7,212c1,0-7-23-7-23l-5,6.8l-2,9.2l1,9l5,7l9-3L405.7,212z"/>
			<g>
				<path class="st3" d="M416.4,204.2l-8.8-9.1c-1.4,1.4-2.3,3.1-2.8,5c-0.2,1.1-0.5,3.9-0.5,3.9l-3.4,6.8c-0.1,0.1-0.1,0.3-0.1,0.4
					c0,0.6,0.4,1,1,1h2.5v3.6c0,2.8,1.1,4.1,2.7,4.7l9.4-2.8L416.4,204.2L416.4,204.2z M408.4,206.4c-0.8,0-1.5-0.7-1.5-1.5
					s0.7-1.5,1.5-1.5s1.5,0.7,1.5,1.5c0,0,0,0,0,0C410,205.8,409.3,206.4,408.4,206.4L408.4,206.4z"/>
				<path class="st3" d="M449.7,210.5l-52.5,15.5l2.5,7.7l50-14.1C449.7,216.1,449.7,212.9,449.7,210.5L449.7,210.5z"/>
				<path class="st3" d="M400.2,222.6c-8.9-7.8-9.8-21.4-1.9-30.3c1.1-1.2,2.3-2.3,3.6-3.2l-1.8-1.9c-10.7,7.9-12.9,23-5,33.7
					c0.7,0.9,1.4,1.8,2.2,2.6L400.2,222.6z"/>
				<path class="st3" d="M427.2,207.8c1.9,0,3.4-1.5,3.4-3.3c0-1.9-1.5-3.4-3.3-3.4c-1.9,0-3.4,1.5-3.4,3.3c0,0,0,0,0,0
					C423.9,206.3,425.4,207.8,427.2,207.8z"/>
				<path class="st3" d="M449.7,208v-1c-0.1-16.9-13.8-30.5-30.7-30.4c-6.9,0-13.7,2.4-19.1,6.8l0,0l19.1,19.8v13.9L449.7,208z
					 M427.2,199.3c1,0,2,0.3,2.8,0.8l3.4-3.4l1.3,1.3l-3.4,3.4c0.7,0.9,1,2,1,3.1c0,2.9-2.3,5.2-5.2,5.2s-5.2-2.3-5.2-5.2
					C422,201.6,424.3,199.3,427.2,199.3L427.2,199.3z"/>
				<path class="st3" d="M430.9,231.5c7.7,0,14.7,4.5,18.7,11.8l0,0c0,0,0-11.2,0-21.2l-49.3,13.9c-1.7,2.6-3,5.2-4.6,7.2h16.4
					C416.3,235.9,423.3,231.5,430.9,231.5z"/>
				<path class="st3" d="M430.9,234c-6.3,0-12.1,3.5-15.8,9.3h31.6C443.1,237.5,437.3,234,430.9,234z"/>
			</g>
		</g>
	</g>
	<g>
		<g>
			<path class="st3" d="M308.4,341.2l-8.8-9.1c-1.4,1.4-2.3,3.1-2.8,5c-0.2,1.1-0.5,3.9-0.5,3.9l-3.4,6.8c-0.1,0.1-0.1,0.3-0.1,0.4
				c0,0.6,0.4,1,1,1h2.5v3.6c0,2.8,1.1,4.1,2.7,4.7l9.4-2.8L308.4,341.2L308.4,341.2z M300.4,343.4c-0.8,0-1.5-0.7-1.5-1.5
				s0.7-1.5,1.5-1.5s1.5,0.7,1.5,1.5c0,0,0,0,0,0C302,342.8,301.3,343.4,300.4,343.4L300.4,343.4z"/>
			<path class="st3" d="M341.7,347.5l-52.5,15.5l2.5,7.7l50-14.1C341.7,353.1,341.7,349.8,341.7,347.5L341.7,347.5z"/>
			<path class="st3" d="M292.2,359.6c-8.9-7.8-9.8-21.4-1.9-30.3c1.1-1.2,2.3-2.3,3.6-3.2l-1.8-1.9c-10.7,7.9-12.9,23-5,33.7
				c0.7,0.9,1.4,1.8,2.2,2.6L292.2,359.6z"/>
			<path class="st3" d="M319.2,344.8c1.9,0,3.4-1.5,3.4-3.3c0-1.9-1.5-3.4-3.3-3.4c-1.9,0-3.4,1.5-3.4,3.3c0,0,0,0,0,0
				C315.9,343.3,317.4,344.8,319.2,344.8z"/>
			<path class="st3" d="M341.7,345v-1c-0.1-16.9-13.8-30.5-30.7-30.4c-6.9,0-13.7,2.4-19.1,6.8l0,0l19.1,19.8v13.9L341.7,345z
				 M319.2,336.3c1,0,2,0.3,2.8,0.8l3.4-3.4l1.3,1.3l-3.4,3.4c0.7,0.9,1,2,1,3.1c0,2.9-2.3,5.2-5.2,5.2c-2.9,0-5.2-2.3-5.2-5.2
				C314,338.6,316.3,336.3,319.2,336.3L319.2,336.3z"/>
			<path class="st3" d="M322.9,368.5c7.7,0,14.7,4.5,18.7,11.8l0,0c0,0,0-11.2,0-21.2l-49.3,13.9c-1.7,2.6-3,5.2-4.6,7.2h16.4
				C308.3,372.9,315.3,368.5,322.9,368.5z"/>
			<path class="st3" d="M322.9,371c-6.3,0-12.1,3.5-15.8,9.3h31.6C335.1,374.5,329.3,371,322.9,371z"/>
		</g>
		<text transform="matrix(1 0 0 1 285.63 396.4)" class="st3 st1 st2">A</text>
		<text transform="matrix(1 0 0 1 292.94 396.4)" class="st3 st1 st2">polo 12</text>
		<g>
			<path d="M351.7,350c1,0-7-23-7-23l-5,6.8l-2,9.2l1,9l5,7l9-3L351.7,350z"/>
			<g>
				<path class="st3" d="M362.4,341.2l-8.8-9.1c-1.4,1.4-2.3,3.1-2.8,5c-0.2,1.1-0.5,3.9-0.5,3.9l-3.4,6.8c-0.1,0.1-0.1,0.3-0.1,0.4
					c0,0.6,0.4,1,1,1h2.5v3.6c0,2.8,1.1,4.1,2.7,4.7l9.4-2.8L362.4,341.2L362.4,341.2z M354.4,343.4c-0.8,0-1.5-0.7-1.5-1.5
					s0.7-1.5,1.5-1.5s1.5,0.7,1.5,1.5c0,0,0,0,0,0C356,342.8,355.3,343.4,354.4,343.4L354.4,343.4z"/>
				<path class="st3" d="M395.7,347.5l-52.5,15.5l2.5,7.7l50-14.1C395.7,353.1,395.7,349.8,395.7,347.5L395.7,347.5z"/>
				<path class="st3" d="M346.2,359.6c-8.9-7.8-9.8-21.4-1.9-30.3c1.1-1.2,2.3-2.3,3.6-3.2l-1.8-1.9c-10.7,7.9-12.9,23-5,33.7
					c0.7,0.9,1.4,1.8,2.2,2.6L346.2,359.6z"/>
				<path class="st3" d="M373.2,344.8c1.9,0,3.4-1.5,3.4-3.3c0-1.9-1.5-3.4-3.3-3.4c-1.9,0-3.4,1.5-3.4,3.3c0,0,0,0,0,0
					C369.9,343.3,371.4,344.8,373.2,344.8z"/>
				<path class="st3" d="M395.7,345v-1c-0.1-16.9-13.8-30.5-30.7-30.4c-6.9,0-13.7,2.4-19.1,6.8l0,0l19.1,19.8v13.9L395.7,345z
					 M373.2,336.3c1,0,2,0.3,2.8,0.8l3.4-3.4l1.3,1.3l-3.4,3.4c0.7,0.9,1,2,1,3.1c0,2.9-2.3,5.2-5.2,5.2c-2.9,0-5.2-2.3-5.2-5.2
					C368,338.6,370.3,336.3,373.2,336.3L373.2,336.3z"/>
				<path class="st3" d="M376.9,368.5c7.7,0,14.7,4.5,18.7,11.8l0,0c0,0,0-11.2,0-21.2l-49.3,13.9c-1.7,2.6-3,5.2-4.6,7.2h16.4
					C362.3,372.9,369.3,368.5,376.9,368.5z"/>
				<path class="st3" d="M376.9,371c-6.3,0-12.1,3.5-15.8,9.3h31.6C389.1,374.5,383.3,371,376.9,371z"/>
			</g>
		</g>
		<g>
			<path d="M405.7,350c1,0-7-23-7-23l-5,6.8l-2,9.2l1,9l5,7l9-3L405.7,350z"/>
			<g>
				<path class="st3" d="M416.4,341.2l-8.8-9.1c-1.4,1.4-2.3,3.1-2.8,5c-0.2,1.1-0.5,3.9-0.5,3.9l-3.4,6.8c-0.1,0.1-0.1,0.3-0.1,0.4
					c0,0.6,0.4,1,1,1h2.5v3.6c0,2.8,1.1,4.1,2.7,4.7l9.4-2.8L416.4,341.2L416.4,341.2z M408.4,343.4c-0.8,0-1.5-0.7-1.5-1.5
					s0.7-1.5,1.5-1.5s1.5,0.7,1.5,1.5c0,0,0,0,0,0C410,342.8,409.3,343.4,408.4,343.4L408.4,343.4z"/>
				<path class="st3" d="M449.7,347.5l-52.5,15.5l2.5,7.7l50-14.1C449.7,353.1,449.7,349.8,449.7,347.5L449.7,347.5z"/>
				<path class="st3" d="M400.2,359.6c-8.9-7.8-9.8-21.4-1.9-30.3c1.1-1.2,2.3-2.3,3.6-3.2l-1.8-1.9c-10.7,7.9-12.9,23-5,33.7
					c0.7,0.9,1.4,1.8,2.2,2.6L400.2,359.6z"/>
				<path class="st3" d="M427.2,344.8c1.9,0,3.4-1.5,3.4-3.3c0-1.9-1.5-3.4-3.3-3.4c-1.9,0-3.4,1.5-3.4,3.3c0,0,0,0,0,0
					C423.9,343.3,425.4,344.8,427.2,344.8z"/>
				<path class="st3" d="M449.7,345v-1c-0.1-16.9-13.8-30.5-30.7-30.4c-6.9,0-13.7,2.4-19.1,6.8l0,0l19.1,19.8v13.9L449.7,345z
					 M427.2,336.3c1,0,2,0.3,2.8,0.8l3.4-3.4l1.3,1.3l-3.4,3.4c0.7,0.9,1,2,1,3.1c0,2.9-2.3,5.2-5.2,5.2c-2.9,0-5.2-2.3-5.2-5.2
					C422,338.6,424.3,336.3,427.2,336.3L427.2,336.3z"/>
				<path class="st3" d="M430.9,368.5c7.7,0,14.7,4.5,18.7,11.8l0,0c0,0,0-11.2,0-21.2l-49.3,13.9c-1.7,2.6-3,5.2-4.6,7.2h16.4
					C416.3,372.9,423.3,368.5,430.9,368.5z"/>
				<path class="st3" d="M430.9,371c-6.3,0-12.1,3.5-15.8,9.3h31.6C443.1,374.5,437.3,371,430.9,371z"/>
			</g>
		</g>
	</g>
	<g>
		<g>
			<path class="st5" d="M308.4,478.2l-8.8-9.1c-1.4,1.4-2.3,3.1-2.8,5c-0.2,1.1-0.5,3.9-0.5,3.9l-3.4,6.8c-0.1,0.1-0.1,0.3-0.1,0.4
				c0,0.6,0.4,1,1,1h2.5v3.6c0,2.8,1.1,4.1,2.7,4.7l9.4-2.8L308.4,478.2L308.4,478.2z M300.4,480.4c-0.8,0-1.5-0.7-1.5-1.5
				c0-0.8,0.7-1.5,1.5-1.5s1.5,0.7,1.5,1.5c0,0,0,0,0,0C302,479.8,301.3,480.4,300.4,480.4L300.4,480.4z"/>
			<path class="st5" d="M341.7,484.5l-52.5,15.5l2.5,7.7l50-14.1C341.7,490.1,341.7,486.8,341.7,484.5L341.7,484.5z"/>
			<path class="st5" d="M292.2,496.6c-8.9-7.8-9.8-21.4-1.9-30.3c1.1-1.2,2.3-2.3,3.6-3.2l-1.8-1.9c-10.7,7.9-12.9,23-5,33.7
				c0.7,0.9,1.4,1.8,2.2,2.6L292.2,496.6z"/>
			<path class="st5" d="M319.2,481.8c1.9,0,3.4-1.5,3.4-3.3c0-1.9-1.5-3.4-3.3-3.4c-1.9,0-3.4,1.5-3.4,3.3c0,0,0,0,0,0
				C315.9,480.3,317.4,481.8,319.2,481.8z"/>
			<path class="st5" d="M341.7,482v-1c-0.1-16.9-13.8-30.5-30.7-30.4c-6.9,0-13.7,2.4-19.1,6.8l0,0l19.1,19.8v13.9L341.7,482z
				 M319.2,473.3c1,0,2,0.3,2.8,0.8l3.4-3.4l1.3,1.3l-3.4,3.4c0.7,0.9,1,2,1,3.1c0,2.9-2.3,5.2-5.2,5.2c-2.9,0-5.2-2.3-5.2-5.2
				C314,475.6,316.3,473.3,319.2,473.3L319.2,473.3L319.2,473.3z"/>
			<path class="st5" d="M322.9,505.5c7.7,0,14.7,4.5,18.7,11.8l0,0c0,0,0-11.2,0-21.2l-49.3,13.9c-1.7,2.6-3,5.2-4.6,7.2h16.4
				C308.3,509.9,315.3,505.5,322.9,505.5z"/>
			<path class="st5" d="M322.9,508c-6.3,0-12.1,3.5-15.8,9.3h31.6C335.1,511.5,329.3,508,322.9,508z"/>
		</g>
		<text transform="matrix(1 0 0 1 285.63 533.4)" class="st3 st1 st2">A</text>
		<text transform="matrix(1 0 0 1 292.94 533.4)" class="st3 st1 st2">polo 15</text>
		<g>
			<path d="M351.7,486c1,0-7-23-7-23l-5,6.8l-2,9.2l1,9l5,7l9-3L351.7,486z"/>
			<g>
				<path class="st3" d="M362.4,478.2l-8.8-9.1c-1.4,1.4-2.3,3.1-2.8,5c-0.2,1.1-0.5,3.9-0.5,3.9l-3.4,6.8c-0.1,0.1-0.1,0.3-0.1,0.4
					c0,0.6,0.4,1,1,1h2.5v3.6c0,2.8,1.1,4.1,2.7,4.7l9.4-2.8L362.4,478.2L362.4,478.2z M354.4,480.4c-0.8,0-1.5-0.7-1.5-1.5
					c0-0.8,0.7-1.5,1.5-1.5s1.5,0.7,1.5,1.5c0,0,0,0,0,0C356,479.8,355.3,480.4,354.4,480.4L354.4,480.4z"/>
				<path class="st3" d="M395.7,484.5l-52.5,15.5l2.5,7.7l50-14.1C395.7,490.1,395.7,486.8,395.7,484.5L395.7,484.5z"/>
				<path class="st3" d="M346.2,496.6c-8.9-7.8-9.8-21.4-1.9-30.3c1.1-1.2,2.3-2.3,3.6-3.2l-1.8-1.9c-10.7,7.9-12.9,23-5,33.7
					c0.7,0.9,1.4,1.8,2.2,2.6L346.2,496.6z"/>
				<path class="st3" d="M373.2,481.8c1.9,0,3.4-1.5,3.4-3.3c0-1.9-1.5-3.4-3.3-3.4c-1.9,0-3.4,1.5-3.4,3.3c0,0,0,0,0,0
					C369.9,480.3,371.4,481.8,373.2,481.8z"/>
				<path class="st3" d="M395.7,482v-1c-0.1-16.9-13.8-30.5-30.7-30.4c-6.9,0-13.7,2.4-19.1,6.8l0,0l19.1,19.8v13.9L395.7,482z
					 M373.2,473.3c1,0,2,0.3,2.8,0.8l3.4-3.4l1.3,1.3l-3.4,3.4c0.7,0.9,1,2,1,3.1c0,2.9-2.3,5.2-5.2,5.2c-2.9,0-5.2-2.3-5.2-5.2
					C368,475.6,370.3,473.3,373.2,473.3L373.2,473.3L373.2,473.3z"/>
				<path class="st3" d="M376.9,505.5c7.7,0,14.7,4.5,18.7,11.8l0,0c0,0,0-11.2,0-21.2l-49.3,13.9c-1.7,2.6-3,5.2-4.6,7.2h16.4
					C362.3,509.9,369.3,505.5,376.9,505.5z"/>
				<path class="st3" d="M376.9,508c-6.3,0-12.1,3.5-15.8,9.3h31.6C389.1,511.5,383.3,508,376.9,508z"/>
			</g>
		</g>
		<g>
			<path d="M405.7,486c1,0-7-23-7-23l-5,6.8l-2,9.2l1,9l5,7l9-3L405.7,486z"/>
			<g>
				<path class="st3" d="M416.4,478.2l-8.8-9.1c-1.4,1.4-2.3,3.1-2.8,5c-0.2,1.1-0.5,3.9-0.5,3.9l-3.4,6.8c-0.1,0.1-0.1,0.3-0.1,0.4
					c0,0.6,0.4,1,1,1h2.5v3.6c0,2.8,1.1,4.1,2.7,4.7l9.4-2.8L416.4,478.2L416.4,478.2z M408.4,480.4c-0.8,0-1.5-0.7-1.5-1.5
					c0-0.8,0.7-1.5,1.5-1.5s1.5,0.7,1.5,1.5c0,0,0,0,0,0C410,479.8,409.3,480.4,408.4,480.4L408.4,480.4z"/>
				<path class="st3" d="M449.7,484.5l-52.5,15.5l2.5,7.7l50-14.1C449.7,490.1,449.7,486.8,449.7,484.5L449.7,484.5z"/>
				<path class="st3" d="M400.2,496.6c-8.9-7.8-9.8-21.4-1.9-30.3c1.1-1.2,2.3-2.3,3.6-3.2l-1.8-1.9c-10.7,7.9-12.9,23-5,33.7
					c0.7,0.9,1.4,1.8,2.2,2.6L400.2,496.6z"/>
				<path class="st3" d="M427.2,481.8c1.9,0,3.4-1.5,3.4-3.3c0-1.9-1.5-3.4-3.3-3.4c-1.9,0-3.4,1.5-3.4,3.3c0,0,0,0,0,0
					C423.9,480.3,425.4,481.8,427.2,481.8z"/>
				<path class="st3" d="M449.7,482v-1c-0.1-16.9-13.8-30.5-30.7-30.4c-6.9,0-13.7,2.4-19.1,6.8l0,0l19.1,19.8v13.9L449.7,482z
					 M427.2,473.3c1,0,2,0.3,2.8,0.8l3.4-3.4l1.3,1.3l-3.4,3.4c0.7,0.9,1,2,1,3.1c0,2.9-2.3,5.2-5.2,5.2c-2.9,0-5.2-2.3-5.2-5.2
					C422,475.6,424.3,473.3,427.2,473.3L427.2,473.3L427.2,473.3z"/>
				<path class="st3" d="M430.9,505.5c7.7,0,14.7,4.5,18.7,11.8l0,0c0,0,0-11.2,0-21.2l-49.3,13.9c-1.7,2.6-3,5.2-4.6,7.2h16.4
					C416.3,509.9,423.3,505.5,430.9,505.5z"/>
				<path class="st3" d="M430.9,508c-6.3,0-12.1,3.5-15.8,9.3h31.6C443.1,511.5,437.3,508,430.9,508z"/>
			</g>
		</g>
	</g>
	<g>
		<g>
			<path class="st3" d="M518.4,67.2l-8.8-9.1c-1.4,1.4-2.3,3.1-2.8,5c-0.2,1.1-0.5,3.9-0.5,3.9l-3.4,6.8c-0.1,0.1-0.1,0.3-0.1,0.4
				c0,0.6,0.4,1,1,1h2.5v3.6c0,2.8,1.1,4.1,2.7,4.7l9.4-2.8L518.4,67.2L518.4,67.2z M510.4,69.4c-0.8,0-1.5-0.7-1.5-1.5
				s0.7-1.5,1.5-1.5s1.5,0.7,1.5,1.5c0,0,0,0,0,0C512,68.8,511.3,69.4,510.4,69.4L510.4,69.4z"/>
			<path class="st3" d="M551.7,73.5l-52.5,15.5l2.5,7.7l50-14.1C551.7,79.1,551.7,75.8,551.7,73.5L551.7,73.5z"/>
			<path class="st3" d="M502.2,85.6c-8.9-7.8-9.8-21.4-1.9-30.3c1.1-1.2,2.3-2.3,3.6-3.2l-1.8-1.9c-10.7,7.9-12.9,23-5,33.7
				c0.7,0.9,1.4,1.8,2.2,2.6L502.2,85.6z"/>
			<path class="st3" d="M529.2,70.8c1.9,0,3.4-1.5,3.4-3.3s-1.5-3.4-3.3-3.4c-1.9,0-3.4,1.5-3.4,3.3c0,0,0,0,0,0
				C525.9,69.3,527.4,70.8,529.2,70.8z"/>
			<path class="st3" d="M551.7,71v-1c-0.1-16.9-13.8-30.5-30.7-30.4c-6.9,0-13.7,2.4-19.1,6.8l0,0l19.1,19.8v13.9L551.7,71z
				 M529.2,62.3c1,0,2,0.3,2.8,0.8l3.4-3.4l1.3,1.3l-3.4,3.4c0.7,0.9,1,2,1,3.1c0,2.9-2.3,5.2-5.2,5.2c-2.9,0-5.2-2.3-5.2-5.2
				C524,64.6,526.3,62.3,529.2,62.3L529.2,62.3L529.2,62.3z"/>
			<path class="st3" d="M532.9,94.5c7.7,0,14.7,4.5,18.7,11.8l0,0c0,0,0-11.2,0-21.2l-49.3,13.9c-1.7,2.6-3,5.2-4.6,7.2h16.4
				C518.3,98.9,525.3,94.5,532.9,94.5z"/>
			<path class="st3" d="M532.9,97c-6.3,0-12.1,3.5-15.8,9.3h31.7C545.1,100.5,539.3,97,532.9,97z"/>
		</g>
		<text transform="matrix(1 0 0 1 496.63 122.4)" class="st3 st1 st2">A</text>
		<text transform="matrix(1 0 0 1 503.94 122.4)" class="st3 st1 st2">polo 7</text>
		<g>
			<path d="M561.7,76c1,0-7-23-7-23l-5,6.8l-2,9.2l1,9l5,7l9-3L561.7,76z"/>
			<g>
				<path class="st3" d="M572.4,67.2l-8.8-9.1c-1.4,1.4-2.3,3.1-2.8,5c-0.2,1.1-0.5,3.9-0.5,3.9l-3.4,6.8c-0.1,0.1-0.1,0.3-0.1,0.4
					c0,0.6,0.4,1,1,1h2.5v3.6c0,2.8,1.1,4.1,2.7,4.7l9.4-2.8L572.4,67.2L572.4,67.2z M564.4,69.4c-0.8,0-1.5-0.7-1.5-1.5
					s0.7-1.5,1.5-1.5s1.5,0.7,1.5,1.5c0,0,0,0,0,0C566,68.8,565.3,69.4,564.4,69.4L564.4,69.4z"/>
				<path class="st3" d="M605.7,73.5l-52.5,15.5l2.5,7.7l50-14.1C605.7,79.1,605.7,75.8,605.7,73.5L605.7,73.5z"/>
				<path class="st3" d="M556.2,85.6c-8.9-7.8-9.8-21.4-1.9-30.3c1.1-1.2,2.3-2.3,3.6-3.2l-1.8-1.9c-10.7,7.9-12.9,23-5,33.7
					c0.7,0.9,1.4,1.8,2.2,2.6L556.2,85.6z"/>
				<path class="st3" d="M583.2,70.8c1.9,0,3.4-1.5,3.4-3.3s-1.5-3.4-3.3-3.4c-1.9,0-3.4,1.5-3.4,3.3c0,0,0,0,0,0
					C579.9,69.3,581.4,70.8,583.2,70.8z"/>
				<path class="st3" d="M605.7,71v-1c-0.1-16.9-13.8-30.5-30.7-30.4c-6.9,0-13.7,2.4-19.1,6.8l0,0l19.1,19.8v13.9L605.7,71z
					 M583.2,62.3c1,0,2,0.3,2.8,0.8l3.4-3.4l1.3,1.3l-3.4,3.4c0.7,0.9,1,2,1,3.1c0,2.9-2.3,5.2-5.2,5.2c-2.9,0-5.2-2.3-5.2-5.2
					C578,64.6,580.3,62.3,583.2,62.3L583.2,62.3L583.2,62.3z"/>
				<path class="st3" d="M586.9,94.5c7.7,0,14.7,4.5,18.7,11.8l0,0c0,0,0-11.2,0-21.2l-49.3,13.9c-1.7,2.6-3,5.2-4.6,7.2h16.4
					C572.3,98.9,579.3,94.5,586.9,94.5z"/>
				<path class="st3" d="M586.9,97c-6.3,0-12.1,3.5-15.8,9.3h31.7C599.1,100.5,593.3,97,586.9,97z"/>
			</g>
		</g>
		<g>
			<path d="M615.7,76c1,0-7-23-7-23l-5,6.8l-2,9.2l1,9l5,7l9-3L615.7,76z"/>
			<g>
				<path class="st3" d="M626.4,67.2l-8.8-9.1c-1.4,1.4-2.3,3.1-2.8,5c-0.2,1.1-0.5,3.9-0.5,3.9l-3.4,6.8c-0.1,0.1-0.1,0.3-0.1,0.4
					c0,0.6,0.4,1,1,1h2.5v3.6c0,2.8,1.1,4.1,2.7,4.7l9.4-2.8L626.4,67.2L626.4,67.2z M618.4,69.4c-0.8,0-1.5-0.7-1.5-1.5
					s0.7-1.5,1.5-1.5s1.5,0.7,1.5,1.5c0,0,0,0,0,0C620,68.8,619.3,69.4,618.4,69.4L618.4,69.4z"/>
				<path class="st3" d="M659.7,73.5l-52.5,15.5l2.5,7.7l50-14.1C659.7,79.1,659.7,75.8,659.7,73.5L659.7,73.5z"/>
				<path class="st3" d="M610.2,85.6c-8.9-7.8-9.8-21.4-1.9-30.3c1.1-1.2,2.3-2.3,3.6-3.2l-1.8-1.9c-10.7,7.9-12.9,23-5,33.7
					c0.7,0.9,1.4,1.8,2.2,2.6L610.2,85.6z"/>
				<path class="st3" d="M637.2,70.8c1.9,0,3.4-1.5,3.4-3.3s-1.5-3.4-3.3-3.4c-1.9,0-3.4,1.5-3.4,3.3c0,0,0,0,0,0
					C633.9,69.3,635.4,70.8,637.2,70.8z"/>
				<path class="st3" d="M659.7,71v-1c-0.1-16.9-13.8-30.5-30.7-30.4c-6.9,0-13.7,2.4-19.1,6.8l0,0l19.1,19.8v13.9L659.7,71z
					 M637.2,62.3c1,0,2,0.3,2.8,0.8l3.4-3.4l1.3,1.3l-3.4,3.4c0.7,0.9,1,2,1,3.1c0,2.9-2.3,5.2-5.2,5.2c-2.9,0-5.2-2.3-5.2-5.2
					C632,64.6,634.3,62.3,637.2,62.3L637.2,62.3L637.2,62.3z"/>
				<path class="st3" d="M640.9,94.5c7.7,0,14.7,4.5,18.7,11.8l0,0c0,0,0-11.2,0-21.2l-49.3,13.9c-1.7,2.6-3,5.2-4.6,7.2h16.4
					C626.3,98.9,633.3,94.5,640.9,94.5z"/>
				<path class="st3" d="M640.9,97c-6.3,0-12.1,3.5-15.8,9.3h31.7C653.1,100.5,647.3,97,640.9,97z"/>
			</g>
		</g>
	</g>
	<g>
		<g>
			<path class="st3" d="M518.4,204.2l-8.8-9.1c-1.4,1.4-2.3,3.1-2.8,5c-0.2,1.1-0.5,3.9-0.5,3.9l-3.4,6.8c-0.1,0.1-0.1,0.3-0.1,0.4
				c0,0.6,0.4,1,1,1h2.5v3.6c0,2.8,1.1,4.1,2.7,4.7l9.4-2.8L518.4,204.2L518.4,204.2z M510.4,206.4c-0.8,0-1.5-0.7-1.5-1.5
				s0.7-1.5,1.5-1.5s1.5,0.7,1.5,1.5c0,0,0,0,0,0C512,205.8,511.3,206.4,510.4,206.4L510.4,206.4z"/>
			<path class="st3" d="M551.7,210.5l-52.5,15.5l2.5,7.7l50-14.1C551.7,216.1,551.7,212.9,551.7,210.5L551.7,210.5z"/>
			<path class="st3" d="M502.2,222.6c-8.9-7.8-9.8-21.4-1.9-30.3c1.1-1.2,2.3-2.3,3.6-3.2l-1.8-1.9c-10.7,7.9-12.9,23-5,33.7
				c0.7,0.9,1.4,1.8,2.2,2.6L502.2,222.6z"/>
			<path class="st3" d="M529.2,207.8c1.9,0,3.4-1.5,3.4-3.3s-1.5-3.4-3.3-3.4c-1.9,0-3.4,1.5-3.4,3.3c0,0,0,0,0,0
				C525.9,206.3,527.4,207.8,529.2,207.8z"/>
			<path class="st3" d="M551.7,208v-1c-0.1-16.9-13.8-30.5-30.7-30.4c-6.9,0-13.7,2.4-19.1,6.8l0,0l19.1,19.8v13.9L551.7,208z
				 M529.2,199.3c1,0,2,0.3,2.8,0.8l3.4-3.4l1.3,1.3l-3.4,3.4c0.7,0.9,1,2,1,3.1c0,2.9-2.3,5.2-5.2,5.2c-2.9,0-5.2-2.3-5.2-5.2
				C524,201.6,526.3,199.3,529.2,199.3L529.2,199.3L529.2,199.3z"/>
			<path class="st3" d="M532.9,231.5c7.7,0,14.7,4.5,18.7,11.8l0,0c0,0,0-11.2,0-21.2l-49.3,13.9c-1.7,2.6-3,5.2-4.6,7.2h16.4
				C518.3,235.9,525.3,231.5,532.9,231.5z"/>
			<path class="st3" d="M532.9,234c-6.3,0-12.1,3.5-15.8,9.3h31.7C545.1,237.5,539.3,234,532.9,234z"/>
		</g>
		<text transform="matrix(1 0 0 1 496.63 259.4)" class="st3 st1 st2">A</text>
		<text transform="matrix(1 0 0 1 503.94 259.4)" class="st3 st1 st2">polo 10</text>
		<g>
			<path d="M561.7,212c1,0-7-23-7-23l-5,6.8l-2,9.2l1,9l5,7l9-3L561.7,212z"/>
			<g>
				<path class="st4" d="M572.4,204.2l-8.8-9.1c-1.4,1.4-2.3,3.1-2.8,5c-0.2,1.1-0.5,3.9-0.5,3.9l-3.4,6.8c-0.1,0.1-0.1,0.3-0.1,0.4
					c0,0.6,0.4,1,1,1h2.5v3.6c0,2.8,1.1,4.1,2.7,4.7l9.4-2.8L572.4,204.2L572.4,204.2z M564.4,206.4c-0.8,0-1.5-0.7-1.5-1.5
					s0.7-1.5,1.5-1.5s1.5,0.7,1.5,1.5c0,0,0,0,0,0C566,205.8,565.3,206.4,564.4,206.4L564.4,206.4z"/>
				<path class="st4" d="M605.7,210.5l-52.5,15.5l2.5,7.7l50-14.1C605.7,216.1,605.7,212.9,605.7,210.5L605.7,210.5z"/>
				<path class="st4" d="M556.2,222.6c-8.9-7.8-9.8-21.4-1.9-30.3c1.1-1.2,2.3-2.3,3.6-3.2l-1.8-1.9c-10.7,7.9-12.9,23-5,33.7
					c0.7,0.9,1.4,1.8,2.2,2.6L556.2,222.6z"/>
				<path class="st4" d="M583.2,207.8c1.9,0,3.4-1.5,3.4-3.3s-1.5-3.4-3.3-3.4c-1.9,0-3.4,1.5-3.4,3.3c0,0,0,0,0,0
					C579.9,206.3,581.4,207.8,583.2,207.8z"/>
				<path class="st4" d="M605.7,208v-1c-0.1-16.9-13.8-30.5-30.7-30.4c-6.9,0-13.7,2.4-19.1,6.8l0,0l19.1,19.8v13.9L605.7,208z
					 M583.2,199.3c1,0,2,0.3,2.8,0.8l3.4-3.4l1.3,1.3l-3.4,3.4c0.7,0.9,1,2,1,3.1c0,2.9-2.3,5.2-5.2,5.2c-2.9,0-5.2-2.3-5.2-5.2
					C578,201.6,580.3,199.3,583.2,199.3L583.2,199.3L583.2,199.3z"/>
				<path class="st4" d="M586.9,231.5c7.7,0,14.7,4.5,18.7,11.8l0,0c0,0,0-11.2,0-21.2l-49.3,13.9c-1.7,2.6-3,5.2-4.6,7.2h16.4
					C572.3,235.9,579.3,231.5,586.9,231.5z"/>
				<path class="st4" d="M586.9,234c-6.3,0-12.1,3.5-15.8,9.3h31.7C599.1,237.5,593.3,234,586.9,234z"/>
			</g>
		</g>
		<g>
			<path d="M615.7,212c1,0-7-23-7-23l-5,6.8l-2,9.2l1,9l5,7l9-3L615.7,212z"/>
			<g>
				<path class="st4" d="M626.4,204.2l-8.8-9.1c-1.4,1.4-2.3,3.1-2.8,5c-0.2,1.1-0.5,3.9-0.5,3.9l-3.4,6.8c-0.1,0.1-0.1,0.3-0.1,0.4
					c0,0.6,0.4,1,1,1h2.5v3.6c0,2.8,1.1,4.1,2.7,4.7l9.4-2.8L626.4,204.2L626.4,204.2z M618.4,206.4c-0.8,0-1.5-0.7-1.5-1.5
					s0.7-1.5,1.5-1.5s1.5,0.7,1.5,1.5c0,0,0,0,0,0C620,205.8,619.3,206.4,618.4,206.4L618.4,206.4z"/>
				<path class="st4" d="M659.7,210.5l-52.5,15.5l2.5,7.7l50-14.1C659.7,216.1,659.7,212.9,659.7,210.5L659.7,210.5z"/>
				<path class="st4" d="M610.2,222.6c-8.9-7.8-9.8-21.4-1.9-30.3c1.1-1.2,2.3-2.3,3.6-3.2l-1.8-1.9c-10.7,7.9-12.9,23-5,33.7
					c0.7,0.9,1.4,1.8,2.2,2.6L610.2,222.6z"/>
				<path class="st4" d="M637.2,207.8c1.9,0,3.4-1.5,3.4-3.3s-1.5-3.4-3.3-3.4c-1.9,0-3.4,1.5-3.4,3.3c0,0,0,0,0,0
					C633.9,206.3,635.4,207.8,637.2,207.8z"/>
				<path class="st4" d="M659.7,208v-1c-0.1-16.9-13.8-30.5-30.7-30.4c-6.9,0-13.7,2.4-19.1,6.8l0,0l19.1,19.8v13.9L659.7,208z
					 M637.2,199.3c1,0,2,0.3,2.8,0.8l3.4-3.4l1.3,1.3l-3.4,3.4c0.7,0.9,1,2,1,3.1c0,2.9-2.3,5.2-5.2,5.2c-2.9,0-5.2-2.3-5.2-5.2
					C632,201.6,634.3,199.3,637.2,199.3L637.2,199.3L637.2,199.3z"/>
				<path class="st4" d="M640.9,231.5c7.7,0,14.7,4.5,18.7,11.8l0,0c0,0,0-11.2,0-21.2l-49.3,13.9c-1.7,2.6-3,5.2-4.6,7.2h16.4
					C626.3,235.9,633.3,231.5,640.9,231.5z"/>
				<path class="st4" d="M640.9,234c-6.3,0-12.1,3.5-15.8,9.3h31.7C653.1,237.5,647.3,234,640.9,234z"/>
			</g>
		</g>
	</g>
	<g>
		<g>
			<path class="st3" d="M728.4,67.2l-8.8-9.1c-1.4,1.4-2.3,3.1-2.8,5c-0.2,1.1-0.5,3.9-0.5,3.9l-3.4,6.8c-0.1,0.1-0.1,0.3-0.1,0.4
				c0,0.6,0.4,1,1,1h2.5v3.6c0,2.8,1.1,4.1,2.7,4.7l9.4-2.8L728.4,67.2L728.4,67.2z M720.4,69.4c-0.8,0-1.5-0.7-1.5-1.5
				s0.7-1.5,1.5-1.5s1.5,0.7,1.5,1.5c0,0,0,0,0,0C722,68.8,721.3,69.4,720.4,69.4L720.4,69.4z"/>
			<path class="st3" d="M761.7,73.5l-52.5,15.5l2.5,7.7l50-14.1C761.7,79.1,761.7,75.8,761.7,73.5L761.7,73.5z"/>
			<path class="st3" d="M712.2,85.6c-8.9-7.8-9.8-21.4-1.9-30.3c1.1-1.2,2.3-2.3,3.6-3.2l-1.8-1.9c-10.7,7.9-12.9,23-5,33.7
				c0.7,0.9,1.4,1.8,2.2,2.6L712.2,85.6z"/>
			<path class="st3" d="M739.2,70.8c1.9,0,3.4-1.5,3.4-3.3s-1.5-3.4-3.3-3.4c-1.9,0-3.4,1.5-3.4,3.3c0,0,0,0,0,0
				C735.9,69.3,737.4,70.8,739.2,70.8z"/>
			<path class="st3" d="M761.7,71v-1c-0.1-16.9-13.8-30.5-30.7-30.4c-6.9,0-13.7,2.4-19.1,6.8l0,0l19.1,19.8v13.9L761.7,71z
				 M739.2,62.3c1,0,2,0.3,2.8,0.8l3.4-3.4l1.3,1.3l-3.4,3.4c0.7,0.9,1,2,1,3.1c0,2.9-2.3,5.2-5.2,5.2c-2.9,0-5.2-2.3-5.2-5.2
				C734,64.6,736.3,62.3,739.2,62.3L739.2,62.3L739.2,62.3z"/>
			<path class="st3" d="M742.9,94.5c7.7,0,14.7,4.5,18.7,11.8l0,0c0,0,0-11.2,0-21.2l-49.3,13.9c-1.7,2.6-3,5.2-4.6,7.2h16.4
				C728.3,98.9,735.3,94.5,742.9,94.5z"/>
			<path class="st3" d="M742.9,97c-6.3,0-12.1,3.5-15.8,9.3h31.7C755.1,100.5,749.3,97,742.9,97z"/>
		</g>
		<text transform="matrix(1 0 0 1 705.63 122.4)" class="st3 st1 st2">A</text>
		<text transform="matrix(1 0 0 1 712.94 122.4)" class="st3 st1 st2">polo 8</text>
		<g>
			<path d="M771.7,76c1,0-7-23-7-23l-5,6.8l-2,9.2l1,9l5,7l9-3L771.7,76z"/>
			<g>
				<path class="st4" d="M782.4,67.2l-8.8-9.1c-1.4,1.4-2.3,3.1-2.8,5c-0.2,1.1-0.5,3.9-0.5,3.9l-3.4,6.8c-0.1,0.1-0.1,0.3-0.1,0.4
					c0,0.6,0.4,1,1,1h2.5v3.6c0,2.8,1.1,4.1,2.7,4.7l9.4-2.8L782.4,67.2L782.4,67.2z M774.4,69.4c-0.8,0-1.5-0.7-1.5-1.5
					s0.7-1.5,1.5-1.5s1.5,0.7,1.5,1.5c0,0,0,0,0,0C776,68.8,775.3,69.4,774.4,69.4L774.4,69.4z"/>
				<path class="st4" d="M815.7,73.5l-52.5,15.5l2.5,7.7l50-14.1C815.7,79.1,815.7,75.8,815.7,73.5L815.7,73.5z"/>
				<path class="st4" d="M766.2,85.6c-8.9-7.8-9.8-21.4-1.9-30.3c1.1-1.2,2.3-2.3,3.6-3.2l-1.8-1.9c-10.7,7.9-12.9,23-5,33.7
					c0.7,0.9,1.4,1.8,2.2,2.6L766.2,85.6z"/>
				<path class="st4" d="M793.2,70.8c1.9,0,3.4-1.5,3.4-3.3s-1.5-3.4-3.3-3.4c-1.9,0-3.4,1.5-3.4,3.3c0,0,0,0,0,0
					C789.9,69.3,791.4,70.8,793.2,70.8z"/>
				<path class="st4" d="M815.7,71v-1c-0.1-16.9-13.8-30.5-30.7-30.4c-6.9,0-13.7,2.4-19.1,6.8l0,0l19.1,19.8v13.9L815.7,71z
					 M793.2,62.3c1,0,2,0.3,2.8,0.8l3.4-3.4l1.3,1.3l-3.4,3.4c0.7,0.9,1,2,1,3.1c0,2.9-2.3,5.2-5.2,5.2c-2.9,0-5.2-2.3-5.2-5.2
					C788,64.6,790.3,62.3,793.2,62.3L793.2,62.3L793.2,62.3z"/>
				<path class="st4" d="M796.9,94.5c7.7,0,14.7,4.5,18.7,11.8l0,0c0,0,0-11.2,0-21.2l-49.3,13.9c-1.7,2.6-3,5.2-4.6,7.2h16.4
					C782.3,98.9,789.3,94.5,796.9,94.5z"/>
				<path class="st4" d="M796.9,97c-6.3,0-12.1,3.5-15.8,9.3h31.7C809.1,100.5,803.3,97,796.9,97z"/>
			</g>
		</g>
		<g>
			<path d="M825.7,76c1,0-7-23-7-23l-5,6.8l-2,9.2l1,9l5,7l9-3L825.7,76z"/>
			<g>
				<path class="st3" d="M836.4,67.2l-8.8-9.1c-1.4,1.4-2.3,3.1-2.8,5c-0.2,1.1-0.5,3.9-0.5,3.9l-3.4,6.8c-0.1,0.1-0.1,0.3-0.1,0.4
					c0,0.6,0.4,1,1,1h2.5v3.6c0,2.8,1.1,4.1,2.7,4.7l9.4-2.8L836.4,67.2L836.4,67.2z M828.4,69.4c-0.8,0-1.5-0.7-1.5-1.5
					s0.7-1.5,1.5-1.5s1.5,0.7,1.5,1.5c0,0,0,0,0,0C830,68.8,829.3,69.4,828.4,69.4L828.4,69.4z"/>
				<path class="st3" d="M869.7,73.5l-52.5,15.5l2.5,7.7l50-14.1C869.7,79.1,869.7,75.8,869.7,73.5L869.7,73.5z"/>
				<path class="st3" d="M820.2,85.6c-8.9-7.8-9.8-21.4-1.9-30.3c1.1-1.2,2.3-2.3,3.6-3.2l-1.8-1.9c-10.7,7.9-12.9,23-5,33.7
					c0.7,0.9,1.4,1.8,2.2,2.6L820.2,85.6z"/>
				<path class="st3" d="M847.2,70.8c1.9,0,3.4-1.5,3.4-3.3s-1.5-3.4-3.3-3.4c-1.9,0-3.4,1.5-3.4,3.3c0,0,0,0,0,0
					C843.9,69.3,845.4,70.8,847.2,70.8z"/>
				<path class="st3" d="M869.7,71v-1c-0.1-16.9-13.8-30.5-30.7-30.4c-6.9,0-13.7,2.4-19.1,6.8l0,0l19.1,19.8v13.9L869.7,71z
					 M847.2,62.3c1,0,2,0.3,2.8,0.8l3.4-3.4l1.3,1.3l-3.4,3.4c0.7,0.9,1,2,1,3.1c0,2.9-2.3,5.2-5.2,5.2c-2.9,0-5.2-2.3-5.2-5.2
					C842,64.6,844.3,62.3,847.2,62.3L847.2,62.3L847.2,62.3z"/>
				<path class="st3" d="M850.9,94.5c7.7,0,14.7,4.5,18.7,11.8l0,0c0,0,0-11.2,0-21.2l-49.3,13.9c-1.7,2.6-3,5.2-4.6,7.2h16.4
					C836.3,98.9,843.3,94.5,850.9,94.5z"/>
				<path class="st3" d="M850.9,97c-6.3,0-12.1,3.5-15.8,9.3h31.7C863.1,100.5,857.3,97,850.9,97z"/>
			</g>
		</g>
	</g>
	<g>
		<g>
			<path class="st3" d="M728.4,204.2l-8.8-9.1c-1.4,1.4-2.3,3.1-2.8,5c-0.2,1.1-0.5,3.9-0.5,3.9l-3.4,6.8c-0.1,0.1-0.1,0.3-0.1,0.4
				c0,0.6,0.4,1,1,1h2.5v3.6c0,2.8,1.1,4.1,2.7,4.7l9.4-2.8L728.4,204.2L728.4,204.2z M720.4,206.4c-0.8,0-1.5-0.7-1.5-1.5
				s0.7-1.5,1.5-1.5s1.5,0.7,1.5,1.5c0,0,0,0,0,0C722,205.8,721.3,206.4,720.4,206.4L720.4,206.4z"/>
			<path class="st3" d="M761.7,210.5l-52.5,15.5l2.5,7.7l50-14.1C761.7,216.1,761.7,212.9,761.7,210.5L761.7,210.5z"/>
			<path class="st3" d="M712.2,222.6c-8.9-7.8-9.8-21.4-1.9-30.3c1.1-1.2,2.3-2.3,3.6-3.2l-1.8-1.9c-10.7,7.9-12.9,23-5,33.7
				c0.7,0.9,1.4,1.8,2.2,2.6L712.2,222.6z"/>
			<path class="st3" d="M739.2,207.8c1.9,0,3.4-1.5,3.4-3.3s-1.5-3.4-3.3-3.4c-1.9,0-3.4,1.5-3.4,3.3c0,0,0,0,0,0
				C735.9,206.3,737.4,207.8,739.2,207.8z"/>
			<path class="st3" d="M761.7,208v-1c-0.1-16.9-13.8-30.5-30.7-30.4c-6.9,0-13.7,2.4-19.1,6.8l0,0l19.1,19.8v13.9L761.7,208z
				 M739.2,199.3c1,0,2,0.3,2.8,0.8l3.4-3.4l1.3,1.3l-3.4,3.4c0.7,0.9,1,2,1,3.1c0,2.9-2.3,5.2-5.2,5.2c-2.9,0-5.2-2.3-5.2-5.2
				C734,201.6,736.3,199.3,739.2,199.3L739.2,199.3L739.2,199.3z"/>
			<path class="st3" d="M742.9,231.5c7.7,0,14.7,4.5,18.7,11.8l0,0c0,0,0-11.2,0-21.2l-49.3,13.9c-1.7,2.6-3,5.2-4.6,7.2h16.4
				C728.3,235.9,735.3,231.5,742.9,231.5z"/>
			<path class="st3" d="M742.9,234c-6.3,0-12.1,3.5-15.8,9.3h31.7C755.1,237.5,749.3,234,742.9,234z"/>
		</g>
		<text transform="matrix(1 0 0 1 705.63 259.4)" class="st3 st1 st2">A</text>
		<text transform="matrix(1 0 0 1 712.94 259.4)" class="st3 st1 st2">polo 11</text>
		<g>
			<path d="M771.7,213c1,0-7-23-7-23l-5,6.8l-2,9.2l1,9l5,7l9-3L771.7,213z"/>
			<g>
				<path class="st3" d="M782.4,204.2l-8.8-9.1c-1.4,1.4-2.3,3.1-2.8,5c-0.2,1.1-0.5,3.9-0.5,3.9l-3.4,6.8c-0.1,0.1-0.1,0.3-0.1,0.4
					c0,0.6,0.4,1,1,1h2.5v3.6c0,2.8,1.1,4.1,2.7,4.7l9.4-2.8L782.4,204.2L782.4,204.2z M774.4,206.4c-0.8,0-1.5-0.7-1.5-1.5
					s0.7-1.5,1.5-1.5s1.5,0.7,1.5,1.5c0,0,0,0,0,0C776,205.8,775.3,206.4,774.4,206.4L774.4,206.4z"/>
				<path class="st3" d="M815.7,210.5l-52.5,15.5l2.5,7.7l50-14.1C815.7,216.1,815.7,212.9,815.7,210.5L815.7,210.5z"/>
				<path class="st3" d="M766.2,222.6c-8.9-7.8-9.8-21.4-1.9-30.3c1.1-1.2,2.3-2.3,3.6-3.2l-1.8-1.9c-10.7,7.9-12.9,23-5,33.7
					c0.7,0.9,1.4,1.8,2.2,2.6L766.2,222.6z"/>
				<path class="st3" d="M793.2,207.8c1.9,0,3.4-1.5,3.4-3.3s-1.5-3.4-3.3-3.4c-1.9,0-3.4,1.5-3.4,3.3c0,0,0,0,0,0
					C789.9,206.3,791.4,207.8,793.2,207.8z"/>
				<path class="st3" d="M815.7,208v-1c-0.1-16.9-13.8-30.5-30.7-30.4c-6.9,0-13.7,2.4-19.1,6.8l0,0l19.1,19.8v13.9L815.7,208z
					 M793.2,199.3c1,0,2,0.3,2.8,0.8l3.4-3.4l1.3,1.3l-3.4,3.4c0.7,0.9,1,2,1,3.1c0,2.9-2.3,5.2-5.2,5.2c-2.9,0-5.2-2.3-5.2-5.2
					C788,201.6,790.3,199.3,793.2,199.3L793.2,199.3L793.2,199.3z"/>
				<path class="st3" d="M796.9,231.5c7.7,0,14.7,4.5,18.7,11.8l0,0c0,0,0-11.2,0-21.2l-49.3,13.9c-1.7,2.6-3,5.2-4.6,7.2h16.4
					C782.3,235.9,789.3,231.5,796.9,231.5z"/>
				<path class="st3" d="M796.9,234c-6.3,0-12.1,3.5-15.8,9.3h31.7C809.1,237.5,803.3,234,796.9,234z"/>
			</g>
		</g>
		<g>
			<path d="M825.7,213c1,0-7-23-7-23l-5,6.8l-2,9.2l1,9l5,7l9-3L825.7,213z"/>
			<g>
				<path class="st3" d="M836.4,204.2l-8.8-9.1c-1.4,1.4-2.3,3.1-2.8,5c-0.2,1.1-0.5,3.9-0.5,3.9l-3.4,6.8c-0.1,0.1-0.1,0.3-0.1,0.4
					c0,0.6,0.4,1,1,1h2.5v3.6c0,2.8,1.1,4.1,2.7,4.7l9.4-2.8L836.4,204.2L836.4,204.2z M828.4,206.4c-0.8,0-1.5-0.7-1.5-1.5
					s0.7-1.5,1.5-1.5s1.5,0.7,1.5,1.5c0,0,0,0,0,0C830,205.8,829.3,206.4,828.4,206.4L828.4,206.4z"/>
				<path class="st3" d="M869.7,210.5l-52.5,15.5l2.5,7.7l50-14.1C869.7,216.1,869.7,212.9,869.7,210.5L869.7,210.5z"/>
				<path class="st3" d="M820.2,222.6c-8.9-7.8-9.8-21.4-1.9-30.3c1.1-1.2,2.3-2.3,3.6-3.2l-1.8-1.9c-10.7,7.9-12.9,23-5,33.7
					c0.7,0.9,1.4,1.8,2.2,2.6L820.2,222.6z"/>
				<path class="st3" d="M847.2,207.8c1.9,0,3.4-1.5,3.4-3.3s-1.5-3.4-3.3-3.4c-1.9,0-3.4,1.5-3.4,3.3c0,0,0,0,0,0
					C843.9,206.3,845.4,207.8,847.2,207.8z"/>
				<path class="st3" d="M869.7,208v-1c-0.1-16.9-13.8-30.5-30.7-30.4c-6.9,0-13.7,2.4-19.1,6.8l0,0l19.1,19.8v13.9L869.7,208z
					 M847.2,199.3c1,0,2,0.3,2.8,0.8l3.4-3.4l1.3,1.3l-3.4,3.4c0.7,0.9,1,2,1,3.1c0,2.9-2.3,5.2-5.2,5.2c-2.9,0-5.2-2.3-5.2-5.2
					C842,201.6,844.3,199.3,847.2,199.3L847.2,199.3L847.2,199.3z"/>
				<path class="st3" d="M850.9,231.5c7.7,0,14.7,4.5,18.7,11.8l0,0c0,0,0-11.2,0-21.2l-49.3,13.9c-1.7,2.6-3,5.2-4.6,7.2h16.4
					C836.3,235.9,843.3,231.5,850.9,231.5z"/>
				<path class="st3" d="M850.9,234c-6.3,0-12.1,3.5-15.8,9.3h31.7C863.1,237.5,857.3,234,850.9,234z"/>
			</g>
		</g>
	</g>
	<g>
		<g>
			<path class="st5" d="M518.4,341.2l-8.8-9.1c-1.4,1.4-2.3,3.1-2.8,5c-0.2,1.1-0.5,3.9-0.5,3.9l-3.4,6.8c-0.1,0.1-0.1,0.3-0.1,0.4
				c0,0.6,0.4,1,1,1h2.5v3.6c0,2.8,1.1,4.1,2.7,4.7l9.4-2.8L518.4,341.2L518.4,341.2z M510.4,343.4c-0.8,0-1.5-0.7-1.5-1.5
				s0.7-1.5,1.5-1.5s1.5,0.7,1.5,1.5c0,0,0,0,0,0C512,342.8,511.3,343.4,510.4,343.4L510.4,343.4z"/>
			<path class="st5" d="M551.7,347.5l-52.5,15.5l2.5,7.7l50-14.1C551.7,353.1,551.7,349.8,551.7,347.5L551.7,347.5z"/>
			<path class="st5" d="M502.2,359.6c-8.9-7.8-9.8-21.4-1.9-30.3c1.1-1.2,2.3-2.3,3.6-3.2l-1.8-1.9c-10.7,7.9-12.9,23-5,33.7
				c0.7,0.9,1.4,1.8,2.2,2.6L502.2,359.6z"/>
			<path class="st5" d="M529.2,344.8c1.9,0,3.4-1.5,3.4-3.3s-1.5-3.4-3.3-3.4c-1.9,0-3.4,1.5-3.4,3.3c0,0,0,0,0,0
				C525.9,343.3,527.4,344.8,529.2,344.8z"/>
			<path class="st5" d="M551.7,345v-1c-0.1-16.9-13.8-30.5-30.7-30.4c-6.9,0-13.7,2.4-19.1,6.8l0,0l19.1,19.8v13.9L551.7,345z
				 M529.2,336.3c1,0,2,0.3,2.8,0.8l3.4-3.4l1.3,1.3l-3.4,3.4c0.7,0.9,1,2,1,3.1c0,2.9-2.3,5.2-5.2,5.2c-2.9,0-5.2-2.3-5.2-5.2
				C524,338.6,526.3,336.3,529.2,336.3L529.2,336.3L529.2,336.3z"/>
			<path class="st5" d="M532.9,368.5c7.7,0,14.7,4.5,18.7,11.8l0,0c0,0,0-11.2,0-21.2l-49.3,13.9c-1.7,2.6-3,5.2-4.6,7.2h16.4
				C518.3,372.9,525.3,368.5,532.9,368.5z"/>
			<path class="st5" d="M532.9,371c-6.3,0-12.1,3.5-15.8,9.3h31.7C545.1,374.5,539.3,371,532.9,371z"/>
		</g>
		<text transform="matrix(1 0 0 1 496.63 396.4)" class="st3 st1 st2">A</text>
		<text transform="matrix(1 0 0 1 503.94 396.4)" class="st3 st1 st2">polo 13</text>
		<g>
			<path d="M561.7,350c1,0-7-23-7-23l-5,6.8l-2,9.2l1,9l5,7l9-3L561.7,350z"/>
			<g>
				<path class="st3" d="M572.4,341.2l-8.8-9.1c-1.4,1.4-2.3,3.1-2.8,5c-0.2,1.1-0.5,3.9-0.5,3.9l-3.4,6.8c-0.1,0.1-0.1,0.3-0.1,0.4
					c0,0.6,0.4,1,1,1h2.5v3.6c0,2.8,1.1,4.1,2.7,4.7l9.4-2.8L572.4,341.2L572.4,341.2z M564.4,343.4c-0.8,0-1.5-0.7-1.5-1.5
					s0.7-1.5,1.5-1.5s1.5,0.7,1.5,1.5c0,0,0,0,0,0C566,342.8,565.3,343.4,564.4,343.4L564.4,343.4z"/>
				<path class="st3" d="M605.7,347.5l-52.5,15.5l2.5,7.7l50-14.1C605.7,353.1,605.7,349.8,605.7,347.5L605.7,347.5z"/>
				<path class="st3" d="M556.2,359.6c-8.9-7.8-9.8-21.4-1.9-30.3c1.1-1.2,2.3-2.3,3.6-3.2l-1.8-1.9c-10.7,7.9-12.9,23-5,33.7
					c0.7,0.9,1.4,1.8,2.2,2.6L556.2,359.6z"/>
				<path class="st3" d="M583.2,344.8c1.9,0,3.4-1.5,3.4-3.3s-1.5-3.4-3.3-3.4c-1.9,0-3.4,1.5-3.4,3.3c0,0,0,0,0,0
					C579.9,343.3,581.4,344.8,583.2,344.8z"/>
				<path class="st3" d="M605.7,345v-1c-0.1-16.9-13.8-30.5-30.7-30.4c-6.9,0-13.7,2.4-19.1,6.8l0,0l19.1,19.8v13.9L605.7,345z
					 M583.2,336.3c1,0,2,0.3,2.8,0.8l3.4-3.4l1.3,1.3l-3.4,3.4c0.7,0.9,1,2,1,3.1c0,2.9-2.3,5.2-5.2,5.2c-2.9,0-5.2-2.3-5.2-5.2
					C578,338.6,580.3,336.3,583.2,336.3L583.2,336.3L583.2,336.3z"/>
				<path class="st3" d="M586.9,368.5c7.7,0,14.7,4.5,18.7,11.8l0,0c0,0,0-11.2,0-21.2l-49.3,13.9c-1.7,2.6-3,5.2-4.6,7.2h16.4
					C572.3,372.9,579.3,368.5,586.9,368.5z"/>
				<path class="st3" d="M586.9,371c-6.3,0-12.1,3.5-15.8,9.3h31.7C599.1,374.5,593.3,371,586.9,371z"/>
			</g>
		</g>
		<g>
			<path d="M615.7,350c1,0-7-23-7-23l-5,6.8l-2,9.2l1,9l5,7l9-3L615.7,350z"/>
			<g>
				<path class="st3" d="M626.4,341.2l-8.8-9.1c-1.4,1.4-2.3,3.1-2.8,5c-0.2,1.1-0.5,3.9-0.5,3.9l-3.4,6.8c-0.1,0.1-0.1,0.3-0.1,0.4
					c0,0.6,0.4,1,1,1h2.5v3.6c0,2.8,1.1,4.1,2.7,4.7l9.4-2.8L626.4,341.2L626.4,341.2z M618.4,343.4c-0.8,0-1.5-0.7-1.5-1.5
					s0.7-1.5,1.5-1.5s1.5,0.7,1.5,1.5c0,0,0,0,0,0C620,342.8,619.3,343.4,618.4,343.4L618.4,343.4z"/>
				<path class="st3" d="M659.7,347.5l-52.5,15.5l2.5,7.7l50-14.1C659.7,353.1,659.7,349.8,659.7,347.5L659.7,347.5z"/>
				<path class="st3" d="M610.2,359.6c-8.9-7.8-9.8-21.4-1.9-30.3c1.1-1.2,2.3-2.3,3.6-3.2l-1.8-1.9c-10.7,7.9-12.9,23-5,33.7
					c0.7,0.9,1.4,1.8,2.2,2.6L610.2,359.6z"/>
				<path class="st3" d="M637.2,344.8c1.9,0,3.4-1.5,3.4-3.3s-1.5-3.4-3.3-3.4c-1.9,0-3.4,1.5-3.4,3.3c0,0,0,0,0,0
					C633.9,343.3,635.4,344.8,637.2,344.8z"/>
				<path class="st3" d="M659.7,345v-1c-0.1-16.9-13.8-30.5-30.7-30.4c-6.9,0-13.7,2.4-19.1,6.8l0,0l19.1,19.8v13.9L659.7,345z
					 M637.2,336.3c1,0,2,0.3,2.8,0.8l3.4-3.4l1.3,1.3l-3.4,3.4c0.7,0.9,1,2,1,3.1c0,2.9-2.3,5.2-5.2,5.2c-2.9,0-5.2-2.3-5.2-5.2
					C632,338.6,634.3,336.3,637.2,336.3L637.2,336.3L637.2,336.3z"/>
				<path class="st3" d="M640.9,368.5c7.7,0,14.7,4.5,18.7,11.8l0,0c0,0,0-11.2,0-21.2l-49.3,13.9c-1.7,2.6-3,5.2-4.6,7.2h16.4
					C626.3,372.9,633.3,368.5,640.9,368.5z"/>
				<path class="st3" d="M640.9,371c-6.3,0-12.1,3.5-15.8,9.3h31.7C653.1,374.5,647.3,371,640.9,371z"/>
			</g>
		</g>
	</g>
	<g>
		<g>
			<path class="st3" d="M728.4,341.2l-8.8-9.1c-1.4,1.4-2.3,3.1-2.8,5c-0.2,1.1-0.5,3.9-0.5,3.9l-3.4,6.8c-0.1,0.1-0.1,0.3-0.1,0.4
				c0,0.6,0.4,1,1,1h2.5v3.6c0,2.8,1.1,4.1,2.7,4.7l9.4-2.8L728.4,341.2L728.4,341.2z M720.4,343.4c-0.8,0-1.5-0.7-1.5-1.5
				s0.7-1.5,1.5-1.5s1.5,0.7,1.5,1.5c0,0,0,0,0,0C722,342.8,721.3,343.4,720.4,343.4L720.4,343.4z"/>
			<path class="st3" d="M761.7,347.5l-52.5,15.5l2.5,7.7l50-14.1C761.7,353.1,761.7,349.8,761.7,347.5L761.7,347.5z"/>
			<path class="st3" d="M712.2,359.6c-8.9-7.8-9.8-21.4-1.9-30.3c1.1-1.2,2.3-2.3,3.6-3.2l-1.8-1.9c-10.7,7.9-12.9,23-5,33.7
				c0.7,0.9,1.4,1.8,2.2,2.6L712.2,359.6z"/>
			<path class="st3" d="M739.2,344.8c1.9,0,3.4-1.5,3.4-3.3s-1.5-3.4-3.3-3.4c-1.9,0-3.4,1.5-3.4,3.3c0,0,0,0,0,0
				C735.9,343.3,737.4,344.8,739.2,344.8z"/>
			<path class="st3" d="M761.7,345v-1c-0.1-16.9-13.8-30.5-30.7-30.4c-6.9,0-13.7,2.4-19.1,6.8l0,0l19.1,19.8v13.9L761.7,345z
				 M739.2,336.3c1,0,2,0.3,2.8,0.8l3.4-3.4l1.3,1.3l-3.4,3.4c0.7,0.9,1,2,1,3.1c0,2.9-2.3,5.2-5.2,5.2c-2.9,0-5.2-2.3-5.2-5.2
				C734,338.6,736.3,336.3,739.2,336.3L739.2,336.3L739.2,336.3z"/>
			<path class="st3" d="M742.9,368.5c7.7,0,14.7,4.5,18.7,11.8l0,0c0,0,0-11.2,0-21.2l-49.3,13.9c-1.7,2.6-3,5.2-4.6,7.2h16.4
				C728.3,372.9,735.3,368.5,742.9,368.5z"/>
			<path class="st3" d="M742.9,371c-6.3,0-12.1,3.5-15.8,9.3h31.7C755.1,374.5,749.3,371,742.9,371z"/>
		</g>
		<text transform="matrix(1 0 0 1 705.63 396.4)" class="st3 st1 st2">A</text>
		<text transform="matrix(1 0 0 1 712.94 396.4)" class="st3 st1 st2">polo 14</text>
		<g>
			<path d="M771.7,350c1,0-7-23-7-23l-5,6.8l-2,9.2l1,9l5,7l9-3L771.7,350z"/>
			<g>
				<path class="st3" d="M782.4,341.2l-8.8-9.1c-1.4,1.4-2.3,3.1-2.8,5c-0.2,1.1-0.5,3.9-0.5,3.9l-3.4,6.8c-0.1,0.1-0.1,0.3-0.1,0.4
					c0,0.6,0.4,1,1,1h2.5v3.6c0,2.8,1.1,4.1,2.7,4.7l9.4-2.8L782.4,341.2L782.4,341.2z M774.4,343.4c-0.8,0-1.5-0.7-1.5-1.5
					s0.7-1.5,1.5-1.5s1.5,0.7,1.5,1.5c0,0,0,0,0,0C776,342.8,775.3,343.4,774.4,343.4L774.4,343.4z"/>
				<path class="st3" d="M815.7,347.5l-52.5,15.5l2.5,7.7l50-14.1C815.7,353.1,815.7,349.8,815.7,347.5L815.7,347.5z"/>
				<path class="st3" d="M766.2,359.6c-8.9-7.8-9.8-21.4-1.9-30.3c1.1-1.2,2.3-2.3,3.6-3.2l-1.8-1.9c-10.7,7.9-12.9,23-5,33.7
					c0.7,0.9,1.4,1.8,2.2,2.6L766.2,359.6z"/>
				<path class="st3" d="M793.2,344.8c1.9,0,3.4-1.5,3.4-3.3s-1.5-3.4-3.3-3.4c-1.9,0-3.4,1.5-3.4,3.3c0,0,0,0,0,0
					C789.9,343.3,791.4,344.8,793.2,344.8z"/>
				<path class="st3" d="M815.7,345v-1c-0.1-16.9-13.8-30.5-30.7-30.4c-6.9,0-13.7,2.4-19.1,6.8l0,0l19.1,19.8v13.9L815.7,345z
					 M793.2,336.3c1,0,2,0.3,2.8,0.8l3.4-3.4l1.3,1.3l-3.4,3.4c0.7,0.9,1,2,1,3.1c0,2.9-2.3,5.2-5.2,5.2c-2.9,0-5.2-2.3-5.2-5.2
					C788,338.6,790.3,336.3,793.2,336.3L793.2,336.3L793.2,336.3z"/>
				<path class="st3" d="M796.9,368.5c7.7,0,14.7,4.5,18.7,11.8l0,0c0,0,0-11.2,0-21.2l-49.3,13.9c-1.7,2.6-3,5.2-4.6,7.2h16.4
					C782.3,372.9,789.3,368.5,796.9,368.5z"/>
				<path class="st3" d="M796.9,371c-6.3,0-12.1,3.5-15.8,9.3h31.7C809.1,374.5,803.3,371,796.9,371z"/>
			</g>
		</g>
		<g>
			<path d="M825.7,350c1,0-7-23-7-23l-5,6.8l-2,9.2l1,9l5,7l9-3L825.7,350z"/>
			<g>
				<path class="st3" d="M836.4,341.2l-8.8-9.1c-1.4,1.4-2.3,3.1-2.8,5c-0.2,1.1-0.5,3.9-0.5,3.9l-3.4,6.8c-0.1,0.1-0.1,0.3-0.1,0.4
					c0,0.6,0.4,1,1,1h2.5v3.6c0,2.8,1.1,4.1,2.7,4.7l9.4-2.8L836.4,341.2L836.4,341.2z M828.4,343.4c-0.8,0-1.5-0.7-1.5-1.5
					s0.7-1.5,1.5-1.5s1.5,0.7,1.5,1.5c0,0,0,0,0,0C830,342.8,829.3,343.4,828.4,343.4L828.4,343.4z"/>
				<path class="st3" d="M869.7,347.5l-52.5,15.5l2.5,7.7l50-14.1C869.7,353.1,869.7,349.8,869.7,347.5L869.7,347.5z"/>
				<path class="st3" d="M820.2,359.6c-8.9-7.8-9.8-21.4-1.9-30.3c1.1-1.2,2.3-2.3,3.6-3.2l-1.8-1.9c-10.7,7.9-12.9,23-5,33.7
					c0.7,0.9,1.4,1.8,2.2,2.6L820.2,359.6z"/>
				<path class="st3" d="M847.2,344.8c1.9,0,3.4-1.5,3.4-3.3s-1.5-3.4-3.3-3.4c-1.9,0-3.4,1.5-3.4,3.3c0,0,0,0,0,0
					C843.9,343.3,845.4,344.8,847.2,344.8z"/>
				<path class="st3" d="M869.7,345v-1c-0.1-16.9-13.8-30.5-30.7-30.4c-6.9,0-13.7,2.4-19.1,6.8l0,0l19.1,19.8v13.9L869.7,345z
					 M847.2,336.3c1,0,2,0.3,2.8,0.8l3.4-3.4l1.3,1.3l-3.4,3.4c0.7,0.9,1,2,1,3.1c0,2.9-2.3,5.2-5.2,5.2c-2.9,0-5.2-2.3-5.2-5.2
					C842,338.6,844.3,336.3,847.2,336.3L847.2,336.3L847.2,336.3z"/>
				<path class="st3" d="M850.9,368.5c7.7,0,14.7,4.5,18.7,11.8l0,0c0,0,0-11.2,0-21.2l-49.3,13.9c-1.7,2.6-3,5.2-4.6,7.2h16.4
					C836.3,372.9,843.3,368.5,850.9,368.5z"/>
				<path class="st3" d="M850.9,371c-6.3,0-12.1,3.5-15.8,9.3h31.7C863.1,374.5,857.3,371,850.9,371z"/>
			</g>
		</g>
	</g>
	<g>
		<g>
			<path class="st5" d="M518.4,478.2l-8.8-9.1c-1.4,1.4-2.3,3.1-2.8,5c-0.2,1.1-0.5,3.9-0.5,3.9l-3.4,6.8c-0.1,0.1-0.1,0.3-0.1,0.4
				c0,0.6,0.4,1,1,1h2.5v3.6c0,2.8,1.1,4.1,2.7,4.7l9.4-2.8L518.4,478.2L518.4,478.2z M510.4,480.4c-0.8,0-1.5-0.7-1.5-1.5
				c0-0.8,0.7-1.5,1.5-1.5s1.5,0.7,1.5,1.5c0,0,0,0,0,0C512,479.8,511.3,480.4,510.4,480.4L510.4,480.4z"/>
			<path class="st5" d="M551.7,484.5l-52.5,15.5l2.5,7.7l50-14.1C551.7,490.1,551.7,486.8,551.7,484.5L551.7,484.5z"/>
			<path class="st5" d="M502.2,496.6c-8.9-7.8-9.8-21.4-1.9-30.3c1.1-1.2,2.3-2.3,3.6-3.2l-1.8-1.9c-10.7,7.9-12.9,23-5,33.7
				c0.7,0.9,1.4,1.8,2.2,2.6L502.2,496.6z"/>
			<path class="st5" d="M529.2,481.8c1.9,0,3.4-1.5,3.4-3.3s-1.5-3.4-3.3-3.4c-1.9,0-3.4,1.5-3.4,3.3c0,0,0,0,0,0
				C525.9,480.3,527.4,481.8,529.2,481.8z"/>
			<path class="st5" d="M551.7,482v-1c-0.1-16.9-13.8-30.5-30.7-30.4c-6.9,0-13.7,2.4-19.1,6.8l0,0l19.1,19.8v13.9L551.7,482z
				 M529.2,473.3c1,0,2,0.3,2.8,0.8l3.4-3.4l1.3,1.3l-3.4,3.4c0.7,0.9,1,2,1,3.1c0,2.9-2.3,5.2-5.2,5.2c-2.9,0-5.2-2.3-5.2-5.2
				C524,475.6,526.3,473.3,529.2,473.3C529.2,473.3,529.2,473.3,529.2,473.3L529.2,473.3z"/>
			<path class="st5" d="M532.9,505.5c7.7,0,14.7,4.5,18.7,11.8l0,0c0,0,0-11.2,0-21.2l-49.3,13.9c-1.7,2.6-3,5.2-4.6,7.2h16.4
				C518.3,509.9,525.3,505.5,532.9,505.5z"/>
			<path class="st5" d="M532.9,508c-6.3,0-12.1,3.5-15.8,9.3h31.7C545.1,511.5,539.3,508,532.9,508z"/>
		</g>
		<text transform="matrix(1 0 0 1 496.63 533.4)" class="st3 st1 st2">A</text>
		<text transform="matrix(1 0 0 1 503.94 533.4)" class="st3 st1 st2">polo 16</text>
		<g>
			<path d="M561.7,487c1,0-7-23-7-23l-5,6.8l-2,9.2l1,9l5,7l9-3L561.7,487z"/>
			<g>
				<path class="st3" d="M572.4,478.2l-8.8-9.1c-1.4,1.4-2.3,3.1-2.8,5c-0.2,1.1-0.5,3.9-0.5,3.9l-3.4,6.8c-0.1,0.1-0.1,0.3-0.1,0.4
					c0,0.6,0.4,1,1,1h2.5v3.6c0,2.8,1.1,4.1,2.7,4.7l9.4-2.8L572.4,478.2L572.4,478.2z M564.4,480.4c-0.8,0-1.5-0.7-1.5-1.5
					s0.7-1.5,1.5-1.5s1.5,0.7,1.5,1.5c0,0,0,0,0,0C566,479.8,565.3,480.4,564.4,480.4L564.4,480.4z"/>
				<path class="st3" d="M605.7,484.5l-52.5,15.5l2.5,7.7l50-14.1C605.7,490.1,605.7,486.8,605.7,484.5L605.7,484.5z"/>
				<path class="st3" d="M556.2,496.6c-8.9-7.8-9.8-21.4-1.9-30.3c1.1-1.2,2.3-2.3,3.6-3.2l-1.8-1.9c-10.7,7.9-12.9,23-5,33.7
					c0.7,0.9,1.4,1.8,2.2,2.6L556.2,496.6z"/>
				<path class="st3" d="M583.2,481.8c1.9,0,3.4-1.5,3.4-3.3s-1.5-3.4-3.3-3.4c-1.9,0-3.4,1.5-3.4,3.3c0,0,0,0,0,0
					C579.9,480.3,581.4,481.8,583.2,481.8z"/>
				<path class="st3" d="M605.7,482v-1c-0.1-16.9-13.8-30.5-30.7-30.4c-6.9,0-13.7,2.4-19.1,6.8l0,0l19.1,19.8v13.9L605.7,482z
					 M583.2,473.3c1,0,2,0.3,2.8,0.8l3.4-3.4l1.3,1.3l-3.4,3.4c0.7,0.9,1,2,1,3.1c0,2.9-2.3,5.2-5.2,5.2c-2.9,0-5.2-2.3-5.2-5.2
					C578,475.6,580.3,473.3,583.2,473.3C583.2,473.3,583.2,473.3,583.2,473.3L583.2,473.3z"/>
				<path class="st3" d="M586.9,505.5c7.7,0,14.7,4.5,18.7,11.8l0,0c0,0,0-11.2,0-21.2l-49.3,13.9c-1.7,2.6-3,5.2-4.6,7.2h16.4
					C572.3,509.9,579.3,505.5,586.9,505.5z"/>
				<path class="st3" d="M586.9,508c-6.3,0-12.1,3.5-15.8,9.3h31.7C599.1,511.5,593.3,508,586.9,508z"/>
			</g>
		</g>
		<g>
			<path d="M615.7,487c1,0-7-23-7-23l-5,6.8l-2,9.2l1,9l5,7l9-3L615.7,487z"/>
			<g>
				<path class="st3" d="M626.4,478.2l-8.8-9.1c-1.4,1.4-2.3,3.1-2.8,5c-0.2,1.1-0.5,3.9-0.5,3.9l-3.4,6.8c-0.1,0.1-0.1,0.3-0.1,0.4
					c0,0.6,0.4,1,1,1h2.5v3.6c0,2.8,1.1,4.1,2.7,4.7l9.4-2.8L626.4,478.2L626.4,478.2z M618.4,480.4c-0.8,0-1.5-0.7-1.5-1.5
					s0.7-1.5,1.5-1.5s1.5,0.7,1.5,1.5c0,0,0,0,0,0C620,479.8,619.3,480.4,618.4,480.4L618.4,480.4z"/>
				<path class="st3" d="M659.7,484.5l-52.5,15.5l2.5,7.7l50-14.1C659.7,490.1,659.7,486.8,659.7,484.5L659.7,484.5z"/>
				<path class="st3" d="M610.2,496.6c-8.9-7.8-9.8-21.4-1.9-30.3c1.1-1.2,2.3-2.3,3.6-3.2l-1.8-1.9c-10.7,7.9-12.9,23-5,33.7
					c0.7,0.9,1.4,1.8,2.2,2.6L610.2,496.6z"/>
				<path class="st3" d="M637.2,481.8c1.9,0,3.4-1.5,3.4-3.3s-1.5-3.4-3.3-3.4c-1.9,0-3.4,1.5-3.4,3.3c0,0,0,0,0,0
					C633.9,480.3,635.4,481.8,637.2,481.8z"/>
				<path class="st3" d="M659.7,482v-1c-0.1-16.9-13.8-30.5-30.7-30.4c-6.9,0-13.7,2.4-19.1,6.8l0,0l19.1,19.8v13.9L659.7,482z
					 M637.2,473.3c1,0,2,0.3,2.8,0.8l3.4-3.4l1.3,1.3l-3.4,3.4c0.7,0.9,1,2,1,3.1c0,2.9-2.3,5.2-5.2,5.2c-2.9,0-5.2-2.3-5.2-5.2
					C632,475.6,634.3,473.3,637.2,473.3C637.2,473.3,637.2,473.3,637.2,473.3L637.2,473.3z"/>
				<path class="st3" d="M640.9,505.5c7.7,0,14.7,4.5,18.7,11.8l0,0c0,0,0-11.2,0-21.2l-49.3,13.9c-1.7,2.6-3,5.2-4.6,7.2h16.4
					C626.3,509.9,633.3,505.5,640.9,505.5z"/>
				<path class="st3" d="M640.9,508c-6.3,0-12.1,3.5-15.8,9.3h31.7C653.1,511.5,647.3,508,640.9,508z"/>
			</g>
		</g>
	</g>
	<g>
		<g>
			<path class="st5" d="M728.4,478.2l-8.8-9.1c-1.4,1.4-2.3,3.1-2.8,5c-0.2,1.1-0.5,3.9-0.5,3.9l-3.4,6.8c-0.1,0.1-0.1,0.3-0.1,0.4
				c0,0.6,0.4,1,1,1h2.5v3.6c0,2.8,1.1,4.1,2.7,4.7l9.4-2.8L728.4,478.2L728.4,478.2z M720.4,480.4c-0.8,0-1.5-0.7-1.5-1.5
				s0.7-1.5,1.5-1.5s1.5,0.7,1.5,1.5c0,0,0,0,0,0C722,479.8,721.3,480.4,720.4,480.4L720.4,480.4z"/>
			<path class="st5" d="M761.7,484.5l-52.5,15.5l2.5,7.7l50-14.1C761.7,490.1,761.7,486.8,761.7,484.5L761.7,484.5z"/>
			<path class="st5" d="M712.2,496.6c-8.9-7.8-9.8-21.4-1.9-30.3c1.1-1.2,2.3-2.3,3.6-3.2l-1.8-1.9c-10.7,7.9-12.9,23-5,33.7
				c0.7,0.9,1.4,1.8,2.2,2.6L712.2,496.6z"/>
			<path class="st5" d="M739.2,481.8c1.9,0,3.4-1.5,3.4-3.3s-1.5-3.4-3.3-3.4c-1.9,0-3.4,1.5-3.4,3.3c0,0,0,0,0,0
				C735.9,480.3,737.4,481.8,739.2,481.8z"/>
			<path class="st5" d="M761.7,482v-1c-0.1-16.9-13.8-30.5-30.7-30.4c-6.9,0-13.7,2.4-19.1,6.8l0,0l19.1,19.8v13.9L761.7,482z
				 M739.2,473.3c1,0,2,0.3,2.8,0.8l3.4-3.4l1.3,1.3l-3.4,3.4c0.7,0.9,1,2,1,3.1c0,2.9-2.3,5.2-5.2,5.2c-2.9,0-5.2-2.3-5.2-5.2
				C734,475.6,736.3,473.3,739.2,473.3C739.2,473.3,739.2,473.3,739.2,473.3L739.2,473.3z"/>
			<path class="st5" d="M742.9,505.5c7.7,0,14.7,4.5,18.7,11.8l0,0c0,0,0-11.2,0-21.2l-49.3,13.9c-1.7,2.6-3,5.2-4.6,7.2h16.4
				C728.3,509.9,735.3,505.5,742.9,505.5z"/>
			<path class="st5" d="M742.9,508c-6.3,0-12.1,3.5-15.8,9.3h31.7C755.1,511.5,749.3,508,742.9,508z"/>
		</g>
		<text transform="matrix(1 0 0 1 705.63 533.4)" class="st3 st1 st2">A</text>
		<text transform="matrix(1 0 0 1 712.94 533.4)" class="st3 st1 st2">polo 17</text>
		<g>
			<path d="M771.7,487c1,0-7-23-7-23l-5,6.8l-2,9.2l1,9l5,7l9-3L771.7,487z"/>
			<g>
				<path class="st3" d="M782.4,478.2l-8.8-9.1c-1.4,1.4-2.3,3.1-2.8,5c-0.2,1.1-0.5,3.9-0.5,3.9l-3.4,6.8c-0.1,0.1-0.1,0.3-0.1,0.4
					c0,0.6,0.4,1,1,1h2.5v3.6c0,2.8,1.1,4.1,2.7,4.7l9.4-2.8L782.4,478.2L782.4,478.2z M774.4,480.4c-0.8,0-1.5-0.7-1.5-1.5
					s0.7-1.5,1.5-1.5s1.5,0.7,1.5,1.5c0,0,0,0,0,0C776,479.8,775.3,480.4,774.4,480.4L774.4,480.4z"/>
				<path class="st3" d="M815.7,484.5l-52.5,15.5l2.5,7.7l50-14.1C815.7,490.1,815.7,486.8,815.7,484.5L815.7,484.5z"/>
				<path class="st3" d="M766.2,496.6c-8.9-7.8-9.8-21.4-1.9-30.3c1.1-1.2,2.3-2.3,3.6-3.2l-1.8-1.9c-10.7,7.9-12.9,23-5,33.7
					c0.7,0.9,1.4,1.8,2.2,2.6L766.2,496.6z"/>
				<path class="st3" d="M793.2,481.8c1.9,0,3.4-1.5,3.4-3.3s-1.5-3.4-3.3-3.4c-1.9,0-3.4,1.5-3.4,3.3c0,0,0,0,0,0
					C789.9,480.3,791.4,481.8,793.2,481.8z"/>
				<path class="st3" d="M815.7,482v-1c-0.1-16.9-13.8-30.5-30.7-30.4c-6.9,0-13.7,2.4-19.1,6.8l0,0l19.1,19.8v13.9L815.7,482z
					 M793.2,473.3c1,0,2,0.3,2.8,0.8l3.4-3.4l1.3,1.3l-3.4,3.4c0.7,0.9,1,2,1,3.1c0,2.9-2.3,5.2-5.2,5.2c-2.9,0-5.2-2.3-5.2-5.2
					C788,475.6,790.3,473.3,793.2,473.3C793.2,473.3,793.2,473.3,793.2,473.3L793.2,473.3z"/>
				<path class="st3" d="M796.9,505.5c7.7,0,14.7,4.5,18.7,11.8l0,0c0,0,0-11.2,0-21.2l-49.3,13.9c-1.7,2.6-3,5.2-4.6,7.2h16.4
					C782.3,509.9,789.3,505.5,796.9,505.5z"/>
				<path class="st3" d="M796.9,508c-6.3,0-12.1,3.5-15.8,9.3h31.7C809.1,511.5,803.3,508,796.9,508z"/>
			</g>
		</g>
		<g>
			<path d="M825.7,487c1,0-7-23-7-23l-5,6.8l-2,9.2l1,9l5,7l9-3L825.7,487z"/>
			<g>
				<path class="st3" d="M836.4,478.2l-8.8-9.1c-1.4,1.4-2.3,3.1-2.8,5c-0.2,1.1-0.5,3.9-0.5,3.9l-3.4,6.8c-0.1,0.1-0.1,0.3-0.1,0.4
					c0,0.6,0.4,1,1,1h2.5v3.6c0,2.8,1.1,4.1,2.7,4.7l9.4-2.8L836.4,478.2L836.4,478.2z M828.4,480.4c-0.8,0-1.5-0.7-1.5-1.5
					s0.7-1.5,1.5-1.5s1.5,0.7,1.5,1.5c0,0,0,0,0,0C830,479.8,829.3,480.4,828.4,480.4L828.4,480.4z"/>
				<path class="st3" d="M869.7,484.5l-52.5,15.5l2.5,7.7l50-14.1C869.7,490.1,869.7,486.8,869.7,484.5L869.7,484.5z"/>
				<path class="st3" d="M820.2,496.6c-8.9-7.8-9.8-21.4-1.9-30.3c1.1-1.2,2.3-2.3,3.6-3.2l-1.8-1.9c-10.7,7.9-12.9,23-5,33.7
					c0.7,0.9,1.4,1.8,2.2,2.6L820.2,496.6z"/>
				<path class="st3" d="M847.2,481.8c1.9,0,3.4-1.5,3.4-3.3s-1.5-3.4-3.3-3.4c-1.9,0-3.4,1.5-3.4,3.3c0,0,0,0,0,0
					C843.9,480.3,845.4,481.8,847.2,481.8z"/>
				<path class="st3" d="M869.7,482v-1c-0.1-16.9-13.8-30.5-30.7-30.4c-6.9,0-13.7,2.4-19.1,6.8l0,0l19.1,19.8v13.9L869.7,482z
					 M847.2,473.3c1,0,2,0.3,2.8,0.8l3.4-3.4l1.3,1.3l-3.4,3.4c0.7,0.9,1,2,1,3.1c0,2.9-2.3,5.2-5.2,5.2c-2.9,0-5.2-2.3-5.2-5.2
					C842,475.6,844.3,473.3,847.2,473.3C847.2,473.3,847.2,473.3,847.2,473.3L847.2,473.3z"/>
				<path class="st3" d="M850.9,505.5c7.7,0,14.7,4.5,18.7,11.8l0,0c0,0,0-11.2,0-21.2l-49.3,13.9c-1.7,2.6-3,5.2-4.6,7.2h16.4
					C836.3,509.9,843.3,505.5,850.9,505.5z"/>
				<path class="st3" d="M850.9,508c-6.3,0-12.1,3.5-15.8,9.3h31.7C863.1,511.5,857.3,508,850.9,508z"/>
			</g>
		</g>
	</g>
	<text transform="matrix(1 0 0 1 101.94 52.38)" class="st0 st6 st7">No sob</text>
	<text transform="matrix(1 0 0 1 146.43 52.38)" class="st0 st6 st7">r</text>
	<text transform="matrix(1 0 0 1 151.04 52.38)" class="st0 st6 st7">e</text>
	<text transform="matrix(1 0 0 1 158.36 52.38)" class="st0 st6 st7">vivie</text>
	<text transform="matrix(1 0 0 1 186.14 52.38)" class="st0 st6 st7">r</text>
	<text transform="matrix(1 0 0 1 190.74 52.38)" class="st0 st6 st7">on</text>
	<rect x="66.1" y="36" class="st0" width="23" height="23"/>
	<text transform="matrix(1 0 0 1 101.94 96.77)" class="st0 st6 st7">Sob</text>
	<text transform="matrix(1 0 0 1 126.08 96.77)" class="st0 st6 st7">r</text>
	<text transform="matrix(1 0 0 1 130.69 96.77)" class="st0 st6 st7">e</text>
	<text transform="matrix(1 0 0 1 138.02 96.77)" class="st0 st6 st7">vivie</text>
	<text transform="matrix(1 0 0 1 165.79 96.77)" class="st0 st6 st7">r</text>
	<text transform="matrix(1 0 0 1 170.4 96.77)" class="st0 st6 st7">on</text>
	<rect x="66.1" y="79.6" class="st3" width="23" height="23"/>
	<text transform="matrix(1 0 0 1 101.94 139.57)" class="st0 st6 st7">V</text>
	<text transform="matrix(1 0 0 1 110.53 139.57)" class="st0 st6 st7">olvie</text>
	<text transform="matrix(1 0 0 1 139.51 139.57)" class="st0 st6 st7">r</text>
	<text transform="matrix(1 0 0 1 144.11 139.57)" class="st0 st6 st7">on a viajar</text>
	<rect x="66.1" y="123.2" class="st4" width="23" height="23"/>
	<text transform="matrix(1 0 0 1 101.44 172.88)" class="st0 st6 st7">Dnde </text>
	<text transform="matrix(1 0 0 1 145.11 172.88)" class="st0 st6 st7">v</text>
	<text transform="matrix(1 0 0 1 151.79 172.88)" class="st0 st6 st7">olvie</text>
	<text transform="matrix(1 0 0 1 180.76 172.88)" class="st0 st6 st7">r</text>
	<text transform="matrix(1 0 0 1 185.36 172.88)" class="st0 st6 st7">on </text>
	<text transform="matrix(1 0 0 1 101.44 189.68)" class="st0 st6 st7">a viajar</text>
	<rect x="66.1" y="164.5" class="st5" width="23" height="23"/>
</g>
</svg>
